%TF.GenerationSoftware,KiCad,Pcbnew,8.0.5*%
%TF.CreationDate,2024-11-08T19:29:57+08:00*%
%TF.ProjectId,STM32H730,53544d33-3248-4373-9330-2e6b69636164,rev?*%
%TF.SameCoordinates,Original*%
%TF.FileFunction,Legend,Top*%
%TF.FilePolarity,Positive*%
%FSLAX46Y46*%
G04 Gerber Fmt 4.6, Leading zero omitted, Abs format (unit mm)*
G04 Created by KiCad (PCBNEW 8.0.5) date 2024-11-08 19:29:57*
%MOMM*%
%LPD*%
G01*
G04 APERTURE LIST*
%ADD10C,0.800000*%
%ADD11C,0.203200*%
%ADD12C,0.127000*%
%ADD13C,0.150000*%
%ADD14C,0.120000*%
%ADD15C,0.254000*%
%ADD16C,0.152000*%
%ADD17C,0.152500*%
%ADD18C,0.100000*%
%ADD19C,0.080000*%
%ADD20C,0.152400*%
%ADD21C,0.000000*%
%ADD22C,0.350000*%
%ADD23O,1.700000X0.600000*%
%ADD24O,1.400000X0.600000*%
%ADD25C,0.200000*%
G04 APERTURE END LIST*
D10*
X90950000Y-76850000D02*
X99750000Y-76850000D01*
X102950000Y-76850000D02*
X103950000Y-76850000D01*
X103950000Y-76850000D02*
X103950000Y-85650000D01*
X103950000Y-88850000D02*
X103950000Y-89850000D01*
X103950000Y-89850000D02*
X95150000Y-89850000D01*
X91950000Y-89850000D02*
X90950000Y-89850000D01*
X90950000Y-89850000D02*
X90950000Y-81050000D01*
X90950000Y-77850000D02*
X90950000Y-76850000D01*
D11*
G36*
X105696399Y-89372891D02*
G01*
X105785964Y-89417674D01*
X105871631Y-89503340D01*
X105915975Y-89636373D01*
X105915975Y-89804001D01*
X104919175Y-89804001D01*
X104919175Y-89636374D01*
X104963519Y-89503340D01*
X105049186Y-89417674D01*
X105138754Y-89372890D01*
X105344367Y-89321487D01*
X105490784Y-89321487D01*
X105696399Y-89372891D01*
G37*
G36*
X105493643Y-88661144D02*
G01*
X105412989Y-88661144D01*
X105350446Y-88629872D01*
X105319175Y-88567330D01*
X105319175Y-88386729D01*
X105350446Y-88324186D01*
X105412988Y-88292916D01*
X105419998Y-88292916D01*
X105493643Y-88661144D01*
G37*
G36*
X105915975Y-85758156D02*
G01*
X105915975Y-85938760D01*
X105876932Y-86016846D01*
X105843107Y-86050671D01*
X105765019Y-86089715D01*
X105470132Y-86089715D01*
X105392044Y-86050671D01*
X105358218Y-86016845D01*
X105319175Y-85938758D01*
X105319175Y-85758157D01*
X105337510Y-85721487D01*
X105897641Y-85721487D01*
X105915975Y-85758156D01*
G37*
G36*
X105214534Y-82560530D02*
G01*
X105248360Y-82594356D01*
X105287404Y-82672443D01*
X105287404Y-82946858D01*
X104919175Y-82946858D01*
X104919175Y-82672443D01*
X104958218Y-82594356D01*
X104992044Y-82560531D01*
X105070132Y-82521487D01*
X105136448Y-82521487D01*
X105214534Y-82560530D01*
G37*
G36*
X105843107Y-82503388D02*
G01*
X105876932Y-82537213D01*
X105915975Y-82615299D01*
X105915975Y-82946858D01*
X105490604Y-82946858D01*
X105490604Y-82664945D01*
X105534948Y-82531912D01*
X105563473Y-82503387D01*
X105641560Y-82464344D01*
X105765019Y-82464344D01*
X105843107Y-82503388D01*
G37*
G36*
X105915975Y-78443870D02*
G01*
X105915975Y-78681617D01*
X105884704Y-78744157D01*
X105822162Y-78775429D01*
X105755846Y-78775429D01*
X105693303Y-78744157D01*
X105662033Y-78681616D01*
X105662033Y-78419886D01*
X105660784Y-78407201D01*
X105897641Y-78407201D01*
X105915975Y-78443870D01*
G37*
G36*
X105493643Y-76146857D02*
G01*
X105412989Y-76146857D01*
X105350446Y-76115585D01*
X105319175Y-76053043D01*
X105319175Y-75872442D01*
X105350446Y-75809899D01*
X105412988Y-75778629D01*
X105419998Y-75778629D01*
X105493643Y-76146857D01*
G37*
G36*
X106652508Y-90140534D02*
G01*
X104582642Y-90140534D01*
X104582642Y-89619887D01*
X104715975Y-89619887D01*
X104715975Y-89905601D01*
X104717927Y-89925422D01*
X104733098Y-89962047D01*
X104761129Y-89990078D01*
X104797754Y-90005249D01*
X104817575Y-90007201D01*
X106017575Y-90007201D01*
X106037396Y-90005249D01*
X106074021Y-89990078D01*
X106102052Y-89962047D01*
X106117223Y-89925422D01*
X106119175Y-89905601D01*
X106119175Y-89619887D01*
X106118187Y-89609859D01*
X106118378Y-89607180D01*
X106117576Y-89603656D01*
X106117223Y-89600066D01*
X106116196Y-89597587D01*
X106113961Y-89587759D01*
X106056819Y-89416330D01*
X106048700Y-89398143D01*
X106046306Y-89395383D01*
X106044910Y-89392011D01*
X106032275Y-89376616D01*
X105917989Y-89262331D01*
X105910196Y-89255935D01*
X105908440Y-89253910D01*
X105905386Y-89251988D01*
X105902593Y-89249695D01*
X105900111Y-89248667D01*
X105891584Y-89243299D01*
X105777298Y-89186156D01*
X105775847Y-89185600D01*
X105775259Y-89185165D01*
X105766952Y-89182197D01*
X105758696Y-89179038D01*
X105757964Y-89178985D01*
X105756503Y-89178464D01*
X105527932Y-89121321D01*
X105524496Y-89120812D01*
X105523111Y-89120239D01*
X105515643Y-89119503D01*
X105508229Y-89118407D01*
X105506747Y-89118627D01*
X105503290Y-89118287D01*
X105331861Y-89118287D01*
X105328403Y-89118627D01*
X105326922Y-89118407D01*
X105319500Y-89119504D01*
X105312040Y-89120239D01*
X105310657Y-89120811D01*
X105307220Y-89121320D01*
X105078648Y-89178464D01*
X105077187Y-89178985D01*
X105076455Y-89179038D01*
X105068190Y-89182200D01*
X105059893Y-89185165D01*
X105059305Y-89185600D01*
X105057853Y-89186156D01*
X104943567Y-89243299D01*
X104935038Y-89248667D01*
X104932558Y-89249695D01*
X104929765Y-89251986D01*
X104926712Y-89253909D01*
X104924954Y-89255935D01*
X104917162Y-89262331D01*
X104802876Y-89376616D01*
X104790241Y-89392011D01*
X104788842Y-89395386D01*
X104786452Y-89398143D01*
X104778332Y-89416329D01*
X104721189Y-89587758D01*
X104718954Y-89597585D01*
X104717927Y-89600066D01*
X104717572Y-89603660D01*
X104716773Y-89607179D01*
X104716963Y-89609853D01*
X104715975Y-89619887D01*
X104582642Y-89619887D01*
X104582642Y-88362744D01*
X105115975Y-88362744D01*
X105115975Y-88591316D01*
X105117927Y-88611137D01*
X105119324Y-88614510D01*
X105119583Y-88618152D01*
X105126701Y-88636753D01*
X105183844Y-88751038D01*
X105185931Y-88754353D01*
X105186452Y-88755916D01*
X105188139Y-88757862D01*
X105194455Y-88767894D01*
X105204080Y-88776241D01*
X105212426Y-88785865D01*
X105222453Y-88792177D01*
X105224403Y-88793868D01*
X105225968Y-88794389D01*
X105229281Y-88796475D01*
X105343567Y-88853618D01*
X105362169Y-88860736D01*
X105365809Y-88860994D01*
X105369183Y-88862392D01*
X105389004Y-88864344D01*
X105617681Y-88864344D01*
X105846147Y-88864344D01*
X105865968Y-88862392D01*
X105869341Y-88860994D01*
X105872982Y-88860736D01*
X105891584Y-88853618D01*
X106005870Y-88796475D01*
X106009185Y-88794387D01*
X106010748Y-88793867D01*
X106012694Y-88792179D01*
X106022726Y-88785864D01*
X106031072Y-88776239D01*
X106040697Y-88767893D01*
X106047011Y-88757861D01*
X106048699Y-88755916D01*
X106049219Y-88754353D01*
X106051307Y-88751038D01*
X106108449Y-88636753D01*
X106115567Y-88618151D01*
X106115825Y-88614510D01*
X106117223Y-88611137D01*
X106119175Y-88591316D01*
X106119175Y-88362744D01*
X106117223Y-88342923D01*
X106115825Y-88339549D01*
X106115567Y-88335909D01*
X106108449Y-88317308D01*
X106051307Y-88203022D01*
X106040697Y-88186166D01*
X106010749Y-88160192D01*
X105973141Y-88147656D01*
X105933598Y-88150466D01*
X105898141Y-88168194D01*
X105872167Y-88198142D01*
X105859631Y-88235750D01*
X105862441Y-88275293D01*
X105869559Y-88293894D01*
X105915975Y-88386727D01*
X105915975Y-88567332D01*
X105884704Y-88629872D01*
X105822162Y-88661144D01*
X105700867Y-88661144D01*
X105602917Y-88171391D01*
X105597116Y-88152337D01*
X105591575Y-88144063D01*
X105587767Y-88134870D01*
X105580655Y-88127758D01*
X105575057Y-88119399D01*
X105566774Y-88113877D01*
X105559736Y-88106839D01*
X105550441Y-88102989D01*
X105542073Y-88097410D01*
X105532309Y-88095478D01*
X105523111Y-88091668D01*
X105503290Y-88089716D01*
X105389004Y-88089716D01*
X105369183Y-88091668D01*
X105365809Y-88093065D01*
X105362169Y-88093324D01*
X105343568Y-88100442D01*
X105229282Y-88157584D01*
X105225966Y-88159670D01*
X105224403Y-88160192D01*
X105222455Y-88161880D01*
X105212426Y-88168194D01*
X105204077Y-88177819D01*
X105194455Y-88186165D01*
X105188142Y-88196193D01*
X105186452Y-88198142D01*
X105185930Y-88199706D01*
X105183844Y-88203021D01*
X105126701Y-88317307D01*
X105119583Y-88335909D01*
X105119324Y-88339549D01*
X105117927Y-88342923D01*
X105115975Y-88362744D01*
X104582642Y-88362744D01*
X104582642Y-87391316D01*
X105115975Y-87391316D01*
X105115975Y-87562745D01*
X105117927Y-87582566D01*
X105119324Y-87585939D01*
X105119583Y-87589581D01*
X105126701Y-87608182D01*
X105183844Y-87722467D01*
X105185931Y-87725782D01*
X105186452Y-87727345D01*
X105188139Y-87729291D01*
X105194455Y-87739323D01*
X105204080Y-87747670D01*
X105212426Y-87757294D01*
X105222453Y-87763606D01*
X105224403Y-87765297D01*
X105225968Y-87765818D01*
X105229281Y-87767904D01*
X105343567Y-87825047D01*
X105362169Y-87832165D01*
X105365809Y-87832423D01*
X105369183Y-87833821D01*
X105389004Y-87835773D01*
X105446147Y-87835773D01*
X105465968Y-87833821D01*
X105469341Y-87832423D01*
X105472982Y-87832165D01*
X105491584Y-87825047D01*
X105605870Y-87767904D01*
X105609185Y-87765816D01*
X105610748Y-87765296D01*
X105612694Y-87763608D01*
X105622726Y-87757293D01*
X105631072Y-87747668D01*
X105640697Y-87739322D01*
X105647011Y-87729290D01*
X105648699Y-87727345D01*
X105649219Y-87725782D01*
X105651307Y-87722467D01*
X105708449Y-87608182D01*
X105715567Y-87589580D01*
X105715825Y-87585939D01*
X105717223Y-87582566D01*
X105719175Y-87562745D01*
X105719175Y-87415301D01*
X105750446Y-87352758D01*
X105812989Y-87321487D01*
X105822162Y-87321487D01*
X105884704Y-87352758D01*
X105915975Y-87415299D01*
X105915975Y-87595903D01*
X105869559Y-87688737D01*
X105862441Y-87707338D01*
X105859631Y-87746881D01*
X105872167Y-87784489D01*
X105898141Y-87814437D01*
X105933598Y-87832165D01*
X105973141Y-87834975D01*
X106010749Y-87822439D01*
X106040697Y-87796465D01*
X106051307Y-87779609D01*
X106108449Y-87665323D01*
X106115567Y-87646722D01*
X106115825Y-87643081D01*
X106117223Y-87639708D01*
X106119175Y-87619887D01*
X106119175Y-87391316D01*
X106117223Y-87371495D01*
X106115825Y-87368121D01*
X106115567Y-87364481D01*
X106108449Y-87345880D01*
X106051307Y-87231594D01*
X106049220Y-87228278D01*
X106048699Y-87226715D01*
X106047010Y-87224767D01*
X106040697Y-87214738D01*
X106031071Y-87206389D01*
X106022726Y-87196767D01*
X106012697Y-87190454D01*
X106010749Y-87188764D01*
X106009184Y-87188242D01*
X106005870Y-87186156D01*
X105891584Y-87129013D01*
X105872982Y-87121895D01*
X105869341Y-87121636D01*
X105865968Y-87120239D01*
X105846147Y-87118287D01*
X105789004Y-87118287D01*
X105769183Y-87120239D01*
X105765809Y-87121636D01*
X105762169Y-87121895D01*
X105743567Y-87129013D01*
X105629281Y-87186156D01*
X105625965Y-87188243D01*
X105624403Y-87188764D01*
X105622457Y-87190451D01*
X105612426Y-87196766D01*
X105604079Y-87206390D01*
X105594455Y-87214737D01*
X105588139Y-87224768D01*
X105586452Y-87226715D01*
X105585931Y-87228277D01*
X105583844Y-87231593D01*
X105526701Y-87345879D01*
X105519583Y-87364481D01*
X105519324Y-87368121D01*
X105517927Y-87371495D01*
X105515975Y-87391316D01*
X105515975Y-87538761D01*
X105484704Y-87601301D01*
X105422162Y-87632573D01*
X105412989Y-87632573D01*
X105350446Y-87601301D01*
X105319175Y-87538759D01*
X105319175Y-87415301D01*
X105365592Y-87322467D01*
X105372710Y-87303865D01*
X105375520Y-87264322D01*
X105362984Y-87226715D01*
X105337011Y-87196766D01*
X105301554Y-87179038D01*
X105262011Y-87176228D01*
X105224403Y-87188764D01*
X105194455Y-87214737D01*
X105183844Y-87231593D01*
X105126701Y-87345879D01*
X105119583Y-87364481D01*
X105119324Y-87368121D01*
X105117927Y-87371495D01*
X105115975Y-87391316D01*
X104582642Y-87391316D01*
X104582642Y-86685780D01*
X104717927Y-86685780D01*
X104717927Y-86725422D01*
X104733098Y-86762047D01*
X104745733Y-86777443D01*
X104802876Y-86834586D01*
X104818272Y-86847221D01*
X104854897Y-86862392D01*
X104894539Y-86862392D01*
X104931164Y-86847221D01*
X104946560Y-86834586D01*
X105003703Y-86777443D01*
X105016338Y-86762047D01*
X105031509Y-86725422D01*
X105031509Y-86685780D01*
X105117927Y-86685780D01*
X105117927Y-86725422D01*
X105133098Y-86762047D01*
X105161129Y-86790078D01*
X105197754Y-86805249D01*
X105217575Y-86807201D01*
X106017575Y-86807201D01*
X106037396Y-86805249D01*
X106074021Y-86790078D01*
X106102052Y-86762047D01*
X106117223Y-86725422D01*
X106117223Y-86685780D01*
X106102052Y-86649155D01*
X106074021Y-86621124D01*
X106037396Y-86605953D01*
X106017575Y-86604001D01*
X105217575Y-86604001D01*
X105197754Y-86605953D01*
X105161129Y-86621124D01*
X105133098Y-86649155D01*
X105117927Y-86685780D01*
X105031509Y-86685780D01*
X105016338Y-86649155D01*
X105003703Y-86633759D01*
X104946560Y-86576616D01*
X104931164Y-86563981D01*
X104894539Y-86548810D01*
X104854897Y-86548810D01*
X104818272Y-86563981D01*
X104802876Y-86576616D01*
X104745733Y-86633759D01*
X104733098Y-86649155D01*
X104717927Y-86685780D01*
X104582642Y-86685780D01*
X104582642Y-85734172D01*
X105115975Y-85734172D01*
X105115975Y-85962744D01*
X105117927Y-85982565D01*
X105119324Y-85985938D01*
X105119583Y-85989580D01*
X105126701Y-86008181D01*
X105183844Y-86122466D01*
X105189214Y-86130997D01*
X105190241Y-86133475D01*
X105192530Y-86136264D01*
X105194455Y-86139322D01*
X105196482Y-86141080D01*
X105202876Y-86148871D01*
X105260019Y-86206014D01*
X105267810Y-86212407D01*
X105269569Y-86214436D01*
X105272626Y-86216360D01*
X105275415Y-86218649D01*
X105277890Y-86219674D01*
X105286424Y-86225046D01*
X105400710Y-86282189D01*
X105419312Y-86289307D01*
X105422952Y-86289565D01*
X105426326Y-86290963D01*
X105446147Y-86292915D01*
X105789004Y-86292915D01*
X105808825Y-86290963D01*
X105812198Y-86289565D01*
X105815839Y-86289307D01*
X105834441Y-86282189D01*
X105948727Y-86225046D01*
X105957258Y-86219675D01*
X105959736Y-86218649D01*
X105962525Y-86216359D01*
X105965583Y-86214435D01*
X105967341Y-86212407D01*
X105975132Y-86206014D01*
X106032275Y-86148871D01*
X106038668Y-86141079D01*
X106040697Y-86139321D01*
X106042621Y-86136263D01*
X106044910Y-86133475D01*
X106045935Y-86130999D01*
X106051307Y-86122466D01*
X106108449Y-86008181D01*
X106115567Y-85989579D01*
X106115825Y-85985938D01*
X106117223Y-85982565D01*
X106119175Y-85962744D01*
X106119175Y-85734172D01*
X106117926Y-85721487D01*
X106165020Y-85721487D01*
X106243106Y-85760529D01*
X106276932Y-85794355D01*
X106315975Y-85872441D01*
X106315975Y-85995903D01*
X106269559Y-86088735D01*
X106262441Y-86107337D01*
X106259631Y-86146880D01*
X106272167Y-86184487D01*
X106298141Y-86214436D01*
X106333598Y-86232164D01*
X106373141Y-86234974D01*
X106410748Y-86222438D01*
X106440697Y-86196464D01*
X106451307Y-86179609D01*
X106508449Y-86065324D01*
X106515567Y-86046722D01*
X106515825Y-86043081D01*
X106517223Y-86039708D01*
X106519175Y-86019887D01*
X106519175Y-85848458D01*
X106517223Y-85828637D01*
X106515825Y-85825263D01*
X106515567Y-85821623D01*
X106508449Y-85803022D01*
X106451307Y-85688736D01*
X106445936Y-85680203D01*
X106444910Y-85677726D01*
X106442621Y-85674937D01*
X106440697Y-85671880D01*
X106438668Y-85670120D01*
X106432275Y-85662330D01*
X106375132Y-85605187D01*
X106367341Y-85598793D01*
X106365582Y-85596765D01*
X106362524Y-85594840D01*
X106359736Y-85592552D01*
X106357258Y-85591525D01*
X106348726Y-85586155D01*
X106234440Y-85529013D01*
X106215839Y-85521895D01*
X106212198Y-85521636D01*
X106208825Y-85520239D01*
X106189004Y-85518287D01*
X105217575Y-85518287D01*
X105197754Y-85520239D01*
X105161129Y-85535410D01*
X105133098Y-85563441D01*
X105117927Y-85600066D01*
X105117927Y-85639708D01*
X105133009Y-85676118D01*
X105126701Y-85688735D01*
X105119583Y-85707336D01*
X105119324Y-85710977D01*
X105117927Y-85714351D01*
X105115975Y-85734172D01*
X104582642Y-85734172D01*
X104582642Y-84705601D01*
X105115975Y-84705601D01*
X105115975Y-84877030D01*
X105117927Y-84896851D01*
X105119324Y-84900224D01*
X105119583Y-84903866D01*
X105126701Y-84922467D01*
X105152015Y-84973094D01*
X105133098Y-84992012D01*
X105117927Y-85028637D01*
X105117927Y-85068279D01*
X105133098Y-85104904D01*
X105161129Y-85132935D01*
X105197754Y-85148106D01*
X105217575Y-85150058D01*
X106017575Y-85150058D01*
X106037396Y-85148106D01*
X106074021Y-85132935D01*
X106102052Y-85104904D01*
X106117223Y-85068279D01*
X106117223Y-85028637D01*
X106102052Y-84992012D01*
X106074021Y-84963981D01*
X106037396Y-84948810D01*
X106017575Y-84946858D01*
X105373945Y-84946858D01*
X105358218Y-84931131D01*
X105319175Y-84853044D01*
X105319175Y-84729586D01*
X105350446Y-84667043D01*
X105412988Y-84635773D01*
X106017575Y-84635773D01*
X106037396Y-84633821D01*
X106074021Y-84618650D01*
X106102052Y-84590619D01*
X106117223Y-84553994D01*
X106117223Y-84514352D01*
X106102052Y-84477727D01*
X106074021Y-84449696D01*
X106037396Y-84434525D01*
X106017575Y-84432573D01*
X105389004Y-84432573D01*
X105369183Y-84434525D01*
X105365809Y-84435922D01*
X105362169Y-84436181D01*
X105343568Y-84443299D01*
X105229282Y-84500441D01*
X105225966Y-84502527D01*
X105224403Y-84503049D01*
X105222455Y-84504737D01*
X105212426Y-84511051D01*
X105204077Y-84520676D01*
X105194455Y-84529022D01*
X105188142Y-84539050D01*
X105186452Y-84540999D01*
X105185930Y-84542563D01*
X105183844Y-84545878D01*
X105126701Y-84660164D01*
X105119583Y-84678766D01*
X105119324Y-84682406D01*
X105117927Y-84685780D01*
X105115975Y-84705601D01*
X104582642Y-84705601D01*
X104582642Y-82648458D01*
X104715975Y-82648458D01*
X104715975Y-83048458D01*
X104717927Y-83068279D01*
X104733098Y-83104904D01*
X104761129Y-83132935D01*
X104797754Y-83148106D01*
X104817575Y-83150058D01*
X106017575Y-83150058D01*
X106037396Y-83148106D01*
X106074021Y-83132935D01*
X106102052Y-83104904D01*
X106117223Y-83068279D01*
X106119175Y-83048458D01*
X106119175Y-82591315D01*
X106117223Y-82571494D01*
X106115825Y-82568120D01*
X106115567Y-82564480D01*
X106108449Y-82545878D01*
X106051307Y-82431593D01*
X106045935Y-82423059D01*
X106044910Y-82420584D01*
X106042621Y-82417795D01*
X106040697Y-82414738D01*
X106038668Y-82412979D01*
X106032275Y-82405188D01*
X105975132Y-82348045D01*
X105967341Y-82341651D01*
X105965583Y-82339624D01*
X105962525Y-82337699D01*
X105959736Y-82335410D01*
X105957258Y-82334383D01*
X105948727Y-82329013D01*
X105834441Y-82271870D01*
X105815839Y-82264752D01*
X105812198Y-82264493D01*
X105808825Y-82263096D01*
X105789004Y-82261144D01*
X105617575Y-82261144D01*
X105597754Y-82263096D01*
X105594380Y-82264493D01*
X105590739Y-82264752D01*
X105572138Y-82271870D01*
X105457853Y-82329013D01*
X105449320Y-82334384D01*
X105446844Y-82335410D01*
X105444054Y-82337699D01*
X105440997Y-82339624D01*
X105439238Y-82341651D01*
X105431448Y-82348045D01*
X105374305Y-82405188D01*
X105361798Y-82420426D01*
X105346560Y-82405188D01*
X105338769Y-82398794D01*
X105337011Y-82396767D01*
X105333953Y-82394842D01*
X105331164Y-82392553D01*
X105328686Y-82391526D01*
X105320155Y-82386156D01*
X105205870Y-82329013D01*
X105187269Y-82321895D01*
X105183627Y-82321636D01*
X105180254Y-82320239D01*
X105160433Y-82318287D01*
X105046147Y-82318287D01*
X105026326Y-82320239D01*
X105022952Y-82321636D01*
X105019312Y-82321895D01*
X105000710Y-82329013D01*
X104886424Y-82386156D01*
X104877890Y-82391527D01*
X104875415Y-82392553D01*
X104872626Y-82394841D01*
X104869569Y-82396766D01*
X104867810Y-82398794D01*
X104860019Y-82405188D01*
X104802876Y-82462331D01*
X104796482Y-82470121D01*
X104794455Y-82471880D01*
X104792530Y-82474937D01*
X104790241Y-82477727D01*
X104789214Y-82480204D01*
X104783844Y-82488736D01*
X104726701Y-82603021D01*
X104719583Y-82621622D01*
X104719324Y-82625263D01*
X104717927Y-82628637D01*
X104715975Y-82648458D01*
X104582642Y-82648458D01*
X104582642Y-81376466D01*
X105117066Y-81376466D01*
X105119035Y-81416060D01*
X105136005Y-81451886D01*
X105165393Y-81478491D01*
X105183403Y-81486996D01*
X105715496Y-81677029D01*
X105183403Y-81867063D01*
X105165394Y-81875568D01*
X105136005Y-81902173D01*
X105119035Y-81937999D01*
X105117066Y-81977593D01*
X105130399Y-82014925D01*
X105157004Y-82044314D01*
X105192830Y-82061284D01*
X105232424Y-82063253D01*
X105251747Y-82058425D01*
X106015539Y-81785642D01*
X106246193Y-81877902D01*
X106276932Y-81908641D01*
X106326701Y-82008180D01*
X106337311Y-82025036D01*
X106367259Y-82051010D01*
X106404867Y-82063546D01*
X106444410Y-82060736D01*
X106479867Y-82043008D01*
X106505841Y-82013060D01*
X106518377Y-81975452D01*
X106515567Y-81935909D01*
X106508449Y-81917308D01*
X106451307Y-81803022D01*
X106445936Y-81794489D01*
X106444910Y-81792012D01*
X106442621Y-81789223D01*
X106440697Y-81786166D01*
X106438668Y-81784406D01*
X106432275Y-81776616D01*
X106375132Y-81719473D01*
X106359736Y-81706838D01*
X106359153Y-81706596D01*
X106358701Y-81706155D01*
X106341023Y-81696982D01*
X106055308Y-81582697D01*
X106053476Y-81582165D01*
X106051747Y-81581349D01*
X105251747Y-81295634D01*
X105232424Y-81290806D01*
X105192830Y-81292775D01*
X105157004Y-81309745D01*
X105130399Y-81339133D01*
X105117066Y-81376466D01*
X104582642Y-81376466D01*
X104582642Y-79314351D01*
X104717927Y-79314351D01*
X104717927Y-79353993D01*
X104733098Y-79390618D01*
X104745733Y-79406014D01*
X105258006Y-79918286D01*
X104817575Y-79918286D01*
X104797754Y-79920238D01*
X104761129Y-79935409D01*
X104733098Y-79963440D01*
X104717927Y-80000065D01*
X104717927Y-80039707D01*
X104733098Y-80076332D01*
X104761129Y-80104363D01*
X104797754Y-80119534D01*
X104817575Y-80121486D01*
X106017575Y-80121486D01*
X106037396Y-80119534D01*
X106074021Y-80104363D01*
X106102052Y-80076332D01*
X106117223Y-80039707D01*
X106117223Y-80000065D01*
X106102052Y-79963440D01*
X106074021Y-79935409D01*
X106037396Y-79920238D01*
X106017575Y-79918286D01*
X105545374Y-79918286D01*
X105486538Y-79859450D01*
X106078535Y-79415452D01*
X106093221Y-79401998D01*
X106113418Y-79367886D01*
X106119024Y-79328642D01*
X106109186Y-79290240D01*
X106085401Y-79258526D01*
X106051289Y-79238329D01*
X106012046Y-79232723D01*
X105973643Y-79242561D01*
X105956615Y-79252892D01*
X105341395Y-79714307D01*
X104889417Y-79262330D01*
X104874021Y-79249695D01*
X104837396Y-79234524D01*
X104797754Y-79234524D01*
X104761129Y-79249695D01*
X104733098Y-79277726D01*
X104717927Y-79314351D01*
X104582642Y-79314351D01*
X104582642Y-78477029D01*
X105115975Y-78477029D01*
X105115975Y-78705601D01*
X105117927Y-78725422D01*
X105119324Y-78728795D01*
X105119583Y-78732437D01*
X105126701Y-78751038D01*
X105183844Y-78865323D01*
X105194455Y-78882179D01*
X105224403Y-78908153D01*
X105262011Y-78920688D01*
X105301554Y-78917878D01*
X105337011Y-78900150D01*
X105362984Y-78870201D01*
X105375520Y-78832593D01*
X105372710Y-78793050D01*
X105365592Y-78774449D01*
X105319175Y-78681615D01*
X105319175Y-78501014D01*
X105350446Y-78438471D01*
X105412988Y-78407201D01*
X105440498Y-78407201D01*
X105458833Y-78443871D01*
X105458833Y-78705601D01*
X105460785Y-78725422D01*
X105462182Y-78728795D01*
X105462441Y-78732436D01*
X105469559Y-78751038D01*
X105526701Y-78865322D01*
X105528787Y-78868637D01*
X105529309Y-78870201D01*
X105530997Y-78872148D01*
X105537311Y-78882178D01*
X105546936Y-78890526D01*
X105555283Y-78900150D01*
X105565311Y-78906462D01*
X105567259Y-78908152D01*
X105568823Y-78908673D01*
X105572138Y-78910760D01*
X105686424Y-78967903D01*
X105705026Y-78975021D01*
X105708666Y-78975279D01*
X105712040Y-78976677D01*
X105731861Y-78978629D01*
X105846147Y-78978629D01*
X105865968Y-78976677D01*
X105869341Y-78975279D01*
X105872982Y-78975021D01*
X105891584Y-78967903D01*
X106005870Y-78910760D01*
X106009185Y-78908672D01*
X106010748Y-78908152D01*
X106012694Y-78906464D01*
X106022726Y-78900149D01*
X106031072Y-78890524D01*
X106040697Y-78882178D01*
X106047011Y-78872146D01*
X106048699Y-78870201D01*
X106049219Y-78868638D01*
X106051307Y-78865323D01*
X106108449Y-78751038D01*
X106115567Y-78732436D01*
X106115825Y-78728795D01*
X106117223Y-78725422D01*
X106119175Y-78705601D01*
X106119175Y-78419886D01*
X106117223Y-78400065D01*
X106115825Y-78396691D01*
X106115567Y-78393051D01*
X106108449Y-78374449D01*
X106102140Y-78361832D01*
X106117223Y-78325422D01*
X106117223Y-78285780D01*
X106102052Y-78249155D01*
X106074021Y-78221124D01*
X106037396Y-78205953D01*
X106017575Y-78204001D01*
X105389004Y-78204001D01*
X105369183Y-78205953D01*
X105365809Y-78207350D01*
X105362169Y-78207609D01*
X105343568Y-78214727D01*
X105229282Y-78271869D01*
X105225966Y-78273955D01*
X105224403Y-78274477D01*
X105222455Y-78276165D01*
X105212426Y-78282479D01*
X105204077Y-78292104D01*
X105194455Y-78300450D01*
X105188142Y-78310478D01*
X105186452Y-78312427D01*
X105185930Y-78313991D01*
X105183844Y-78317306D01*
X105126701Y-78431592D01*
X105119583Y-78450194D01*
X105119324Y-78453834D01*
X105117927Y-78457208D01*
X105115975Y-78477029D01*
X104582642Y-78477029D01*
X104582642Y-77714351D01*
X104717927Y-77714351D01*
X104717927Y-77753993D01*
X104733098Y-77790618D01*
X104745733Y-77806014D01*
X104802876Y-77863157D01*
X104818272Y-77875792D01*
X104854897Y-77890963D01*
X104894539Y-77890963D01*
X104931164Y-77875792D01*
X104946560Y-77863157D01*
X105003703Y-77806014D01*
X105016338Y-77790618D01*
X105031509Y-77753993D01*
X105031509Y-77714351D01*
X105117927Y-77714351D01*
X105117927Y-77753993D01*
X105133098Y-77790618D01*
X105161129Y-77818649D01*
X105197754Y-77833820D01*
X105217575Y-77835772D01*
X106017575Y-77835772D01*
X106037396Y-77833820D01*
X106074021Y-77818649D01*
X106102052Y-77790618D01*
X106117223Y-77753993D01*
X106117223Y-77714351D01*
X106102052Y-77677726D01*
X106074021Y-77649695D01*
X106037396Y-77634524D01*
X106017575Y-77632572D01*
X105217575Y-77632572D01*
X105197754Y-77634524D01*
X105161129Y-77649695D01*
X105133098Y-77677726D01*
X105117927Y-77714351D01*
X105031509Y-77714351D01*
X105016338Y-77677726D01*
X105003703Y-77662330D01*
X104946560Y-77605187D01*
X104931164Y-77592552D01*
X104894539Y-77577381D01*
X104854897Y-77577381D01*
X104818272Y-77592552D01*
X104802876Y-77605187D01*
X104745733Y-77662330D01*
X104733098Y-77677726D01*
X104717927Y-77714351D01*
X104582642Y-77714351D01*
X104582642Y-76877029D01*
X105115975Y-76877029D01*
X105115975Y-77048458D01*
X105117927Y-77068279D01*
X105119324Y-77071652D01*
X105119583Y-77075294D01*
X105126701Y-77093895D01*
X105183844Y-77208180D01*
X105185931Y-77211495D01*
X105186452Y-77213058D01*
X105188139Y-77215004D01*
X105194455Y-77225036D01*
X105204080Y-77233383D01*
X105212426Y-77243007D01*
X105222453Y-77249319D01*
X105224403Y-77251010D01*
X105225968Y-77251531D01*
X105229281Y-77253617D01*
X105343567Y-77310760D01*
X105362169Y-77317878D01*
X105365809Y-77318136D01*
X105369183Y-77319534D01*
X105389004Y-77321486D01*
X105446147Y-77321486D01*
X105465968Y-77319534D01*
X105469341Y-77318136D01*
X105472982Y-77317878D01*
X105491584Y-77310760D01*
X105605870Y-77253617D01*
X105609185Y-77251529D01*
X105610748Y-77251009D01*
X105612694Y-77249321D01*
X105622726Y-77243006D01*
X105631072Y-77233381D01*
X105640697Y-77225035D01*
X105647011Y-77215003D01*
X105648699Y-77213058D01*
X105649219Y-77211495D01*
X105651307Y-77208180D01*
X105708449Y-77093895D01*
X105715567Y-77075293D01*
X105715825Y-77071652D01*
X105717223Y-77068279D01*
X105719175Y-77048458D01*
X105719175Y-76901014D01*
X105750446Y-76838471D01*
X105812989Y-76807200D01*
X105822162Y-76807200D01*
X105884704Y-76838471D01*
X105915975Y-76901012D01*
X105915975Y-77081616D01*
X105869559Y-77174450D01*
X105862441Y-77193051D01*
X105859631Y-77232594D01*
X105872167Y-77270202D01*
X105898141Y-77300150D01*
X105933598Y-77317878D01*
X105973141Y-77320688D01*
X106010749Y-77308152D01*
X106040697Y-77282178D01*
X106051307Y-77265322D01*
X106108449Y-77151036D01*
X106115567Y-77132435D01*
X106115825Y-77128794D01*
X106117223Y-77125421D01*
X106119175Y-77105600D01*
X106119175Y-76877029D01*
X106117223Y-76857208D01*
X106115825Y-76853834D01*
X106115567Y-76850194D01*
X106108449Y-76831593D01*
X106051307Y-76717307D01*
X106049220Y-76713991D01*
X106048699Y-76712428D01*
X106047010Y-76710480D01*
X106040697Y-76700451D01*
X106031071Y-76692102D01*
X106022726Y-76682480D01*
X106012697Y-76676167D01*
X106010749Y-76674477D01*
X106009184Y-76673955D01*
X106005870Y-76671869D01*
X105891584Y-76614726D01*
X105872982Y-76607608D01*
X105869341Y-76607349D01*
X105865968Y-76605952D01*
X105846147Y-76604000D01*
X105789004Y-76604000D01*
X105769183Y-76605952D01*
X105765809Y-76607349D01*
X105762169Y-76607608D01*
X105743567Y-76614726D01*
X105629281Y-76671869D01*
X105625965Y-76673956D01*
X105624403Y-76674477D01*
X105622457Y-76676164D01*
X105612426Y-76682479D01*
X105604079Y-76692103D01*
X105594455Y-76700450D01*
X105588139Y-76710481D01*
X105586452Y-76712428D01*
X105585931Y-76713990D01*
X105583844Y-76717306D01*
X105526701Y-76831592D01*
X105519583Y-76850194D01*
X105519324Y-76853834D01*
X105517927Y-76857208D01*
X105515975Y-76877029D01*
X105515975Y-77024474D01*
X105484704Y-77087014D01*
X105422162Y-77118286D01*
X105412989Y-77118286D01*
X105350446Y-77087014D01*
X105319175Y-77024472D01*
X105319175Y-76901014D01*
X105365592Y-76808180D01*
X105372710Y-76789578D01*
X105375520Y-76750035D01*
X105362984Y-76712428D01*
X105337011Y-76682479D01*
X105301554Y-76664751D01*
X105262011Y-76661941D01*
X105224403Y-76674477D01*
X105194455Y-76700450D01*
X105183844Y-76717306D01*
X105126701Y-76831592D01*
X105119583Y-76850194D01*
X105119324Y-76853834D01*
X105117927Y-76857208D01*
X105115975Y-76877029D01*
X104582642Y-76877029D01*
X104582642Y-75848457D01*
X105115975Y-75848457D01*
X105115975Y-76077029D01*
X105117927Y-76096850D01*
X105119324Y-76100223D01*
X105119583Y-76103865D01*
X105126701Y-76122466D01*
X105183844Y-76236751D01*
X105185931Y-76240066D01*
X105186452Y-76241629D01*
X105188139Y-76243575D01*
X105194455Y-76253607D01*
X105204080Y-76261954D01*
X105212426Y-76271578D01*
X105222453Y-76277890D01*
X105224403Y-76279581D01*
X105225968Y-76280102D01*
X105229281Y-76282188D01*
X105343567Y-76339331D01*
X105362169Y-76346449D01*
X105365809Y-76346707D01*
X105369183Y-76348105D01*
X105389004Y-76350057D01*
X105617681Y-76350057D01*
X105846147Y-76350057D01*
X105865968Y-76348105D01*
X105869341Y-76346707D01*
X105872982Y-76346449D01*
X105891584Y-76339331D01*
X106005870Y-76282188D01*
X106009185Y-76280100D01*
X106010748Y-76279580D01*
X106012694Y-76277892D01*
X106022726Y-76271577D01*
X106031072Y-76261952D01*
X106040697Y-76253606D01*
X106047011Y-76243574D01*
X106048699Y-76241629D01*
X106049219Y-76240066D01*
X106051307Y-76236751D01*
X106108449Y-76122466D01*
X106115567Y-76103864D01*
X106115825Y-76100223D01*
X106117223Y-76096850D01*
X106119175Y-76077029D01*
X106119175Y-75848457D01*
X106117223Y-75828636D01*
X106115825Y-75825262D01*
X106115567Y-75821622D01*
X106108449Y-75803021D01*
X106051307Y-75688735D01*
X106040697Y-75671879D01*
X106010749Y-75645905D01*
X105973141Y-75633369D01*
X105933598Y-75636179D01*
X105898141Y-75653907D01*
X105872167Y-75683855D01*
X105859631Y-75721463D01*
X105862441Y-75761006D01*
X105869559Y-75779607D01*
X105915975Y-75872440D01*
X105915975Y-76053045D01*
X105884704Y-76115585D01*
X105822162Y-76146857D01*
X105700867Y-76146857D01*
X105602917Y-75657104D01*
X105597116Y-75638050D01*
X105591575Y-75629776D01*
X105587767Y-75620583D01*
X105580655Y-75613471D01*
X105575057Y-75605112D01*
X105566774Y-75599590D01*
X105559736Y-75592552D01*
X105550441Y-75588702D01*
X105542073Y-75583123D01*
X105532309Y-75581191D01*
X105523111Y-75577381D01*
X105503290Y-75575429D01*
X105389004Y-75575429D01*
X105369183Y-75577381D01*
X105365809Y-75578778D01*
X105362169Y-75579037D01*
X105343568Y-75586155D01*
X105229282Y-75643297D01*
X105225966Y-75645383D01*
X105224403Y-75645905D01*
X105222455Y-75647593D01*
X105212426Y-75653907D01*
X105204077Y-75663532D01*
X105194455Y-75671878D01*
X105188142Y-75681906D01*
X105186452Y-75683855D01*
X105185930Y-75685419D01*
X105183844Y-75688734D01*
X105126701Y-75803020D01*
X105119583Y-75821622D01*
X105119324Y-75825262D01*
X105117927Y-75828636D01*
X105115975Y-75848457D01*
X104582642Y-75848457D01*
X104582642Y-74819886D01*
X105115975Y-74819886D01*
X105115975Y-74934172D01*
X105117927Y-74953993D01*
X105119324Y-74957366D01*
X105119583Y-74961007D01*
X105126701Y-74979609D01*
X105173472Y-75073152D01*
X105161129Y-75078266D01*
X105133098Y-75106297D01*
X105117927Y-75142922D01*
X105117927Y-75182564D01*
X105133098Y-75219189D01*
X105161129Y-75247220D01*
X105197754Y-75262391D01*
X105217575Y-75264343D01*
X106017575Y-75264343D01*
X106037396Y-75262391D01*
X106074021Y-75247220D01*
X106102052Y-75219189D01*
X106117223Y-75182564D01*
X106117223Y-75142922D01*
X106102052Y-75106297D01*
X106074021Y-75078266D01*
X106037396Y-75063095D01*
X106017575Y-75061143D01*
X105470132Y-75061143D01*
X105392043Y-75022098D01*
X105358218Y-74988274D01*
X105319175Y-74910187D01*
X105319175Y-74819886D01*
X105317223Y-74800065D01*
X105302052Y-74763440D01*
X105274021Y-74735409D01*
X105237396Y-74720238D01*
X105197754Y-74720238D01*
X105161129Y-74735409D01*
X105133098Y-74763440D01*
X105117927Y-74800065D01*
X105115975Y-74819886D01*
X104582642Y-74819886D01*
X104582642Y-74586905D01*
X106652508Y-74586905D01*
X106652508Y-90140534D01*
G37*
D12*
X84703406Y-33749952D02*
X84195406Y-33749952D01*
X84195406Y-33749952D02*
X84195406Y-33629000D01*
X84195406Y-33629000D02*
X84219596Y-33556428D01*
X84219596Y-33556428D02*
X84267977Y-33508047D01*
X84267977Y-33508047D02*
X84316358Y-33483857D01*
X84316358Y-33483857D02*
X84413120Y-33459666D01*
X84413120Y-33459666D02*
X84485692Y-33459666D01*
X84485692Y-33459666D02*
X84582454Y-33483857D01*
X84582454Y-33483857D02*
X84630835Y-33508047D01*
X84630835Y-33508047D02*
X84679216Y-33556428D01*
X84679216Y-33556428D02*
X84703406Y-33629000D01*
X84703406Y-33629000D02*
X84703406Y-33749952D01*
X84413120Y-33169381D02*
X84388930Y-33217762D01*
X84388930Y-33217762D02*
X84364739Y-33241952D01*
X84364739Y-33241952D02*
X84316358Y-33266143D01*
X84316358Y-33266143D02*
X84292168Y-33266143D01*
X84292168Y-33266143D02*
X84243787Y-33241952D01*
X84243787Y-33241952D02*
X84219596Y-33217762D01*
X84219596Y-33217762D02*
X84195406Y-33169381D01*
X84195406Y-33169381D02*
X84195406Y-33072619D01*
X84195406Y-33072619D02*
X84219596Y-33024238D01*
X84219596Y-33024238D02*
X84243787Y-33000047D01*
X84243787Y-33000047D02*
X84292168Y-32975857D01*
X84292168Y-32975857D02*
X84316358Y-32975857D01*
X84316358Y-32975857D02*
X84364739Y-33000047D01*
X84364739Y-33000047D02*
X84388930Y-33024238D01*
X84388930Y-33024238D02*
X84413120Y-33072619D01*
X84413120Y-33072619D02*
X84413120Y-33169381D01*
X84413120Y-33169381D02*
X84437311Y-33217762D01*
X84437311Y-33217762D02*
X84461501Y-33241952D01*
X84461501Y-33241952D02*
X84509882Y-33266143D01*
X84509882Y-33266143D02*
X84606644Y-33266143D01*
X84606644Y-33266143D02*
X84655025Y-33241952D01*
X84655025Y-33241952D02*
X84679216Y-33217762D01*
X84679216Y-33217762D02*
X84703406Y-33169381D01*
X84703406Y-33169381D02*
X84703406Y-33072619D01*
X84703406Y-33072619D02*
X84679216Y-33024238D01*
X84679216Y-33024238D02*
X84655025Y-33000047D01*
X84655025Y-33000047D02*
X84606644Y-32975857D01*
X84606644Y-32975857D02*
X84509882Y-32975857D01*
X84509882Y-32975857D02*
X84461501Y-33000047D01*
X84461501Y-33000047D02*
X84437311Y-33024238D01*
X84437311Y-33024238D02*
X84413120Y-33072619D01*
X110431952Y-83880906D02*
X110431952Y-84292144D01*
X110431952Y-84292144D02*
X110456142Y-84340525D01*
X110456142Y-84340525D02*
X110480333Y-84364716D01*
X110480333Y-84364716D02*
X110528714Y-84388906D01*
X110528714Y-84388906D02*
X110625476Y-84388906D01*
X110625476Y-84388906D02*
X110673857Y-84364716D01*
X110673857Y-84364716D02*
X110698047Y-84340525D01*
X110698047Y-84340525D02*
X110722238Y-84292144D01*
X110722238Y-84292144D02*
X110722238Y-83880906D01*
X111036713Y-84098620D02*
X110988332Y-84074430D01*
X110988332Y-84074430D02*
X110964142Y-84050239D01*
X110964142Y-84050239D02*
X110939951Y-84001858D01*
X110939951Y-84001858D02*
X110939951Y-83977668D01*
X110939951Y-83977668D02*
X110964142Y-83929287D01*
X110964142Y-83929287D02*
X110988332Y-83905096D01*
X110988332Y-83905096D02*
X111036713Y-83880906D01*
X111036713Y-83880906D02*
X111133475Y-83880906D01*
X111133475Y-83880906D02*
X111181856Y-83905096D01*
X111181856Y-83905096D02*
X111206047Y-83929287D01*
X111206047Y-83929287D02*
X111230237Y-83977668D01*
X111230237Y-83977668D02*
X111230237Y-84001858D01*
X111230237Y-84001858D02*
X111206047Y-84050239D01*
X111206047Y-84050239D02*
X111181856Y-84074430D01*
X111181856Y-84074430D02*
X111133475Y-84098620D01*
X111133475Y-84098620D02*
X111036713Y-84098620D01*
X111036713Y-84098620D02*
X110988332Y-84122811D01*
X110988332Y-84122811D02*
X110964142Y-84147001D01*
X110964142Y-84147001D02*
X110939951Y-84195382D01*
X110939951Y-84195382D02*
X110939951Y-84292144D01*
X110939951Y-84292144D02*
X110964142Y-84340525D01*
X110964142Y-84340525D02*
X110988332Y-84364716D01*
X110988332Y-84364716D02*
X111036713Y-84388906D01*
X111036713Y-84388906D02*
X111133475Y-84388906D01*
X111133475Y-84388906D02*
X111181856Y-84364716D01*
X111181856Y-84364716D02*
X111206047Y-84340525D01*
X111206047Y-84340525D02*
X111230237Y-84292144D01*
X111230237Y-84292144D02*
X111230237Y-84195382D01*
X111230237Y-84195382D02*
X111206047Y-84147001D01*
X111206047Y-84147001D02*
X111181856Y-84122811D01*
X111181856Y-84122811D02*
X111133475Y-84098620D01*
X91350333Y-65403406D02*
X91108428Y-65403406D01*
X91108428Y-65403406D02*
X91108428Y-64895406D01*
X91543856Y-65403406D02*
X91640618Y-65403406D01*
X91640618Y-65403406D02*
X91688999Y-65379216D01*
X91688999Y-65379216D02*
X91713190Y-65355025D01*
X91713190Y-65355025D02*
X91761571Y-65282454D01*
X91761571Y-65282454D02*
X91785761Y-65185692D01*
X91785761Y-65185692D02*
X91785761Y-64992168D01*
X91785761Y-64992168D02*
X91761571Y-64943787D01*
X91761571Y-64943787D02*
X91737380Y-64919596D01*
X91737380Y-64919596D02*
X91688999Y-64895406D01*
X91688999Y-64895406D02*
X91592237Y-64895406D01*
X91592237Y-64895406D02*
X91543856Y-64919596D01*
X91543856Y-64919596D02*
X91519666Y-64943787D01*
X91519666Y-64943787D02*
X91495475Y-64992168D01*
X91495475Y-64992168D02*
X91495475Y-65113120D01*
X91495475Y-65113120D02*
X91519666Y-65161501D01*
X91519666Y-65161501D02*
X91543856Y-65185692D01*
X91543856Y-65185692D02*
X91592237Y-65209882D01*
X91592237Y-65209882D02*
X91688999Y-65209882D01*
X91688999Y-65209882D02*
X91737380Y-65185692D01*
X91737380Y-65185692D02*
X91761571Y-65161501D01*
X91761571Y-65161501D02*
X91785761Y-65113120D01*
X93173428Y-48405025D02*
X93149237Y-48429216D01*
X93149237Y-48429216D02*
X93076666Y-48453406D01*
X93076666Y-48453406D02*
X93028285Y-48453406D01*
X93028285Y-48453406D02*
X92955713Y-48429216D01*
X92955713Y-48429216D02*
X92907332Y-48380835D01*
X92907332Y-48380835D02*
X92883142Y-48332454D01*
X92883142Y-48332454D02*
X92858951Y-48235692D01*
X92858951Y-48235692D02*
X92858951Y-48163120D01*
X92858951Y-48163120D02*
X92883142Y-48066358D01*
X92883142Y-48066358D02*
X92907332Y-48017977D01*
X92907332Y-48017977D02*
X92955713Y-47969596D01*
X92955713Y-47969596D02*
X93028285Y-47945406D01*
X93028285Y-47945406D02*
X93076666Y-47945406D01*
X93076666Y-47945406D02*
X93149237Y-47969596D01*
X93149237Y-47969596D02*
X93173428Y-47993787D01*
X93608856Y-48114739D02*
X93608856Y-48453406D01*
X93487904Y-47921216D02*
X93366951Y-48284073D01*
X93366951Y-48284073D02*
X93681428Y-48284073D01*
X93947523Y-48163120D02*
X93899142Y-48138930D01*
X93899142Y-48138930D02*
X93874952Y-48114739D01*
X93874952Y-48114739D02*
X93850761Y-48066358D01*
X93850761Y-48066358D02*
X93850761Y-48042168D01*
X93850761Y-48042168D02*
X93874952Y-47993787D01*
X93874952Y-47993787D02*
X93899142Y-47969596D01*
X93899142Y-47969596D02*
X93947523Y-47945406D01*
X93947523Y-47945406D02*
X94044285Y-47945406D01*
X94044285Y-47945406D02*
X94092666Y-47969596D01*
X94092666Y-47969596D02*
X94116857Y-47993787D01*
X94116857Y-47993787D02*
X94141047Y-48042168D01*
X94141047Y-48042168D02*
X94141047Y-48066358D01*
X94141047Y-48066358D02*
X94116857Y-48114739D01*
X94116857Y-48114739D02*
X94092666Y-48138930D01*
X94092666Y-48138930D02*
X94044285Y-48163120D01*
X94044285Y-48163120D02*
X93947523Y-48163120D01*
X93947523Y-48163120D02*
X93899142Y-48187311D01*
X93899142Y-48187311D02*
X93874952Y-48211501D01*
X93874952Y-48211501D02*
X93850761Y-48259882D01*
X93850761Y-48259882D02*
X93850761Y-48356644D01*
X93850761Y-48356644D02*
X93874952Y-48405025D01*
X93874952Y-48405025D02*
X93899142Y-48429216D01*
X93899142Y-48429216D02*
X93947523Y-48453406D01*
X93947523Y-48453406D02*
X94044285Y-48453406D01*
X94044285Y-48453406D02*
X94092666Y-48429216D01*
X94092666Y-48429216D02*
X94116857Y-48405025D01*
X94116857Y-48405025D02*
X94141047Y-48356644D01*
X94141047Y-48356644D02*
X94141047Y-48259882D01*
X94141047Y-48259882D02*
X94116857Y-48211501D01*
X94116857Y-48211501D02*
X94092666Y-48187311D01*
X94092666Y-48187311D02*
X94044285Y-48163120D01*
X113696447Y-53797006D02*
X113696447Y-54208244D01*
X113696447Y-54208244D02*
X113720637Y-54256625D01*
X113720637Y-54256625D02*
X113744828Y-54280816D01*
X113744828Y-54280816D02*
X113793209Y-54305006D01*
X113793209Y-54305006D02*
X113889971Y-54305006D01*
X113889971Y-54305006D02*
X113938352Y-54280816D01*
X113938352Y-54280816D02*
X113962542Y-54256625D01*
X113962542Y-54256625D02*
X113986733Y-54208244D01*
X113986733Y-54208244D02*
X113986733Y-53797006D01*
X114494732Y-54305006D02*
X114204446Y-54305006D01*
X114349589Y-54305006D02*
X114349589Y-53797006D01*
X114349589Y-53797006D02*
X114301208Y-53869577D01*
X114301208Y-53869577D02*
X114252827Y-53917958D01*
X114252827Y-53917958D02*
X114204446Y-53942149D01*
X114664066Y-53797006D02*
X114978542Y-53797006D01*
X114978542Y-53797006D02*
X114809209Y-53990530D01*
X114809209Y-53990530D02*
X114881780Y-53990530D01*
X114881780Y-53990530D02*
X114930161Y-54014720D01*
X114930161Y-54014720D02*
X114954352Y-54038911D01*
X114954352Y-54038911D02*
X114978542Y-54087292D01*
X114978542Y-54087292D02*
X114978542Y-54208244D01*
X114978542Y-54208244D02*
X114954352Y-54256625D01*
X114954352Y-54256625D02*
X114930161Y-54280816D01*
X114930161Y-54280816D02*
X114881780Y-54305006D01*
X114881780Y-54305006D02*
X114736637Y-54305006D01*
X114736637Y-54305006D02*
X114688256Y-54280816D01*
X114688256Y-54280816D02*
X114664066Y-54256625D01*
X115744333Y-84388906D02*
X115502428Y-84388906D01*
X115502428Y-84388906D02*
X115502428Y-83880906D01*
X116155571Y-83880906D02*
X115913666Y-83880906D01*
X115913666Y-83880906D02*
X115889475Y-84122811D01*
X115889475Y-84122811D02*
X115913666Y-84098620D01*
X115913666Y-84098620D02*
X115962047Y-84074430D01*
X115962047Y-84074430D02*
X116082999Y-84074430D01*
X116082999Y-84074430D02*
X116131380Y-84098620D01*
X116131380Y-84098620D02*
X116155571Y-84122811D01*
X116155571Y-84122811D02*
X116179761Y-84171192D01*
X116179761Y-84171192D02*
X116179761Y-84292144D01*
X116179761Y-84292144D02*
X116155571Y-84340525D01*
X116155571Y-84340525D02*
X116131380Y-84364716D01*
X116131380Y-84364716D02*
X116082999Y-84388906D01*
X116082999Y-84388906D02*
X115962047Y-84388906D01*
X115962047Y-84388906D02*
X115913666Y-84364716D01*
X115913666Y-84364716D02*
X115889475Y-84340525D01*
X86928625Y-53891961D02*
X86952816Y-53916152D01*
X86952816Y-53916152D02*
X86977006Y-53988723D01*
X86977006Y-53988723D02*
X86977006Y-54037104D01*
X86977006Y-54037104D02*
X86952816Y-54109676D01*
X86952816Y-54109676D02*
X86904435Y-54158057D01*
X86904435Y-54158057D02*
X86856054Y-54182247D01*
X86856054Y-54182247D02*
X86759292Y-54206438D01*
X86759292Y-54206438D02*
X86686720Y-54206438D01*
X86686720Y-54206438D02*
X86589958Y-54182247D01*
X86589958Y-54182247D02*
X86541577Y-54158057D01*
X86541577Y-54158057D02*
X86493196Y-54109676D01*
X86493196Y-54109676D02*
X86469006Y-54037104D01*
X86469006Y-54037104D02*
X86469006Y-53988723D01*
X86469006Y-53988723D02*
X86493196Y-53916152D01*
X86493196Y-53916152D02*
X86517387Y-53891961D01*
X86977006Y-53674247D02*
X86469006Y-53674247D01*
X86469006Y-53674247D02*
X86977006Y-53383961D01*
X86977006Y-53383961D02*
X86469006Y-53383961D01*
X86977006Y-52875962D02*
X86977006Y-53166248D01*
X86977006Y-53021105D02*
X86469006Y-53021105D01*
X86469006Y-53021105D02*
X86541577Y-53069486D01*
X86541577Y-53069486D02*
X86589958Y-53117867D01*
X86589958Y-53117867D02*
X86614149Y-53166248D01*
X121170025Y-85801761D02*
X121194216Y-85825952D01*
X121194216Y-85825952D02*
X121218406Y-85898523D01*
X121218406Y-85898523D02*
X121218406Y-85946904D01*
X121218406Y-85946904D02*
X121194216Y-86019476D01*
X121194216Y-86019476D02*
X121145835Y-86067857D01*
X121145835Y-86067857D02*
X121097454Y-86092047D01*
X121097454Y-86092047D02*
X121000692Y-86116238D01*
X121000692Y-86116238D02*
X120928120Y-86116238D01*
X120928120Y-86116238D02*
X120831358Y-86092047D01*
X120831358Y-86092047D02*
X120782977Y-86067857D01*
X120782977Y-86067857D02*
X120734596Y-86019476D01*
X120734596Y-86019476D02*
X120710406Y-85946904D01*
X120710406Y-85946904D02*
X120710406Y-85898523D01*
X120710406Y-85898523D02*
X120734596Y-85825952D01*
X120734596Y-85825952D02*
X120758787Y-85801761D01*
X121218406Y-85584047D02*
X120710406Y-85584047D01*
X120710406Y-85584047D02*
X121218406Y-85293761D01*
X121218406Y-85293761D02*
X120710406Y-85293761D01*
X120879739Y-84834143D02*
X121218406Y-84834143D01*
X120686216Y-84955095D02*
X121049073Y-85076048D01*
X121049073Y-85076048D02*
X121049073Y-84761571D01*
X111916028Y-32155025D02*
X111891837Y-32179216D01*
X111891837Y-32179216D02*
X111819266Y-32203406D01*
X111819266Y-32203406D02*
X111770885Y-32203406D01*
X111770885Y-32203406D02*
X111698313Y-32179216D01*
X111698313Y-32179216D02*
X111649932Y-32130835D01*
X111649932Y-32130835D02*
X111625742Y-32082454D01*
X111625742Y-32082454D02*
X111601551Y-31985692D01*
X111601551Y-31985692D02*
X111601551Y-31913120D01*
X111601551Y-31913120D02*
X111625742Y-31816358D01*
X111625742Y-31816358D02*
X111649932Y-31767977D01*
X111649932Y-31767977D02*
X111698313Y-31719596D01*
X111698313Y-31719596D02*
X111770885Y-31695406D01*
X111770885Y-31695406D02*
X111819266Y-31695406D01*
X111819266Y-31695406D02*
X111891837Y-31719596D01*
X111891837Y-31719596D02*
X111916028Y-31743787D01*
X112351456Y-31864739D02*
X112351456Y-32203406D01*
X112230504Y-31671216D02*
X112109551Y-32034073D01*
X112109551Y-32034073D02*
X112424028Y-32034073D01*
X112593361Y-31743787D02*
X112617552Y-31719596D01*
X112617552Y-31719596D02*
X112665933Y-31695406D01*
X112665933Y-31695406D02*
X112786885Y-31695406D01*
X112786885Y-31695406D02*
X112835266Y-31719596D01*
X112835266Y-31719596D02*
X112859457Y-31743787D01*
X112859457Y-31743787D02*
X112883647Y-31792168D01*
X112883647Y-31792168D02*
X112883647Y-31840549D01*
X112883647Y-31840549D02*
X112859457Y-31913120D01*
X112859457Y-31913120D02*
X112569171Y-32203406D01*
X112569171Y-32203406D02*
X112883647Y-32203406D01*
X90698428Y-68280025D02*
X90674237Y-68304216D01*
X90674237Y-68304216D02*
X90601666Y-68328406D01*
X90601666Y-68328406D02*
X90553285Y-68328406D01*
X90553285Y-68328406D02*
X90480713Y-68304216D01*
X90480713Y-68304216D02*
X90432332Y-68255835D01*
X90432332Y-68255835D02*
X90408142Y-68207454D01*
X90408142Y-68207454D02*
X90383951Y-68110692D01*
X90383951Y-68110692D02*
X90383951Y-68038120D01*
X90383951Y-68038120D02*
X90408142Y-67941358D01*
X90408142Y-67941358D02*
X90432332Y-67892977D01*
X90432332Y-67892977D02*
X90480713Y-67844596D01*
X90480713Y-67844596D02*
X90553285Y-67820406D01*
X90553285Y-67820406D02*
X90601666Y-67820406D01*
X90601666Y-67820406D02*
X90674237Y-67844596D01*
X90674237Y-67844596D02*
X90698428Y-67868787D01*
X91158047Y-67820406D02*
X90916142Y-67820406D01*
X90916142Y-67820406D02*
X90891951Y-68062311D01*
X90891951Y-68062311D02*
X90916142Y-68038120D01*
X90916142Y-68038120D02*
X90964523Y-68013930D01*
X90964523Y-68013930D02*
X91085475Y-68013930D01*
X91085475Y-68013930D02*
X91133856Y-68038120D01*
X91133856Y-68038120D02*
X91158047Y-68062311D01*
X91158047Y-68062311D02*
X91182237Y-68110692D01*
X91182237Y-68110692D02*
X91182237Y-68231644D01*
X91182237Y-68231644D02*
X91158047Y-68280025D01*
X91158047Y-68280025D02*
X91133856Y-68304216D01*
X91133856Y-68304216D02*
X91085475Y-68328406D01*
X91085475Y-68328406D02*
X90964523Y-68328406D01*
X90964523Y-68328406D02*
X90916142Y-68304216D01*
X90916142Y-68304216D02*
X90891951Y-68280025D01*
X91351571Y-67820406D02*
X91690238Y-67820406D01*
X91690238Y-67820406D02*
X91472523Y-68328406D01*
X116310228Y-85701825D02*
X116286037Y-85726016D01*
X116286037Y-85726016D02*
X116213466Y-85750206D01*
X116213466Y-85750206D02*
X116165085Y-85750206D01*
X116165085Y-85750206D02*
X116092513Y-85726016D01*
X116092513Y-85726016D02*
X116044132Y-85677635D01*
X116044132Y-85677635D02*
X116019942Y-85629254D01*
X116019942Y-85629254D02*
X115995751Y-85532492D01*
X115995751Y-85532492D02*
X115995751Y-85459920D01*
X115995751Y-85459920D02*
X116019942Y-85363158D01*
X116019942Y-85363158D02*
X116044132Y-85314777D01*
X116044132Y-85314777D02*
X116092513Y-85266396D01*
X116092513Y-85266396D02*
X116165085Y-85242206D01*
X116165085Y-85242206D02*
X116213466Y-85242206D01*
X116213466Y-85242206D02*
X116286037Y-85266396D01*
X116286037Y-85266396D02*
X116310228Y-85290587D01*
X116794037Y-85750206D02*
X116503751Y-85750206D01*
X116648894Y-85750206D02*
X116648894Y-85242206D01*
X116648894Y-85242206D02*
X116600513Y-85314777D01*
X116600513Y-85314777D02*
X116552132Y-85363158D01*
X116552132Y-85363158D02*
X116503751Y-85387349D01*
X117229466Y-85242206D02*
X117132704Y-85242206D01*
X117132704Y-85242206D02*
X117084323Y-85266396D01*
X117084323Y-85266396D02*
X117060133Y-85290587D01*
X117060133Y-85290587D02*
X117011752Y-85363158D01*
X117011752Y-85363158D02*
X116987561Y-85459920D01*
X116987561Y-85459920D02*
X116987561Y-85653444D01*
X116987561Y-85653444D02*
X117011752Y-85701825D01*
X117011752Y-85701825D02*
X117035942Y-85726016D01*
X117035942Y-85726016D02*
X117084323Y-85750206D01*
X117084323Y-85750206D02*
X117181085Y-85750206D01*
X117181085Y-85750206D02*
X117229466Y-85726016D01*
X117229466Y-85726016D02*
X117253657Y-85701825D01*
X117253657Y-85701825D02*
X117277847Y-85653444D01*
X117277847Y-85653444D02*
X117277847Y-85532492D01*
X117277847Y-85532492D02*
X117253657Y-85484111D01*
X117253657Y-85484111D02*
X117229466Y-85459920D01*
X117229466Y-85459920D02*
X117181085Y-85435730D01*
X117181085Y-85435730D02*
X117084323Y-85435730D01*
X117084323Y-85435730D02*
X117035942Y-85459920D01*
X117035942Y-85459920D02*
X117011752Y-85484111D01*
X117011752Y-85484111D02*
X116987561Y-85532492D01*
X84718406Y-38699952D02*
X84210406Y-38699952D01*
X84210406Y-38699952D02*
X84210406Y-38579000D01*
X84210406Y-38579000D02*
X84234596Y-38506428D01*
X84234596Y-38506428D02*
X84282977Y-38458047D01*
X84282977Y-38458047D02*
X84331358Y-38433857D01*
X84331358Y-38433857D02*
X84428120Y-38409666D01*
X84428120Y-38409666D02*
X84500692Y-38409666D01*
X84500692Y-38409666D02*
X84597454Y-38433857D01*
X84597454Y-38433857D02*
X84645835Y-38458047D01*
X84645835Y-38458047D02*
X84694216Y-38506428D01*
X84694216Y-38506428D02*
X84718406Y-38579000D01*
X84718406Y-38579000D02*
X84718406Y-38699952D01*
X84210406Y-38240333D02*
X84210406Y-37901666D01*
X84210406Y-37901666D02*
X84718406Y-38119381D01*
X104604216Y-72602333D02*
X104628406Y-72529761D01*
X104628406Y-72529761D02*
X104628406Y-72408809D01*
X104628406Y-72408809D02*
X104604216Y-72360428D01*
X104604216Y-72360428D02*
X104580025Y-72336237D01*
X104580025Y-72336237D02*
X104531644Y-72312047D01*
X104531644Y-72312047D02*
X104483263Y-72312047D01*
X104483263Y-72312047D02*
X104434882Y-72336237D01*
X104434882Y-72336237D02*
X104410692Y-72360428D01*
X104410692Y-72360428D02*
X104386501Y-72408809D01*
X104386501Y-72408809D02*
X104362311Y-72505571D01*
X104362311Y-72505571D02*
X104338120Y-72553952D01*
X104338120Y-72553952D02*
X104313930Y-72578142D01*
X104313930Y-72578142D02*
X104265549Y-72602333D01*
X104265549Y-72602333D02*
X104217168Y-72602333D01*
X104217168Y-72602333D02*
X104168787Y-72578142D01*
X104168787Y-72578142D02*
X104144596Y-72553952D01*
X104144596Y-72553952D02*
X104120406Y-72505571D01*
X104120406Y-72505571D02*
X104120406Y-72384618D01*
X104120406Y-72384618D02*
X104144596Y-72312047D01*
X104120406Y-72142713D02*
X104628406Y-72021761D01*
X104628406Y-72021761D02*
X104265549Y-71924999D01*
X104265549Y-71924999D02*
X104628406Y-71828237D01*
X104628406Y-71828237D02*
X104120406Y-71707285D01*
X104168787Y-71537952D02*
X104144596Y-71513761D01*
X104144596Y-71513761D02*
X104120406Y-71465380D01*
X104120406Y-71465380D02*
X104120406Y-71344428D01*
X104120406Y-71344428D02*
X104144596Y-71296047D01*
X104144596Y-71296047D02*
X104168787Y-71271856D01*
X104168787Y-71271856D02*
X104217168Y-71247666D01*
X104217168Y-71247666D02*
X104265549Y-71247666D01*
X104265549Y-71247666D02*
X104338120Y-71271856D01*
X104338120Y-71271856D02*
X104628406Y-71562142D01*
X104628406Y-71562142D02*
X104628406Y-71247666D01*
X113696447Y-58684006D02*
X113696447Y-59095244D01*
X113696447Y-59095244D02*
X113720637Y-59143625D01*
X113720637Y-59143625D02*
X113744828Y-59167816D01*
X113744828Y-59167816D02*
X113793209Y-59192006D01*
X113793209Y-59192006D02*
X113889971Y-59192006D01*
X113889971Y-59192006D02*
X113938352Y-59167816D01*
X113938352Y-59167816D02*
X113962542Y-59143625D01*
X113962542Y-59143625D02*
X113986733Y-59095244D01*
X113986733Y-59095244D02*
X113986733Y-58684006D01*
X114494732Y-59192006D02*
X114204446Y-59192006D01*
X114349589Y-59192006D02*
X114349589Y-58684006D01*
X114349589Y-58684006D02*
X114301208Y-58756577D01*
X114301208Y-58756577D02*
X114252827Y-58804958D01*
X114252827Y-58804958D02*
X114204446Y-58829149D01*
X114688256Y-58732387D02*
X114712447Y-58708196D01*
X114712447Y-58708196D02*
X114760828Y-58684006D01*
X114760828Y-58684006D02*
X114881780Y-58684006D01*
X114881780Y-58684006D02*
X114930161Y-58708196D01*
X114930161Y-58708196D02*
X114954352Y-58732387D01*
X114954352Y-58732387D02*
X114978542Y-58780768D01*
X114978542Y-58780768D02*
X114978542Y-58829149D01*
X114978542Y-58829149D02*
X114954352Y-58901720D01*
X114954352Y-58901720D02*
X114664066Y-59192006D01*
X114664066Y-59192006D02*
X114978542Y-59192006D01*
X104655025Y-45726572D02*
X104679216Y-45750763D01*
X104679216Y-45750763D02*
X104703406Y-45823334D01*
X104703406Y-45823334D02*
X104703406Y-45871715D01*
X104703406Y-45871715D02*
X104679216Y-45944287D01*
X104679216Y-45944287D02*
X104630835Y-45992668D01*
X104630835Y-45992668D02*
X104582454Y-46016858D01*
X104582454Y-46016858D02*
X104485692Y-46041049D01*
X104485692Y-46041049D02*
X104413120Y-46041049D01*
X104413120Y-46041049D02*
X104316358Y-46016858D01*
X104316358Y-46016858D02*
X104267977Y-45992668D01*
X104267977Y-45992668D02*
X104219596Y-45944287D01*
X104219596Y-45944287D02*
X104195406Y-45871715D01*
X104195406Y-45871715D02*
X104195406Y-45823334D01*
X104195406Y-45823334D02*
X104219596Y-45750763D01*
X104219596Y-45750763D02*
X104243787Y-45726572D01*
X104195406Y-45557239D02*
X104195406Y-45242763D01*
X104195406Y-45242763D02*
X104388930Y-45412096D01*
X104388930Y-45412096D02*
X104388930Y-45339525D01*
X104388930Y-45339525D02*
X104413120Y-45291144D01*
X104413120Y-45291144D02*
X104437311Y-45266953D01*
X104437311Y-45266953D02*
X104485692Y-45242763D01*
X104485692Y-45242763D02*
X104606644Y-45242763D01*
X104606644Y-45242763D02*
X104655025Y-45266953D01*
X104655025Y-45266953D02*
X104679216Y-45291144D01*
X104679216Y-45291144D02*
X104703406Y-45339525D01*
X104703406Y-45339525D02*
X104703406Y-45484668D01*
X104703406Y-45484668D02*
X104679216Y-45533049D01*
X104679216Y-45533049D02*
X104655025Y-45557239D01*
X104703406Y-45000858D02*
X104703406Y-44904096D01*
X104703406Y-44904096D02*
X104679216Y-44855715D01*
X104679216Y-44855715D02*
X104655025Y-44831524D01*
X104655025Y-44831524D02*
X104582454Y-44783143D01*
X104582454Y-44783143D02*
X104485692Y-44758953D01*
X104485692Y-44758953D02*
X104292168Y-44758953D01*
X104292168Y-44758953D02*
X104243787Y-44783143D01*
X104243787Y-44783143D02*
X104219596Y-44807334D01*
X104219596Y-44807334D02*
X104195406Y-44855715D01*
X104195406Y-44855715D02*
X104195406Y-44952477D01*
X104195406Y-44952477D02*
X104219596Y-45000858D01*
X104219596Y-45000858D02*
X104243787Y-45025048D01*
X104243787Y-45025048D02*
X104292168Y-45049239D01*
X104292168Y-45049239D02*
X104413120Y-45049239D01*
X104413120Y-45049239D02*
X104461501Y-45025048D01*
X104461501Y-45025048D02*
X104485692Y-45000858D01*
X104485692Y-45000858D02*
X104509882Y-44952477D01*
X104509882Y-44952477D02*
X104509882Y-44855715D01*
X104509882Y-44855715D02*
X104485692Y-44807334D01*
X104485692Y-44807334D02*
X104461501Y-44783143D01*
X104461501Y-44783143D02*
X104413120Y-44758953D01*
X106313403Y-72184227D02*
X106071498Y-72353561D01*
X106313403Y-72474513D02*
X105805403Y-72474513D01*
X105805403Y-72474513D02*
X105805403Y-72280989D01*
X105805403Y-72280989D02*
X105829593Y-72232608D01*
X105829593Y-72232608D02*
X105853784Y-72208418D01*
X105853784Y-72208418D02*
X105902165Y-72184227D01*
X105902165Y-72184227D02*
X105974736Y-72184227D01*
X105974736Y-72184227D02*
X106023117Y-72208418D01*
X106023117Y-72208418D02*
X106047308Y-72232608D01*
X106047308Y-72232608D02*
X106071498Y-72280989D01*
X106071498Y-72280989D02*
X106071498Y-72474513D01*
X105853784Y-71990704D02*
X105829593Y-71966513D01*
X105829593Y-71966513D02*
X105805403Y-71918132D01*
X105805403Y-71918132D02*
X105805403Y-71797180D01*
X105805403Y-71797180D02*
X105829593Y-71748799D01*
X105829593Y-71748799D02*
X105853784Y-71724608D01*
X105853784Y-71724608D02*
X105902165Y-71700418D01*
X105902165Y-71700418D02*
X105950546Y-71700418D01*
X105950546Y-71700418D02*
X106023117Y-71724608D01*
X106023117Y-71724608D02*
X106313403Y-72014894D01*
X106313403Y-72014894D02*
X106313403Y-71700418D01*
X105805403Y-71531084D02*
X105805403Y-71216608D01*
X105805403Y-71216608D02*
X105998927Y-71385941D01*
X105998927Y-71385941D02*
X105998927Y-71313370D01*
X105998927Y-71313370D02*
X106023117Y-71264989D01*
X106023117Y-71264989D02*
X106047308Y-71240798D01*
X106047308Y-71240798D02*
X106095689Y-71216608D01*
X106095689Y-71216608D02*
X106216641Y-71216608D01*
X106216641Y-71216608D02*
X106265022Y-71240798D01*
X106265022Y-71240798D02*
X106289213Y-71264989D01*
X106289213Y-71264989D02*
X106313403Y-71313370D01*
X106313403Y-71313370D02*
X106313403Y-71458513D01*
X106313403Y-71458513D02*
X106289213Y-71506894D01*
X106289213Y-71506894D02*
X106265022Y-71531084D01*
X119663559Y-64737311D02*
X119736131Y-64761501D01*
X119736131Y-64761501D02*
X119760321Y-64785692D01*
X119760321Y-64785692D02*
X119784512Y-64834073D01*
X119784512Y-64834073D02*
X119784512Y-64906644D01*
X119784512Y-64906644D02*
X119760321Y-64955025D01*
X119760321Y-64955025D02*
X119736131Y-64979216D01*
X119736131Y-64979216D02*
X119687750Y-65003406D01*
X119687750Y-65003406D02*
X119494226Y-65003406D01*
X119494226Y-65003406D02*
X119494226Y-64495406D01*
X119494226Y-64495406D02*
X119663559Y-64495406D01*
X119663559Y-64495406D02*
X119711940Y-64519596D01*
X119711940Y-64519596D02*
X119736131Y-64543787D01*
X119736131Y-64543787D02*
X119760321Y-64592168D01*
X119760321Y-64592168D02*
X119760321Y-64640549D01*
X119760321Y-64640549D02*
X119736131Y-64688930D01*
X119736131Y-64688930D02*
X119711940Y-64713120D01*
X119711940Y-64713120D02*
X119663559Y-64737311D01*
X119663559Y-64737311D02*
X119494226Y-64737311D01*
X120002226Y-64495406D02*
X120002226Y-64906644D01*
X120002226Y-64906644D02*
X120026416Y-64955025D01*
X120026416Y-64955025D02*
X120050607Y-64979216D01*
X120050607Y-64979216D02*
X120098988Y-65003406D01*
X120098988Y-65003406D02*
X120195750Y-65003406D01*
X120195750Y-65003406D02*
X120244131Y-64979216D01*
X120244131Y-64979216D02*
X120268321Y-64955025D01*
X120268321Y-64955025D02*
X120292512Y-64906644D01*
X120292512Y-64906644D02*
X120292512Y-64495406D01*
X120486035Y-64495406D02*
X120824702Y-64495406D01*
X120824702Y-64495406D02*
X120486035Y-65003406D01*
X120486035Y-65003406D02*
X120824702Y-65003406D01*
X120969845Y-64495406D02*
X121308512Y-64495406D01*
X121308512Y-64495406D02*
X120969845Y-65003406D01*
X120969845Y-65003406D02*
X121308512Y-65003406D01*
X121502036Y-64737311D02*
X121671369Y-64737311D01*
X121743941Y-65003406D02*
X121502036Y-65003406D01*
X121502036Y-65003406D02*
X121502036Y-64495406D01*
X121502036Y-64495406D02*
X121743941Y-64495406D01*
X122251941Y-65003406D02*
X122082607Y-64761501D01*
X121961655Y-65003406D02*
X121961655Y-64495406D01*
X121961655Y-64495406D02*
X122155179Y-64495406D01*
X122155179Y-64495406D02*
X122203560Y-64519596D01*
X122203560Y-64519596D02*
X122227750Y-64543787D01*
X122227750Y-64543787D02*
X122251941Y-64592168D01*
X122251941Y-64592168D02*
X122251941Y-64664739D01*
X122251941Y-64664739D02*
X122227750Y-64713120D01*
X122227750Y-64713120D02*
X122203560Y-64737311D01*
X122203560Y-64737311D02*
X122155179Y-64761501D01*
X122155179Y-64761501D02*
X121961655Y-64761501D01*
X122735750Y-65003406D02*
X122445464Y-65003406D01*
X122590607Y-65003406D02*
X122590607Y-64495406D01*
X122590607Y-64495406D02*
X122542226Y-64567977D01*
X122542226Y-64567977D02*
X122493845Y-64616358D01*
X122493845Y-64616358D02*
X122445464Y-64640549D01*
X88320406Y-81069333D02*
X88683263Y-81069333D01*
X88683263Y-81069333D02*
X88755835Y-81093524D01*
X88755835Y-81093524D02*
X88804216Y-81141905D01*
X88804216Y-81141905D02*
X88828406Y-81214476D01*
X88828406Y-81214476D02*
X88828406Y-81262857D01*
X88320406Y-80875809D02*
X88320406Y-80537142D01*
X88320406Y-80537142D02*
X88828406Y-80754857D01*
X116005428Y-81584606D02*
X115836094Y-81342701D01*
X115715142Y-81584606D02*
X115715142Y-81076606D01*
X115715142Y-81076606D02*
X115908666Y-81076606D01*
X115908666Y-81076606D02*
X115957047Y-81100796D01*
X115957047Y-81100796D02*
X115981237Y-81124987D01*
X115981237Y-81124987D02*
X116005428Y-81173368D01*
X116005428Y-81173368D02*
X116005428Y-81245939D01*
X116005428Y-81245939D02*
X115981237Y-81294320D01*
X115981237Y-81294320D02*
X115957047Y-81318511D01*
X115957047Y-81318511D02*
X115908666Y-81342701D01*
X115908666Y-81342701D02*
X115715142Y-81342701D01*
X116489237Y-81584606D02*
X116198951Y-81584606D01*
X116344094Y-81584606D02*
X116344094Y-81076606D01*
X116344094Y-81076606D02*
X116295713Y-81149177D01*
X116295713Y-81149177D02*
X116247332Y-81197558D01*
X116247332Y-81197558D02*
X116198951Y-81221749D01*
X116658571Y-81076606D02*
X116973047Y-81076606D01*
X116973047Y-81076606D02*
X116803714Y-81270130D01*
X116803714Y-81270130D02*
X116876285Y-81270130D01*
X116876285Y-81270130D02*
X116924666Y-81294320D01*
X116924666Y-81294320D02*
X116948857Y-81318511D01*
X116948857Y-81318511D02*
X116973047Y-81366892D01*
X116973047Y-81366892D02*
X116973047Y-81487844D01*
X116973047Y-81487844D02*
X116948857Y-81536225D01*
X116948857Y-81536225D02*
X116924666Y-81560416D01*
X116924666Y-81560416D02*
X116876285Y-81584606D01*
X116876285Y-81584606D02*
X116731142Y-81584606D01*
X116731142Y-81584606D02*
X116682761Y-81560416D01*
X116682761Y-81560416D02*
X116658571Y-81536225D01*
X90703428Y-67355025D02*
X90679237Y-67379216D01*
X90679237Y-67379216D02*
X90606666Y-67403406D01*
X90606666Y-67403406D02*
X90558285Y-67403406D01*
X90558285Y-67403406D02*
X90485713Y-67379216D01*
X90485713Y-67379216D02*
X90437332Y-67330835D01*
X90437332Y-67330835D02*
X90413142Y-67282454D01*
X90413142Y-67282454D02*
X90388951Y-67185692D01*
X90388951Y-67185692D02*
X90388951Y-67113120D01*
X90388951Y-67113120D02*
X90413142Y-67016358D01*
X90413142Y-67016358D02*
X90437332Y-66967977D01*
X90437332Y-66967977D02*
X90485713Y-66919596D01*
X90485713Y-66919596D02*
X90558285Y-66895406D01*
X90558285Y-66895406D02*
X90606666Y-66895406D01*
X90606666Y-66895406D02*
X90679237Y-66919596D01*
X90679237Y-66919596D02*
X90703428Y-66943787D01*
X91163047Y-66895406D02*
X90921142Y-66895406D01*
X90921142Y-66895406D02*
X90896951Y-67137311D01*
X90896951Y-67137311D02*
X90921142Y-67113120D01*
X90921142Y-67113120D02*
X90969523Y-67088930D01*
X90969523Y-67088930D02*
X91090475Y-67088930D01*
X91090475Y-67088930D02*
X91138856Y-67113120D01*
X91138856Y-67113120D02*
X91163047Y-67137311D01*
X91163047Y-67137311D02*
X91187237Y-67185692D01*
X91187237Y-67185692D02*
X91187237Y-67306644D01*
X91187237Y-67306644D02*
X91163047Y-67355025D01*
X91163047Y-67355025D02*
X91138856Y-67379216D01*
X91138856Y-67379216D02*
X91090475Y-67403406D01*
X91090475Y-67403406D02*
X90969523Y-67403406D01*
X90969523Y-67403406D02*
X90921142Y-67379216D01*
X90921142Y-67379216D02*
X90896951Y-67355025D01*
X91622666Y-66895406D02*
X91525904Y-66895406D01*
X91525904Y-66895406D02*
X91477523Y-66919596D01*
X91477523Y-66919596D02*
X91453333Y-66943787D01*
X91453333Y-66943787D02*
X91404952Y-67016358D01*
X91404952Y-67016358D02*
X91380761Y-67113120D01*
X91380761Y-67113120D02*
X91380761Y-67306644D01*
X91380761Y-67306644D02*
X91404952Y-67355025D01*
X91404952Y-67355025D02*
X91429142Y-67379216D01*
X91429142Y-67379216D02*
X91477523Y-67403406D01*
X91477523Y-67403406D02*
X91574285Y-67403406D01*
X91574285Y-67403406D02*
X91622666Y-67379216D01*
X91622666Y-67379216D02*
X91646857Y-67355025D01*
X91646857Y-67355025D02*
X91671047Y-67306644D01*
X91671047Y-67306644D02*
X91671047Y-67185692D01*
X91671047Y-67185692D02*
X91646857Y-67137311D01*
X91646857Y-67137311D02*
X91622666Y-67113120D01*
X91622666Y-67113120D02*
X91574285Y-67088930D01*
X91574285Y-67088930D02*
X91477523Y-67088930D01*
X91477523Y-67088930D02*
X91429142Y-67113120D01*
X91429142Y-67113120D02*
X91404952Y-67137311D01*
X91404952Y-67137311D02*
X91380761Y-67185692D01*
X120910406Y-56799333D02*
X121273263Y-56799333D01*
X121273263Y-56799333D02*
X121345835Y-56823524D01*
X121345835Y-56823524D02*
X121394216Y-56871905D01*
X121394216Y-56871905D02*
X121418406Y-56944476D01*
X121418406Y-56944476D02*
X121418406Y-56992857D01*
X120910406Y-56315523D02*
X120910406Y-56557428D01*
X120910406Y-56557428D02*
X121152311Y-56581619D01*
X121152311Y-56581619D02*
X121128120Y-56557428D01*
X121128120Y-56557428D02*
X121103930Y-56509047D01*
X121103930Y-56509047D02*
X121103930Y-56388095D01*
X121103930Y-56388095D02*
X121128120Y-56339714D01*
X121128120Y-56339714D02*
X121152311Y-56315523D01*
X121152311Y-56315523D02*
X121200692Y-56291333D01*
X121200692Y-56291333D02*
X121321644Y-56291333D01*
X121321644Y-56291333D02*
X121370025Y-56315523D01*
X121370025Y-56315523D02*
X121394216Y-56339714D01*
X121394216Y-56339714D02*
X121418406Y-56388095D01*
X121418406Y-56388095D02*
X121418406Y-56509047D01*
X121418406Y-56509047D02*
X121394216Y-56557428D01*
X121394216Y-56557428D02*
X121370025Y-56581619D01*
X95935406Y-52087047D02*
X96346644Y-52087047D01*
X96346644Y-52087047D02*
X96395025Y-52062857D01*
X96395025Y-52062857D02*
X96419216Y-52038666D01*
X96419216Y-52038666D02*
X96443406Y-51990285D01*
X96443406Y-51990285D02*
X96443406Y-51893523D01*
X96443406Y-51893523D02*
X96419216Y-51845142D01*
X96419216Y-51845142D02*
X96395025Y-51820952D01*
X96395025Y-51820952D02*
X96346644Y-51796761D01*
X96346644Y-51796761D02*
X95935406Y-51796761D01*
X95983787Y-51579048D02*
X95959596Y-51554857D01*
X95959596Y-51554857D02*
X95935406Y-51506476D01*
X95935406Y-51506476D02*
X95935406Y-51385524D01*
X95935406Y-51385524D02*
X95959596Y-51337143D01*
X95959596Y-51337143D02*
X95983787Y-51312952D01*
X95983787Y-51312952D02*
X96032168Y-51288762D01*
X96032168Y-51288762D02*
X96080549Y-51288762D01*
X96080549Y-51288762D02*
X96153120Y-51312952D01*
X96153120Y-51312952D02*
X96443406Y-51603238D01*
X96443406Y-51603238D02*
X96443406Y-51288762D01*
X102903406Y-47134667D02*
X102903406Y-47376572D01*
X102903406Y-47376572D02*
X102395406Y-47376572D01*
X102903406Y-46699239D02*
X102903406Y-46989525D01*
X102903406Y-46844382D02*
X102395406Y-46844382D01*
X102395406Y-46844382D02*
X102467977Y-46892763D01*
X102467977Y-46892763D02*
X102516358Y-46941144D01*
X102516358Y-46941144D02*
X102540549Y-46989525D01*
X121543406Y-38724952D02*
X121035406Y-38724952D01*
X121035406Y-38724952D02*
X121035406Y-38604000D01*
X121035406Y-38604000D02*
X121059596Y-38531428D01*
X121059596Y-38531428D02*
X121107977Y-38483047D01*
X121107977Y-38483047D02*
X121156358Y-38458857D01*
X121156358Y-38458857D02*
X121253120Y-38434666D01*
X121253120Y-38434666D02*
X121325692Y-38434666D01*
X121325692Y-38434666D02*
X121422454Y-38458857D01*
X121422454Y-38458857D02*
X121470835Y-38483047D01*
X121470835Y-38483047D02*
X121519216Y-38531428D01*
X121519216Y-38531428D02*
X121543406Y-38604000D01*
X121543406Y-38604000D02*
X121543406Y-38724952D01*
X121035406Y-37975047D02*
X121035406Y-38216952D01*
X121035406Y-38216952D02*
X121277311Y-38241143D01*
X121277311Y-38241143D02*
X121253120Y-38216952D01*
X121253120Y-38216952D02*
X121228930Y-38168571D01*
X121228930Y-38168571D02*
X121228930Y-38047619D01*
X121228930Y-38047619D02*
X121253120Y-37999238D01*
X121253120Y-37999238D02*
X121277311Y-37975047D01*
X121277311Y-37975047D02*
X121325692Y-37950857D01*
X121325692Y-37950857D02*
X121446644Y-37950857D01*
X121446644Y-37950857D02*
X121495025Y-37975047D01*
X121495025Y-37975047D02*
X121519216Y-37999238D01*
X121519216Y-37999238D02*
X121543406Y-38047619D01*
X121543406Y-38047619D02*
X121543406Y-38168571D01*
X121543406Y-38168571D02*
X121519216Y-38216952D01*
X121519216Y-38216952D02*
X121495025Y-38241143D01*
X90517133Y-54205825D02*
X90492942Y-54230016D01*
X90492942Y-54230016D02*
X90420371Y-54254206D01*
X90420371Y-54254206D02*
X90371990Y-54254206D01*
X90371990Y-54254206D02*
X90299418Y-54230016D01*
X90299418Y-54230016D02*
X90251037Y-54181635D01*
X90251037Y-54181635D02*
X90226847Y-54133254D01*
X90226847Y-54133254D02*
X90202656Y-54036492D01*
X90202656Y-54036492D02*
X90202656Y-53963920D01*
X90202656Y-53963920D02*
X90226847Y-53867158D01*
X90226847Y-53867158D02*
X90251037Y-53818777D01*
X90251037Y-53818777D02*
X90299418Y-53770396D01*
X90299418Y-53770396D02*
X90371990Y-53746206D01*
X90371990Y-53746206D02*
X90420371Y-53746206D01*
X90420371Y-53746206D02*
X90492942Y-53770396D01*
X90492942Y-53770396D02*
X90517133Y-53794587D01*
X90952561Y-53915539D02*
X90952561Y-54254206D01*
X90831609Y-53722016D02*
X90710656Y-54084873D01*
X90710656Y-54084873D02*
X91025133Y-54084873D01*
X119915025Y-42341571D02*
X119939216Y-42365762D01*
X119939216Y-42365762D02*
X119963406Y-42438333D01*
X119963406Y-42438333D02*
X119963406Y-42486714D01*
X119963406Y-42486714D02*
X119939216Y-42559286D01*
X119939216Y-42559286D02*
X119890835Y-42607667D01*
X119890835Y-42607667D02*
X119842454Y-42631857D01*
X119842454Y-42631857D02*
X119745692Y-42656048D01*
X119745692Y-42656048D02*
X119673120Y-42656048D01*
X119673120Y-42656048D02*
X119576358Y-42631857D01*
X119576358Y-42631857D02*
X119527977Y-42607667D01*
X119527977Y-42607667D02*
X119479596Y-42559286D01*
X119479596Y-42559286D02*
X119455406Y-42486714D01*
X119455406Y-42486714D02*
X119455406Y-42438333D01*
X119455406Y-42438333D02*
X119479596Y-42365762D01*
X119479596Y-42365762D02*
X119503787Y-42341571D01*
X119455406Y-41906143D02*
X119455406Y-42002905D01*
X119455406Y-42002905D02*
X119479596Y-42051286D01*
X119479596Y-42051286D02*
X119503787Y-42075476D01*
X119503787Y-42075476D02*
X119576358Y-42123857D01*
X119576358Y-42123857D02*
X119673120Y-42148048D01*
X119673120Y-42148048D02*
X119866644Y-42148048D01*
X119866644Y-42148048D02*
X119915025Y-42123857D01*
X119915025Y-42123857D02*
X119939216Y-42099667D01*
X119939216Y-42099667D02*
X119963406Y-42051286D01*
X119963406Y-42051286D02*
X119963406Y-41954524D01*
X119963406Y-41954524D02*
X119939216Y-41906143D01*
X119939216Y-41906143D02*
X119915025Y-41881952D01*
X119915025Y-41881952D02*
X119866644Y-41857762D01*
X119866644Y-41857762D02*
X119745692Y-41857762D01*
X119745692Y-41857762D02*
X119697311Y-41881952D01*
X119697311Y-41881952D02*
X119673120Y-41906143D01*
X119673120Y-41906143D02*
X119648930Y-41954524D01*
X119648930Y-41954524D02*
X119648930Y-42051286D01*
X119648930Y-42051286D02*
X119673120Y-42099667D01*
X119673120Y-42099667D02*
X119697311Y-42123857D01*
X119697311Y-42123857D02*
X119745692Y-42148048D01*
X119455406Y-41543285D02*
X119455406Y-41494904D01*
X119455406Y-41494904D02*
X119479596Y-41446523D01*
X119479596Y-41446523D02*
X119503787Y-41422333D01*
X119503787Y-41422333D02*
X119552168Y-41398142D01*
X119552168Y-41398142D02*
X119648930Y-41373952D01*
X119648930Y-41373952D02*
X119769882Y-41373952D01*
X119769882Y-41373952D02*
X119866644Y-41398142D01*
X119866644Y-41398142D02*
X119915025Y-41422333D01*
X119915025Y-41422333D02*
X119939216Y-41446523D01*
X119939216Y-41446523D02*
X119963406Y-41494904D01*
X119963406Y-41494904D02*
X119963406Y-41543285D01*
X119963406Y-41543285D02*
X119939216Y-41591666D01*
X119939216Y-41591666D02*
X119915025Y-41615857D01*
X119915025Y-41615857D02*
X119866644Y-41640047D01*
X119866644Y-41640047D02*
X119769882Y-41664238D01*
X119769882Y-41664238D02*
X119648930Y-41664238D01*
X119648930Y-41664238D02*
X119552168Y-41640047D01*
X119552168Y-41640047D02*
X119503787Y-41615857D01*
X119503787Y-41615857D02*
X119479596Y-41591666D01*
X119479596Y-41591666D02*
X119455406Y-41543285D01*
X121528406Y-33674952D02*
X121020406Y-33674952D01*
X121020406Y-33674952D02*
X121020406Y-33554000D01*
X121020406Y-33554000D02*
X121044596Y-33481428D01*
X121044596Y-33481428D02*
X121092977Y-33433047D01*
X121092977Y-33433047D02*
X121141358Y-33408857D01*
X121141358Y-33408857D02*
X121238120Y-33384666D01*
X121238120Y-33384666D02*
X121310692Y-33384666D01*
X121310692Y-33384666D02*
X121407454Y-33408857D01*
X121407454Y-33408857D02*
X121455835Y-33433047D01*
X121455835Y-33433047D02*
X121504216Y-33481428D01*
X121504216Y-33481428D02*
X121528406Y-33554000D01*
X121528406Y-33554000D02*
X121528406Y-33674952D01*
X121020406Y-32949238D02*
X121020406Y-33046000D01*
X121020406Y-33046000D02*
X121044596Y-33094381D01*
X121044596Y-33094381D02*
X121068787Y-33118571D01*
X121068787Y-33118571D02*
X121141358Y-33166952D01*
X121141358Y-33166952D02*
X121238120Y-33191143D01*
X121238120Y-33191143D02*
X121431644Y-33191143D01*
X121431644Y-33191143D02*
X121480025Y-33166952D01*
X121480025Y-33166952D02*
X121504216Y-33142762D01*
X121504216Y-33142762D02*
X121528406Y-33094381D01*
X121528406Y-33094381D02*
X121528406Y-32997619D01*
X121528406Y-32997619D02*
X121504216Y-32949238D01*
X121504216Y-32949238D02*
X121480025Y-32925047D01*
X121480025Y-32925047D02*
X121431644Y-32900857D01*
X121431644Y-32900857D02*
X121310692Y-32900857D01*
X121310692Y-32900857D02*
X121262311Y-32925047D01*
X121262311Y-32925047D02*
X121238120Y-32949238D01*
X121238120Y-32949238D02*
X121213930Y-32997619D01*
X121213930Y-32997619D02*
X121213930Y-33094381D01*
X121213930Y-33094381D02*
X121238120Y-33142762D01*
X121238120Y-33142762D02*
X121262311Y-33166952D01*
X121262311Y-33166952D02*
X121310692Y-33191143D01*
X114428406Y-47826571D02*
X114186501Y-47995905D01*
X114428406Y-48116857D02*
X113920406Y-48116857D01*
X113920406Y-48116857D02*
X113920406Y-47923333D01*
X113920406Y-47923333D02*
X113944596Y-47874952D01*
X113944596Y-47874952D02*
X113968787Y-47850762D01*
X113968787Y-47850762D02*
X114017168Y-47826571D01*
X114017168Y-47826571D02*
X114089739Y-47826571D01*
X114089739Y-47826571D02*
X114138120Y-47850762D01*
X114138120Y-47850762D02*
X114162311Y-47874952D01*
X114162311Y-47874952D02*
X114186501Y-47923333D01*
X114186501Y-47923333D02*
X114186501Y-48116857D01*
X113920406Y-47366952D02*
X113920406Y-47608857D01*
X113920406Y-47608857D02*
X114162311Y-47633048D01*
X114162311Y-47633048D02*
X114138120Y-47608857D01*
X114138120Y-47608857D02*
X114113930Y-47560476D01*
X114113930Y-47560476D02*
X114113930Y-47439524D01*
X114113930Y-47439524D02*
X114138120Y-47391143D01*
X114138120Y-47391143D02*
X114162311Y-47366952D01*
X114162311Y-47366952D02*
X114210692Y-47342762D01*
X114210692Y-47342762D02*
X114331644Y-47342762D01*
X114331644Y-47342762D02*
X114380025Y-47366952D01*
X114380025Y-47366952D02*
X114404216Y-47391143D01*
X114404216Y-47391143D02*
X114428406Y-47439524D01*
X114428406Y-47439524D02*
X114428406Y-47560476D01*
X114428406Y-47560476D02*
X114404216Y-47608857D01*
X114404216Y-47608857D02*
X114380025Y-47633048D01*
X113920406Y-46907333D02*
X113920406Y-47004095D01*
X113920406Y-47004095D02*
X113944596Y-47052476D01*
X113944596Y-47052476D02*
X113968787Y-47076666D01*
X113968787Y-47076666D02*
X114041358Y-47125047D01*
X114041358Y-47125047D02*
X114138120Y-47149238D01*
X114138120Y-47149238D02*
X114331644Y-47149238D01*
X114331644Y-47149238D02*
X114380025Y-47125047D01*
X114380025Y-47125047D02*
X114404216Y-47100857D01*
X114404216Y-47100857D02*
X114428406Y-47052476D01*
X114428406Y-47052476D02*
X114428406Y-46955714D01*
X114428406Y-46955714D02*
X114404216Y-46907333D01*
X114404216Y-46907333D02*
X114380025Y-46883142D01*
X114380025Y-46883142D02*
X114331644Y-46858952D01*
X114331644Y-46858952D02*
X114210692Y-46858952D01*
X114210692Y-46858952D02*
X114162311Y-46883142D01*
X114162311Y-46883142D02*
X114138120Y-46907333D01*
X114138120Y-46907333D02*
X114113930Y-46955714D01*
X114113930Y-46955714D02*
X114113930Y-47052476D01*
X114113930Y-47052476D02*
X114138120Y-47100857D01*
X114138120Y-47100857D02*
X114162311Y-47125047D01*
X114162311Y-47125047D02*
X114210692Y-47149238D01*
D13*
X96928571Y-33464700D02*
X98071429Y-33464700D01*
X109928571Y-33464700D02*
X111071429Y-33464700D01*
X110500000Y-34036128D02*
X110500000Y-32893271D01*
D12*
X86930025Y-73254961D02*
X86954216Y-73279152D01*
X86954216Y-73279152D02*
X86978406Y-73351723D01*
X86978406Y-73351723D02*
X86978406Y-73400104D01*
X86978406Y-73400104D02*
X86954216Y-73472676D01*
X86954216Y-73472676D02*
X86905835Y-73521057D01*
X86905835Y-73521057D02*
X86857454Y-73545247D01*
X86857454Y-73545247D02*
X86760692Y-73569438D01*
X86760692Y-73569438D02*
X86688120Y-73569438D01*
X86688120Y-73569438D02*
X86591358Y-73545247D01*
X86591358Y-73545247D02*
X86542977Y-73521057D01*
X86542977Y-73521057D02*
X86494596Y-73472676D01*
X86494596Y-73472676D02*
X86470406Y-73400104D01*
X86470406Y-73400104D02*
X86470406Y-73351723D01*
X86470406Y-73351723D02*
X86494596Y-73279152D01*
X86494596Y-73279152D02*
X86518787Y-73254961D01*
X86978406Y-73037247D02*
X86470406Y-73037247D01*
X86470406Y-73037247D02*
X86978406Y-72746961D01*
X86978406Y-72746961D02*
X86470406Y-72746961D01*
X86470406Y-72287343D02*
X86470406Y-72384105D01*
X86470406Y-72384105D02*
X86494596Y-72432486D01*
X86494596Y-72432486D02*
X86518787Y-72456676D01*
X86518787Y-72456676D02*
X86591358Y-72505057D01*
X86591358Y-72505057D02*
X86688120Y-72529248D01*
X86688120Y-72529248D02*
X86881644Y-72529248D01*
X86881644Y-72529248D02*
X86930025Y-72505057D01*
X86930025Y-72505057D02*
X86954216Y-72480867D01*
X86954216Y-72480867D02*
X86978406Y-72432486D01*
X86978406Y-72432486D02*
X86978406Y-72335724D01*
X86978406Y-72335724D02*
X86954216Y-72287343D01*
X86954216Y-72287343D02*
X86930025Y-72263152D01*
X86930025Y-72263152D02*
X86881644Y-72238962D01*
X86881644Y-72238962D02*
X86760692Y-72238962D01*
X86760692Y-72238962D02*
X86712311Y-72263152D01*
X86712311Y-72263152D02*
X86688120Y-72287343D01*
X86688120Y-72287343D02*
X86663930Y-72335724D01*
X86663930Y-72335724D02*
X86663930Y-72432486D01*
X86663930Y-72432486D02*
X86688120Y-72480867D01*
X86688120Y-72480867D02*
X86712311Y-72505057D01*
X86712311Y-72505057D02*
X86760692Y-72529248D01*
X116823428Y-48653406D02*
X116581523Y-48653406D01*
X116581523Y-48653406D02*
X116581523Y-48145406D01*
X117258856Y-48653406D02*
X116968570Y-48653406D01*
X117113713Y-48653406D02*
X117113713Y-48145406D01*
X117113713Y-48145406D02*
X117065332Y-48217977D01*
X117065332Y-48217977D02*
X117016951Y-48266358D01*
X117016951Y-48266358D02*
X116968570Y-48290549D01*
X117573333Y-48145406D02*
X117621714Y-48145406D01*
X117621714Y-48145406D02*
X117670095Y-48169596D01*
X117670095Y-48169596D02*
X117694285Y-48193787D01*
X117694285Y-48193787D02*
X117718476Y-48242168D01*
X117718476Y-48242168D02*
X117742666Y-48338930D01*
X117742666Y-48338930D02*
X117742666Y-48459882D01*
X117742666Y-48459882D02*
X117718476Y-48556644D01*
X117718476Y-48556644D02*
X117694285Y-48605025D01*
X117694285Y-48605025D02*
X117670095Y-48629216D01*
X117670095Y-48629216D02*
X117621714Y-48653406D01*
X117621714Y-48653406D02*
X117573333Y-48653406D01*
X117573333Y-48653406D02*
X117524952Y-48629216D01*
X117524952Y-48629216D02*
X117500761Y-48605025D01*
X117500761Y-48605025D02*
X117476571Y-48556644D01*
X117476571Y-48556644D02*
X117452380Y-48459882D01*
X117452380Y-48459882D02*
X117452380Y-48338930D01*
X117452380Y-48338930D02*
X117476571Y-48242168D01*
X117476571Y-48242168D02*
X117500761Y-48193787D01*
X117500761Y-48193787D02*
X117524952Y-48169596D01*
X117524952Y-48169596D02*
X117573333Y-48145406D01*
X89934909Y-46193670D02*
X89910718Y-46217861D01*
X89910718Y-46217861D02*
X89838147Y-46242051D01*
X89838147Y-46242051D02*
X89789766Y-46242051D01*
X89789766Y-46242051D02*
X89717194Y-46217861D01*
X89717194Y-46217861D02*
X89668813Y-46169480D01*
X89668813Y-46169480D02*
X89644623Y-46121099D01*
X89644623Y-46121099D02*
X89620432Y-46024337D01*
X89620432Y-46024337D02*
X89620432Y-45951765D01*
X89620432Y-45951765D02*
X89644623Y-45855003D01*
X89644623Y-45855003D02*
X89668813Y-45806622D01*
X89668813Y-45806622D02*
X89717194Y-45758241D01*
X89717194Y-45758241D02*
X89789766Y-45734051D01*
X89789766Y-45734051D02*
X89838147Y-45734051D01*
X89838147Y-45734051D02*
X89910718Y-45758241D01*
X89910718Y-45758241D02*
X89934909Y-45782432D01*
X90104242Y-45734051D02*
X90418718Y-45734051D01*
X90418718Y-45734051D02*
X90249385Y-45927575D01*
X90249385Y-45927575D02*
X90321956Y-45927575D01*
X90321956Y-45927575D02*
X90370337Y-45951765D01*
X90370337Y-45951765D02*
X90394528Y-45975956D01*
X90394528Y-45975956D02*
X90418718Y-46024337D01*
X90418718Y-46024337D02*
X90418718Y-46145289D01*
X90418718Y-46145289D02*
X90394528Y-46193670D01*
X90394528Y-46193670D02*
X90370337Y-46217861D01*
X90370337Y-46217861D02*
X90321956Y-46242051D01*
X90321956Y-46242051D02*
X90176813Y-46242051D01*
X90176813Y-46242051D02*
X90128432Y-46217861D01*
X90128432Y-46217861D02*
X90104242Y-46193670D01*
X90878338Y-45734051D02*
X90636433Y-45734051D01*
X90636433Y-45734051D02*
X90612242Y-45975956D01*
X90612242Y-45975956D02*
X90636433Y-45951765D01*
X90636433Y-45951765D02*
X90684814Y-45927575D01*
X90684814Y-45927575D02*
X90805766Y-45927575D01*
X90805766Y-45927575D02*
X90854147Y-45951765D01*
X90854147Y-45951765D02*
X90878338Y-45975956D01*
X90878338Y-45975956D02*
X90902528Y-46024337D01*
X90902528Y-46024337D02*
X90902528Y-46145289D01*
X90902528Y-46145289D02*
X90878338Y-46193670D01*
X90878338Y-46193670D02*
X90854147Y-46217861D01*
X90854147Y-46217861D02*
X90805766Y-46242051D01*
X90805766Y-46242051D02*
X90684814Y-46242051D01*
X90684814Y-46242051D02*
X90636433Y-46217861D01*
X90636433Y-46217861D02*
X90612242Y-46193670D01*
X106623428Y-50953406D02*
X106454094Y-50711501D01*
X106333142Y-50953406D02*
X106333142Y-50445406D01*
X106333142Y-50445406D02*
X106526666Y-50445406D01*
X106526666Y-50445406D02*
X106575047Y-50469596D01*
X106575047Y-50469596D02*
X106599237Y-50493787D01*
X106599237Y-50493787D02*
X106623428Y-50542168D01*
X106623428Y-50542168D02*
X106623428Y-50614739D01*
X106623428Y-50614739D02*
X106599237Y-50663120D01*
X106599237Y-50663120D02*
X106575047Y-50687311D01*
X106575047Y-50687311D02*
X106526666Y-50711501D01*
X106526666Y-50711501D02*
X106333142Y-50711501D01*
X106792761Y-50445406D02*
X107107237Y-50445406D01*
X107107237Y-50445406D02*
X106937904Y-50638930D01*
X106937904Y-50638930D02*
X107010475Y-50638930D01*
X107010475Y-50638930D02*
X107058856Y-50663120D01*
X107058856Y-50663120D02*
X107083047Y-50687311D01*
X107083047Y-50687311D02*
X107107237Y-50735692D01*
X107107237Y-50735692D02*
X107107237Y-50856644D01*
X107107237Y-50856644D02*
X107083047Y-50905025D01*
X107083047Y-50905025D02*
X107058856Y-50929216D01*
X107058856Y-50929216D02*
X107010475Y-50953406D01*
X107010475Y-50953406D02*
X106865332Y-50953406D01*
X106865332Y-50953406D02*
X106816951Y-50929216D01*
X106816951Y-50929216D02*
X106792761Y-50905025D01*
X107542666Y-50614739D02*
X107542666Y-50953406D01*
X107421714Y-50421216D02*
X107300761Y-50784073D01*
X107300761Y-50784073D02*
X107615238Y-50784073D01*
X114578406Y-53151571D02*
X114336501Y-53320905D01*
X114578406Y-53441857D02*
X114070406Y-53441857D01*
X114070406Y-53441857D02*
X114070406Y-53248333D01*
X114070406Y-53248333D02*
X114094596Y-53199952D01*
X114094596Y-53199952D02*
X114118787Y-53175762D01*
X114118787Y-53175762D02*
X114167168Y-53151571D01*
X114167168Y-53151571D02*
X114239739Y-53151571D01*
X114239739Y-53151571D02*
X114288120Y-53175762D01*
X114288120Y-53175762D02*
X114312311Y-53199952D01*
X114312311Y-53199952D02*
X114336501Y-53248333D01*
X114336501Y-53248333D02*
X114336501Y-53441857D01*
X114070406Y-52982238D02*
X114070406Y-52667762D01*
X114070406Y-52667762D02*
X114263930Y-52837095D01*
X114263930Y-52837095D02*
X114263930Y-52764524D01*
X114263930Y-52764524D02*
X114288120Y-52716143D01*
X114288120Y-52716143D02*
X114312311Y-52691952D01*
X114312311Y-52691952D02*
X114360692Y-52667762D01*
X114360692Y-52667762D02*
X114481644Y-52667762D01*
X114481644Y-52667762D02*
X114530025Y-52691952D01*
X114530025Y-52691952D02*
X114554216Y-52716143D01*
X114554216Y-52716143D02*
X114578406Y-52764524D01*
X114578406Y-52764524D02*
X114578406Y-52909667D01*
X114578406Y-52909667D02*
X114554216Y-52958048D01*
X114554216Y-52958048D02*
X114530025Y-52982238D01*
X114070406Y-52498428D02*
X114070406Y-52159761D01*
X114070406Y-52159761D02*
X114578406Y-52377476D01*
X110174018Y-79603613D02*
X109883229Y-79894402D01*
X109883229Y-79894402D02*
X109866123Y-79945718D01*
X109866123Y-79945718D02*
X109866123Y-79979929D01*
X109866123Y-79979929D02*
X109883229Y-80031244D01*
X109883229Y-80031244D02*
X109951650Y-80099665D01*
X109951650Y-80099665D02*
X110002965Y-80116771D01*
X110002965Y-80116771D02*
X110037176Y-80116771D01*
X110037176Y-80116771D02*
X110088492Y-80099665D01*
X110088492Y-80099665D02*
X110379281Y-79808876D01*
X110584544Y-80253612D02*
X110345070Y-80493086D01*
X110635859Y-80031244D02*
X110293754Y-80202296D01*
X110293754Y-80202296D02*
X110516123Y-80424665D01*
X112805025Y-69217666D02*
X112829216Y-69241857D01*
X112829216Y-69241857D02*
X112853406Y-69314428D01*
X112853406Y-69314428D02*
X112853406Y-69362809D01*
X112853406Y-69362809D02*
X112829216Y-69435381D01*
X112829216Y-69435381D02*
X112780835Y-69483762D01*
X112780835Y-69483762D02*
X112732454Y-69507952D01*
X112732454Y-69507952D02*
X112635692Y-69532143D01*
X112635692Y-69532143D02*
X112563120Y-69532143D01*
X112563120Y-69532143D02*
X112466358Y-69507952D01*
X112466358Y-69507952D02*
X112417977Y-69483762D01*
X112417977Y-69483762D02*
X112369596Y-69435381D01*
X112369596Y-69435381D02*
X112345406Y-69362809D01*
X112345406Y-69362809D02*
X112345406Y-69314428D01*
X112345406Y-69314428D02*
X112369596Y-69241857D01*
X112369596Y-69241857D02*
X112393787Y-69217666D01*
X112853406Y-68999952D02*
X112345406Y-68999952D01*
X112345406Y-68999952D02*
X112853406Y-68709666D01*
X112853406Y-68709666D02*
X112345406Y-68709666D01*
X112853406Y-68201667D02*
X112853406Y-68491953D01*
X112853406Y-68346810D02*
X112345406Y-68346810D01*
X112345406Y-68346810D02*
X112417977Y-68395191D01*
X112417977Y-68395191D02*
X112466358Y-68443572D01*
X112466358Y-68443572D02*
X112490549Y-68491953D01*
X112345406Y-68032333D02*
X112345406Y-67717857D01*
X112345406Y-67717857D02*
X112538930Y-67887190D01*
X112538930Y-67887190D02*
X112538930Y-67814619D01*
X112538930Y-67814619D02*
X112563120Y-67766238D01*
X112563120Y-67766238D02*
X112587311Y-67742047D01*
X112587311Y-67742047D02*
X112635692Y-67717857D01*
X112635692Y-67717857D02*
X112756644Y-67717857D01*
X112756644Y-67717857D02*
X112805025Y-67742047D01*
X112805025Y-67742047D02*
X112829216Y-67766238D01*
X112829216Y-67766238D02*
X112853406Y-67814619D01*
X112853406Y-67814619D02*
X112853406Y-67959762D01*
X112853406Y-67959762D02*
X112829216Y-68008143D01*
X112829216Y-68008143D02*
X112805025Y-68032333D01*
X93026895Y-54926701D02*
X93026895Y-55168606D01*
X92857561Y-54660606D02*
X93026895Y-54926701D01*
X93026895Y-54926701D02*
X93196228Y-54660606D01*
X93341371Y-54708987D02*
X93365562Y-54684796D01*
X93365562Y-54684796D02*
X93413943Y-54660606D01*
X93413943Y-54660606D02*
X93534895Y-54660606D01*
X93534895Y-54660606D02*
X93583276Y-54684796D01*
X93583276Y-54684796D02*
X93607467Y-54708987D01*
X93607467Y-54708987D02*
X93631657Y-54757368D01*
X93631657Y-54757368D02*
X93631657Y-54805749D01*
X93631657Y-54805749D02*
X93607467Y-54878320D01*
X93607467Y-54878320D02*
X93317181Y-55168606D01*
X93317181Y-55168606D02*
X93631657Y-55168606D01*
X114354428Y-88622825D02*
X114330237Y-88647016D01*
X114330237Y-88647016D02*
X114257666Y-88671206D01*
X114257666Y-88671206D02*
X114209285Y-88671206D01*
X114209285Y-88671206D02*
X114136713Y-88647016D01*
X114136713Y-88647016D02*
X114088332Y-88598635D01*
X114088332Y-88598635D02*
X114064142Y-88550254D01*
X114064142Y-88550254D02*
X114039951Y-88453492D01*
X114039951Y-88453492D02*
X114039951Y-88380920D01*
X114039951Y-88380920D02*
X114064142Y-88284158D01*
X114064142Y-88284158D02*
X114088332Y-88235777D01*
X114088332Y-88235777D02*
X114136713Y-88187396D01*
X114136713Y-88187396D02*
X114209285Y-88163206D01*
X114209285Y-88163206D02*
X114257666Y-88163206D01*
X114257666Y-88163206D02*
X114330237Y-88187396D01*
X114330237Y-88187396D02*
X114354428Y-88211587D01*
X114838237Y-88671206D02*
X114547951Y-88671206D01*
X114693094Y-88671206D02*
X114693094Y-88163206D01*
X114693094Y-88163206D02*
X114644713Y-88235777D01*
X114644713Y-88235777D02*
X114596332Y-88284158D01*
X114596332Y-88284158D02*
X114547951Y-88308349D01*
X115297857Y-88163206D02*
X115055952Y-88163206D01*
X115055952Y-88163206D02*
X115031761Y-88405111D01*
X115031761Y-88405111D02*
X115055952Y-88380920D01*
X115055952Y-88380920D02*
X115104333Y-88356730D01*
X115104333Y-88356730D02*
X115225285Y-88356730D01*
X115225285Y-88356730D02*
X115273666Y-88380920D01*
X115273666Y-88380920D02*
X115297857Y-88405111D01*
X115297857Y-88405111D02*
X115322047Y-88453492D01*
X115322047Y-88453492D02*
X115322047Y-88574444D01*
X115322047Y-88574444D02*
X115297857Y-88622825D01*
X115297857Y-88622825D02*
X115273666Y-88647016D01*
X115273666Y-88647016D02*
X115225285Y-88671206D01*
X115225285Y-88671206D02*
X115104333Y-88671206D01*
X115104333Y-88671206D02*
X115055952Y-88647016D01*
X115055952Y-88647016D02*
X115031761Y-88622825D01*
X117157772Y-76791040D02*
X117123562Y-76791040D01*
X117123562Y-76791040D02*
X117055141Y-76756829D01*
X117055141Y-76756829D02*
X117020930Y-76722619D01*
X117020930Y-76722619D02*
X116986720Y-76654198D01*
X116986720Y-76654198D02*
X116986720Y-76585777D01*
X116986720Y-76585777D02*
X117003825Y-76534461D01*
X117003825Y-76534461D02*
X117055141Y-76448935D01*
X117055141Y-76448935D02*
X117106456Y-76397619D01*
X117106456Y-76397619D02*
X117191983Y-76346303D01*
X117191983Y-76346303D02*
X117243298Y-76329198D01*
X117243298Y-76329198D02*
X117311719Y-76329198D01*
X117311719Y-76329198D02*
X117380140Y-76363408D01*
X117380140Y-76363408D02*
X117414351Y-76397619D01*
X117414351Y-76397619D02*
X117448561Y-76466040D01*
X117448561Y-76466040D02*
X117448561Y-76500250D01*
X117585403Y-76637092D02*
X117619614Y-76637092D01*
X117619614Y-76637092D02*
X117670930Y-76654198D01*
X117670930Y-76654198D02*
X117756456Y-76739724D01*
X117756456Y-76739724D02*
X117773561Y-76791040D01*
X117773561Y-76791040D02*
X117773561Y-76825250D01*
X117773561Y-76825250D02*
X117756456Y-76876566D01*
X117756456Y-76876566D02*
X117722245Y-76910776D01*
X117722245Y-76910776D02*
X117653824Y-76944987D01*
X117653824Y-76944987D02*
X117243298Y-76944987D01*
X117243298Y-76944987D02*
X117465667Y-77167355D01*
X118047245Y-77030513D02*
X118081456Y-77064724D01*
X118081456Y-77064724D02*
X118098561Y-77116040D01*
X118098561Y-77116040D02*
X118098561Y-77150250D01*
X118098561Y-77150250D02*
X118081456Y-77201566D01*
X118081456Y-77201566D02*
X118030140Y-77287092D01*
X118030140Y-77287092D02*
X117944614Y-77372618D01*
X117944614Y-77372618D02*
X117859088Y-77423934D01*
X117859088Y-77423934D02*
X117807772Y-77441039D01*
X117807772Y-77441039D02*
X117773561Y-77441039D01*
X117773561Y-77441039D02*
X117722246Y-77423934D01*
X117722246Y-77423934D02*
X117688035Y-77389724D01*
X117688035Y-77389724D02*
X117670930Y-77338408D01*
X117670930Y-77338408D02*
X117670930Y-77304197D01*
X117670930Y-77304197D02*
X117688035Y-77252882D01*
X117688035Y-77252882D02*
X117739351Y-77167355D01*
X117739351Y-77167355D02*
X117824877Y-77081829D01*
X117824877Y-77081829D02*
X117910403Y-77030513D01*
X117910403Y-77030513D02*
X117961719Y-77013408D01*
X117961719Y-77013408D02*
X117995930Y-77013408D01*
X117995930Y-77013408D02*
X118047245Y-77030513D01*
X95912952Y-52745406D02*
X95912952Y-53156644D01*
X95912952Y-53156644D02*
X95937142Y-53205025D01*
X95937142Y-53205025D02*
X95961333Y-53229216D01*
X95961333Y-53229216D02*
X96009714Y-53253406D01*
X96009714Y-53253406D02*
X96106476Y-53253406D01*
X96106476Y-53253406D02*
X96154857Y-53229216D01*
X96154857Y-53229216D02*
X96179047Y-53205025D01*
X96179047Y-53205025D02*
X96203238Y-53156644D01*
X96203238Y-53156644D02*
X96203238Y-52745406D01*
X96711237Y-53253406D02*
X96420951Y-53253406D01*
X96566094Y-53253406D02*
X96566094Y-52745406D01*
X96566094Y-52745406D02*
X96517713Y-52817977D01*
X96517713Y-52817977D02*
X96469332Y-52866358D01*
X96469332Y-52866358D02*
X96420951Y-52890549D01*
X93824333Y-65403406D02*
X93582428Y-65403406D01*
X93582428Y-65403406D02*
X93582428Y-64895406D01*
X94066237Y-65113120D02*
X94017856Y-65088930D01*
X94017856Y-65088930D02*
X93993666Y-65064739D01*
X93993666Y-65064739D02*
X93969475Y-65016358D01*
X93969475Y-65016358D02*
X93969475Y-64992168D01*
X93969475Y-64992168D02*
X93993666Y-64943787D01*
X93993666Y-64943787D02*
X94017856Y-64919596D01*
X94017856Y-64919596D02*
X94066237Y-64895406D01*
X94066237Y-64895406D02*
X94162999Y-64895406D01*
X94162999Y-64895406D02*
X94211380Y-64919596D01*
X94211380Y-64919596D02*
X94235571Y-64943787D01*
X94235571Y-64943787D02*
X94259761Y-64992168D01*
X94259761Y-64992168D02*
X94259761Y-65016358D01*
X94259761Y-65016358D02*
X94235571Y-65064739D01*
X94235571Y-65064739D02*
X94211380Y-65088930D01*
X94211380Y-65088930D02*
X94162999Y-65113120D01*
X94162999Y-65113120D02*
X94066237Y-65113120D01*
X94066237Y-65113120D02*
X94017856Y-65137311D01*
X94017856Y-65137311D02*
X93993666Y-65161501D01*
X93993666Y-65161501D02*
X93969475Y-65209882D01*
X93969475Y-65209882D02*
X93969475Y-65306644D01*
X93969475Y-65306644D02*
X93993666Y-65355025D01*
X93993666Y-65355025D02*
X94017856Y-65379216D01*
X94017856Y-65379216D02*
X94066237Y-65403406D01*
X94066237Y-65403406D02*
X94162999Y-65403406D01*
X94162999Y-65403406D02*
X94211380Y-65379216D01*
X94211380Y-65379216D02*
X94235571Y-65355025D01*
X94235571Y-65355025D02*
X94259761Y-65306644D01*
X94259761Y-65306644D02*
X94259761Y-65209882D01*
X94259761Y-65209882D02*
X94235571Y-65161501D01*
X94235571Y-65161501D02*
X94211380Y-65137311D01*
X94211380Y-65137311D02*
X94162999Y-65113120D01*
X113478406Y-47826571D02*
X113236501Y-47995905D01*
X113478406Y-48116857D02*
X112970406Y-48116857D01*
X112970406Y-48116857D02*
X112970406Y-47923333D01*
X112970406Y-47923333D02*
X112994596Y-47874952D01*
X112994596Y-47874952D02*
X113018787Y-47850762D01*
X113018787Y-47850762D02*
X113067168Y-47826571D01*
X113067168Y-47826571D02*
X113139739Y-47826571D01*
X113139739Y-47826571D02*
X113188120Y-47850762D01*
X113188120Y-47850762D02*
X113212311Y-47874952D01*
X113212311Y-47874952D02*
X113236501Y-47923333D01*
X113236501Y-47923333D02*
X113236501Y-48116857D01*
X112970406Y-47366952D02*
X112970406Y-47608857D01*
X112970406Y-47608857D02*
X113212311Y-47633048D01*
X113212311Y-47633048D02*
X113188120Y-47608857D01*
X113188120Y-47608857D02*
X113163930Y-47560476D01*
X113163930Y-47560476D02*
X113163930Y-47439524D01*
X113163930Y-47439524D02*
X113188120Y-47391143D01*
X113188120Y-47391143D02*
X113212311Y-47366952D01*
X113212311Y-47366952D02*
X113260692Y-47342762D01*
X113260692Y-47342762D02*
X113381644Y-47342762D01*
X113381644Y-47342762D02*
X113430025Y-47366952D01*
X113430025Y-47366952D02*
X113454216Y-47391143D01*
X113454216Y-47391143D02*
X113478406Y-47439524D01*
X113478406Y-47439524D02*
X113478406Y-47560476D01*
X113478406Y-47560476D02*
X113454216Y-47608857D01*
X113454216Y-47608857D02*
X113430025Y-47633048D01*
X112970406Y-47173428D02*
X112970406Y-46834761D01*
X112970406Y-46834761D02*
X113478406Y-47052476D01*
X86930025Y-48167666D02*
X86954216Y-48191857D01*
X86954216Y-48191857D02*
X86978406Y-48264428D01*
X86978406Y-48264428D02*
X86978406Y-48312809D01*
X86978406Y-48312809D02*
X86954216Y-48385381D01*
X86954216Y-48385381D02*
X86905835Y-48433762D01*
X86905835Y-48433762D02*
X86857454Y-48457952D01*
X86857454Y-48457952D02*
X86760692Y-48482143D01*
X86760692Y-48482143D02*
X86688120Y-48482143D01*
X86688120Y-48482143D02*
X86591358Y-48457952D01*
X86591358Y-48457952D02*
X86542977Y-48433762D01*
X86542977Y-48433762D02*
X86494596Y-48385381D01*
X86494596Y-48385381D02*
X86470406Y-48312809D01*
X86470406Y-48312809D02*
X86470406Y-48264428D01*
X86470406Y-48264428D02*
X86494596Y-48191857D01*
X86494596Y-48191857D02*
X86518787Y-48167666D01*
X86978406Y-47949952D02*
X86470406Y-47949952D01*
X86470406Y-47949952D02*
X86978406Y-47659666D01*
X86978406Y-47659666D02*
X86470406Y-47659666D01*
X86978406Y-47151667D02*
X86978406Y-47441953D01*
X86978406Y-47296810D02*
X86470406Y-47296810D01*
X86470406Y-47296810D02*
X86542977Y-47345191D01*
X86542977Y-47345191D02*
X86591358Y-47393572D01*
X86591358Y-47393572D02*
X86615549Y-47441953D01*
X86470406Y-46837190D02*
X86470406Y-46788809D01*
X86470406Y-46788809D02*
X86494596Y-46740428D01*
X86494596Y-46740428D02*
X86518787Y-46716238D01*
X86518787Y-46716238D02*
X86567168Y-46692047D01*
X86567168Y-46692047D02*
X86663930Y-46667857D01*
X86663930Y-46667857D02*
X86784882Y-46667857D01*
X86784882Y-46667857D02*
X86881644Y-46692047D01*
X86881644Y-46692047D02*
X86930025Y-46716238D01*
X86930025Y-46716238D02*
X86954216Y-46740428D01*
X86954216Y-46740428D02*
X86978406Y-46788809D01*
X86978406Y-46788809D02*
X86978406Y-46837190D01*
X86978406Y-46837190D02*
X86954216Y-46885571D01*
X86954216Y-46885571D02*
X86930025Y-46909762D01*
X86930025Y-46909762D02*
X86881644Y-46933952D01*
X86881644Y-46933952D02*
X86784882Y-46958143D01*
X86784882Y-46958143D02*
X86663930Y-46958143D01*
X86663930Y-46958143D02*
X86567168Y-46933952D01*
X86567168Y-46933952D02*
X86518787Y-46909762D01*
X86518787Y-46909762D02*
X86494596Y-46885571D01*
X86494596Y-46885571D02*
X86470406Y-46837190D01*
X115753847Y-89661806D02*
X115753847Y-89153806D01*
X115753847Y-89153806D02*
X115874799Y-89153806D01*
X115874799Y-89153806D02*
X115947371Y-89177996D01*
X115947371Y-89177996D02*
X115995752Y-89226377D01*
X115995752Y-89226377D02*
X116019942Y-89274758D01*
X116019942Y-89274758D02*
X116044133Y-89371520D01*
X116044133Y-89371520D02*
X116044133Y-89444092D01*
X116044133Y-89444092D02*
X116019942Y-89540854D01*
X116019942Y-89540854D02*
X115995752Y-89589235D01*
X115995752Y-89589235D02*
X115947371Y-89637616D01*
X115947371Y-89637616D02*
X115874799Y-89661806D01*
X115874799Y-89661806D02*
X115753847Y-89661806D01*
X116479561Y-89323139D02*
X116479561Y-89661806D01*
X116358609Y-89129616D02*
X116237656Y-89492473D01*
X116237656Y-89492473D02*
X116552133Y-89492473D01*
X95331628Y-32155025D02*
X95307437Y-32179216D01*
X95307437Y-32179216D02*
X95234866Y-32203406D01*
X95234866Y-32203406D02*
X95186485Y-32203406D01*
X95186485Y-32203406D02*
X95113913Y-32179216D01*
X95113913Y-32179216D02*
X95065532Y-32130835D01*
X95065532Y-32130835D02*
X95041342Y-32082454D01*
X95041342Y-32082454D02*
X95017151Y-31985692D01*
X95017151Y-31985692D02*
X95017151Y-31913120D01*
X95017151Y-31913120D02*
X95041342Y-31816358D01*
X95041342Y-31816358D02*
X95065532Y-31767977D01*
X95065532Y-31767977D02*
X95113913Y-31719596D01*
X95113913Y-31719596D02*
X95186485Y-31695406D01*
X95186485Y-31695406D02*
X95234866Y-31695406D01*
X95234866Y-31695406D02*
X95307437Y-31719596D01*
X95307437Y-31719596D02*
X95331628Y-31743787D01*
X95767056Y-31864739D02*
X95767056Y-32203406D01*
X95646104Y-31671216D02*
X95525151Y-32034073D01*
X95525151Y-32034073D02*
X95839628Y-32034073D01*
X96129914Y-31695406D02*
X96178295Y-31695406D01*
X96178295Y-31695406D02*
X96226676Y-31719596D01*
X96226676Y-31719596D02*
X96250866Y-31743787D01*
X96250866Y-31743787D02*
X96275057Y-31792168D01*
X96275057Y-31792168D02*
X96299247Y-31888930D01*
X96299247Y-31888930D02*
X96299247Y-32009882D01*
X96299247Y-32009882D02*
X96275057Y-32106644D01*
X96275057Y-32106644D02*
X96250866Y-32155025D01*
X96250866Y-32155025D02*
X96226676Y-32179216D01*
X96226676Y-32179216D02*
X96178295Y-32203406D01*
X96178295Y-32203406D02*
X96129914Y-32203406D01*
X96129914Y-32203406D02*
X96081533Y-32179216D01*
X96081533Y-32179216D02*
X96057342Y-32155025D01*
X96057342Y-32155025D02*
X96033152Y-32106644D01*
X96033152Y-32106644D02*
X96008961Y-32009882D01*
X96008961Y-32009882D02*
X96008961Y-31888930D01*
X96008961Y-31888930D02*
X96033152Y-31792168D01*
X96033152Y-31792168D02*
X96057342Y-31743787D01*
X96057342Y-31743787D02*
X96081533Y-31719596D01*
X96081533Y-31719596D02*
X96129914Y-31695406D01*
X117404593Y-43070984D02*
X116993355Y-43070984D01*
X116993355Y-43070984D02*
X116944974Y-43095174D01*
X116944974Y-43095174D02*
X116920784Y-43119365D01*
X116920784Y-43119365D02*
X116896593Y-43167746D01*
X116896593Y-43167746D02*
X116896593Y-43264508D01*
X116896593Y-43264508D02*
X116920784Y-43312889D01*
X116920784Y-43312889D02*
X116944974Y-43337079D01*
X116944974Y-43337079D02*
X116993355Y-43361270D01*
X116993355Y-43361270D02*
X117404593Y-43361270D01*
X116896593Y-43869269D02*
X116896593Y-43578983D01*
X116896593Y-43724126D02*
X117404593Y-43724126D01*
X117404593Y-43724126D02*
X117332022Y-43675745D01*
X117332022Y-43675745D02*
X117283641Y-43627364D01*
X117283641Y-43627364D02*
X117259450Y-43578983D01*
X117404593Y-44328889D02*
X117404593Y-44086984D01*
X117404593Y-44086984D02*
X117162688Y-44062793D01*
X117162688Y-44062793D02*
X117186879Y-44086984D01*
X117186879Y-44086984D02*
X117211069Y-44135365D01*
X117211069Y-44135365D02*
X117211069Y-44256317D01*
X117211069Y-44256317D02*
X117186879Y-44304698D01*
X117186879Y-44304698D02*
X117162688Y-44328889D01*
X117162688Y-44328889D02*
X117114307Y-44353079D01*
X117114307Y-44353079D02*
X116993355Y-44353079D01*
X116993355Y-44353079D02*
X116944974Y-44328889D01*
X116944974Y-44328889D02*
X116920784Y-44304698D01*
X116920784Y-44304698D02*
X116896593Y-44256317D01*
X116896593Y-44256317D02*
X116896593Y-44135365D01*
X116896593Y-44135365D02*
X116920784Y-44086984D01*
X116920784Y-44086984D02*
X116944974Y-44062793D01*
X115744333Y-87088906D02*
X115502428Y-87088906D01*
X115502428Y-87088906D02*
X115502428Y-86580906D01*
X116131380Y-86750239D02*
X116131380Y-87088906D01*
X116010428Y-86556716D02*
X115889475Y-86919573D01*
X115889475Y-86919573D02*
X116203952Y-86919573D01*
X107299524Y-72188217D02*
X107057619Y-72357551D01*
X107299524Y-72478503D02*
X106791524Y-72478503D01*
X106791524Y-72478503D02*
X106791524Y-72284979D01*
X106791524Y-72284979D02*
X106815714Y-72236598D01*
X106815714Y-72236598D02*
X106839905Y-72212408D01*
X106839905Y-72212408D02*
X106888286Y-72188217D01*
X106888286Y-72188217D02*
X106960857Y-72188217D01*
X106960857Y-72188217D02*
X107009238Y-72212408D01*
X107009238Y-72212408D02*
X107033429Y-72236598D01*
X107033429Y-72236598D02*
X107057619Y-72284979D01*
X107057619Y-72284979D02*
X107057619Y-72478503D01*
X106839905Y-71994694D02*
X106815714Y-71970503D01*
X106815714Y-71970503D02*
X106791524Y-71922122D01*
X106791524Y-71922122D02*
X106791524Y-71801170D01*
X106791524Y-71801170D02*
X106815714Y-71752789D01*
X106815714Y-71752789D02*
X106839905Y-71728598D01*
X106839905Y-71728598D02*
X106888286Y-71704408D01*
X106888286Y-71704408D02*
X106936667Y-71704408D01*
X106936667Y-71704408D02*
X107009238Y-71728598D01*
X107009238Y-71728598D02*
X107299524Y-72018884D01*
X107299524Y-72018884D02*
X107299524Y-71704408D01*
X106839905Y-71510884D02*
X106815714Y-71486693D01*
X106815714Y-71486693D02*
X106791524Y-71438312D01*
X106791524Y-71438312D02*
X106791524Y-71317360D01*
X106791524Y-71317360D02*
X106815714Y-71268979D01*
X106815714Y-71268979D02*
X106839905Y-71244788D01*
X106839905Y-71244788D02*
X106888286Y-71220598D01*
X106888286Y-71220598D02*
X106936667Y-71220598D01*
X106936667Y-71220598D02*
X107009238Y-71244788D01*
X107009238Y-71244788D02*
X107299524Y-71535074D01*
X107299524Y-71535074D02*
X107299524Y-71220598D01*
X93148428Y-50705025D02*
X93124237Y-50729216D01*
X93124237Y-50729216D02*
X93051666Y-50753406D01*
X93051666Y-50753406D02*
X93003285Y-50753406D01*
X93003285Y-50753406D02*
X92930713Y-50729216D01*
X92930713Y-50729216D02*
X92882332Y-50680835D01*
X92882332Y-50680835D02*
X92858142Y-50632454D01*
X92858142Y-50632454D02*
X92833951Y-50535692D01*
X92833951Y-50535692D02*
X92833951Y-50463120D01*
X92833951Y-50463120D02*
X92858142Y-50366358D01*
X92858142Y-50366358D02*
X92882332Y-50317977D01*
X92882332Y-50317977D02*
X92930713Y-50269596D01*
X92930713Y-50269596D02*
X93003285Y-50245406D01*
X93003285Y-50245406D02*
X93051666Y-50245406D01*
X93051666Y-50245406D02*
X93124237Y-50269596D01*
X93124237Y-50269596D02*
X93148428Y-50293787D01*
X93583856Y-50414739D02*
X93583856Y-50753406D01*
X93462904Y-50221216D02*
X93341951Y-50584073D01*
X93341951Y-50584073D02*
X93656428Y-50584073D01*
X93874142Y-50753406D02*
X93970904Y-50753406D01*
X93970904Y-50753406D02*
X94019285Y-50729216D01*
X94019285Y-50729216D02*
X94043476Y-50705025D01*
X94043476Y-50705025D02*
X94091857Y-50632454D01*
X94091857Y-50632454D02*
X94116047Y-50535692D01*
X94116047Y-50535692D02*
X94116047Y-50342168D01*
X94116047Y-50342168D02*
X94091857Y-50293787D01*
X94091857Y-50293787D02*
X94067666Y-50269596D01*
X94067666Y-50269596D02*
X94019285Y-50245406D01*
X94019285Y-50245406D02*
X93922523Y-50245406D01*
X93922523Y-50245406D02*
X93874142Y-50269596D01*
X93874142Y-50269596D02*
X93849952Y-50293787D01*
X93849952Y-50293787D02*
X93825761Y-50342168D01*
X93825761Y-50342168D02*
X93825761Y-50463120D01*
X93825761Y-50463120D02*
X93849952Y-50511501D01*
X93849952Y-50511501D02*
X93874142Y-50535692D01*
X93874142Y-50535692D02*
X93922523Y-50559882D01*
X93922523Y-50559882D02*
X94019285Y-50559882D01*
X94019285Y-50559882D02*
X94067666Y-50535692D01*
X94067666Y-50535692D02*
X94091857Y-50511501D01*
X94091857Y-50511501D02*
X94116047Y-50463120D01*
X117675402Y-79358707D02*
X117846455Y-79529760D01*
X117367508Y-79290286D02*
X117675402Y-79358707D01*
X117675402Y-79358707D02*
X117606981Y-79050813D01*
X117692508Y-78965286D02*
X117914876Y-78742918D01*
X117914876Y-78742918D02*
X117931981Y-78999497D01*
X117931981Y-78999497D02*
X117983297Y-78948181D01*
X117983297Y-78948181D02*
X118034613Y-78931076D01*
X118034613Y-78931076D02*
X118068823Y-78931076D01*
X118068823Y-78931076D02*
X118120139Y-78948181D01*
X118120139Y-78948181D02*
X118205665Y-79033707D01*
X118205665Y-79033707D02*
X118222771Y-79085023D01*
X118222771Y-79085023D02*
X118222771Y-79119233D01*
X118222771Y-79119233D02*
X118205665Y-79170549D01*
X118205665Y-79170549D02*
X118103034Y-79273181D01*
X118103034Y-79273181D02*
X118051718Y-79290286D01*
X118051718Y-79290286D02*
X118017508Y-79290286D01*
X90517133Y-56085425D02*
X90492942Y-56109616D01*
X90492942Y-56109616D02*
X90420371Y-56133806D01*
X90420371Y-56133806D02*
X90371990Y-56133806D01*
X90371990Y-56133806D02*
X90299418Y-56109616D01*
X90299418Y-56109616D02*
X90251037Y-56061235D01*
X90251037Y-56061235D02*
X90226847Y-56012854D01*
X90226847Y-56012854D02*
X90202656Y-55916092D01*
X90202656Y-55916092D02*
X90202656Y-55843520D01*
X90202656Y-55843520D02*
X90226847Y-55746758D01*
X90226847Y-55746758D02*
X90251037Y-55698377D01*
X90251037Y-55698377D02*
X90299418Y-55649996D01*
X90299418Y-55649996D02*
X90371990Y-55625806D01*
X90371990Y-55625806D02*
X90420371Y-55625806D01*
X90420371Y-55625806D02*
X90492942Y-55649996D01*
X90492942Y-55649996D02*
X90517133Y-55674187D01*
X90976752Y-55625806D02*
X90734847Y-55625806D01*
X90734847Y-55625806D02*
X90710656Y-55867711D01*
X90710656Y-55867711D02*
X90734847Y-55843520D01*
X90734847Y-55843520D02*
X90783228Y-55819330D01*
X90783228Y-55819330D02*
X90904180Y-55819330D01*
X90904180Y-55819330D02*
X90952561Y-55843520D01*
X90952561Y-55843520D02*
X90976752Y-55867711D01*
X90976752Y-55867711D02*
X91000942Y-55916092D01*
X91000942Y-55916092D02*
X91000942Y-56037044D01*
X91000942Y-56037044D02*
X90976752Y-56085425D01*
X90976752Y-56085425D02*
X90952561Y-56109616D01*
X90952561Y-56109616D02*
X90904180Y-56133806D01*
X90904180Y-56133806D02*
X90783228Y-56133806D01*
X90783228Y-56133806D02*
X90734847Y-56109616D01*
X90734847Y-56109616D02*
X90710656Y-56085425D01*
X108520828Y-49978406D02*
X108351494Y-49736501D01*
X108230542Y-49978406D02*
X108230542Y-49470406D01*
X108230542Y-49470406D02*
X108424066Y-49470406D01*
X108424066Y-49470406D02*
X108472447Y-49494596D01*
X108472447Y-49494596D02*
X108496637Y-49518787D01*
X108496637Y-49518787D02*
X108520828Y-49567168D01*
X108520828Y-49567168D02*
X108520828Y-49639739D01*
X108520828Y-49639739D02*
X108496637Y-49688120D01*
X108496637Y-49688120D02*
X108472447Y-49712311D01*
X108472447Y-49712311D02*
X108424066Y-49736501D01*
X108424066Y-49736501D02*
X108230542Y-49736501D01*
X108690161Y-49470406D02*
X109004637Y-49470406D01*
X109004637Y-49470406D02*
X108835304Y-49663930D01*
X108835304Y-49663930D02*
X108907875Y-49663930D01*
X108907875Y-49663930D02*
X108956256Y-49688120D01*
X108956256Y-49688120D02*
X108980447Y-49712311D01*
X108980447Y-49712311D02*
X109004637Y-49760692D01*
X109004637Y-49760692D02*
X109004637Y-49881644D01*
X109004637Y-49881644D02*
X108980447Y-49930025D01*
X108980447Y-49930025D02*
X108956256Y-49954216D01*
X108956256Y-49954216D02*
X108907875Y-49978406D01*
X108907875Y-49978406D02*
X108762732Y-49978406D01*
X108762732Y-49978406D02*
X108714351Y-49954216D01*
X108714351Y-49954216D02*
X108690161Y-49930025D01*
X109464257Y-49470406D02*
X109222352Y-49470406D01*
X109222352Y-49470406D02*
X109198161Y-49712311D01*
X109198161Y-49712311D02*
X109222352Y-49688120D01*
X109222352Y-49688120D02*
X109270733Y-49663930D01*
X109270733Y-49663930D02*
X109391685Y-49663930D01*
X109391685Y-49663930D02*
X109440066Y-49688120D01*
X109440066Y-49688120D02*
X109464257Y-49712311D01*
X109464257Y-49712311D02*
X109488447Y-49760692D01*
X109488447Y-49760692D02*
X109488447Y-49881644D01*
X109488447Y-49881644D02*
X109464257Y-49930025D01*
X109464257Y-49930025D02*
X109440066Y-49954216D01*
X109440066Y-49954216D02*
X109391685Y-49978406D01*
X109391685Y-49978406D02*
X109270733Y-49978406D01*
X109270733Y-49978406D02*
X109222352Y-49954216D01*
X109222352Y-49954216D02*
X109198161Y-49930025D01*
X91118333Y-62200425D02*
X91094142Y-62224616D01*
X91094142Y-62224616D02*
X91021571Y-62248806D01*
X91021571Y-62248806D02*
X90973190Y-62248806D01*
X90973190Y-62248806D02*
X90900618Y-62224616D01*
X90900618Y-62224616D02*
X90852237Y-62176235D01*
X90852237Y-62176235D02*
X90828047Y-62127854D01*
X90828047Y-62127854D02*
X90803856Y-62031092D01*
X90803856Y-62031092D02*
X90803856Y-61958520D01*
X90803856Y-61958520D02*
X90828047Y-61861758D01*
X90828047Y-61861758D02*
X90852237Y-61813377D01*
X90852237Y-61813377D02*
X90900618Y-61764996D01*
X90900618Y-61764996D02*
X90973190Y-61740806D01*
X90973190Y-61740806D02*
X91021571Y-61740806D01*
X91021571Y-61740806D02*
X91094142Y-61764996D01*
X91094142Y-61764996D02*
X91118333Y-61789187D01*
X91311856Y-61789187D02*
X91336047Y-61764996D01*
X91336047Y-61764996D02*
X91384428Y-61740806D01*
X91384428Y-61740806D02*
X91505380Y-61740806D01*
X91505380Y-61740806D02*
X91553761Y-61764996D01*
X91553761Y-61764996D02*
X91577952Y-61789187D01*
X91577952Y-61789187D02*
X91602142Y-61837568D01*
X91602142Y-61837568D02*
X91602142Y-61885949D01*
X91602142Y-61885949D02*
X91577952Y-61958520D01*
X91577952Y-61958520D02*
X91287666Y-62248806D01*
X91287666Y-62248806D02*
X91602142Y-62248806D01*
X115544406Y-60778571D02*
X115302501Y-60947905D01*
X115544406Y-61068857D02*
X115036406Y-61068857D01*
X115036406Y-61068857D02*
X115036406Y-60875333D01*
X115036406Y-60875333D02*
X115060596Y-60826952D01*
X115060596Y-60826952D02*
X115084787Y-60802762D01*
X115084787Y-60802762D02*
X115133168Y-60778571D01*
X115133168Y-60778571D02*
X115205739Y-60778571D01*
X115205739Y-60778571D02*
X115254120Y-60802762D01*
X115254120Y-60802762D02*
X115278311Y-60826952D01*
X115278311Y-60826952D02*
X115302501Y-60875333D01*
X115302501Y-60875333D02*
X115302501Y-61068857D01*
X115036406Y-60609238D02*
X115036406Y-60294762D01*
X115036406Y-60294762D02*
X115229930Y-60464095D01*
X115229930Y-60464095D02*
X115229930Y-60391524D01*
X115229930Y-60391524D02*
X115254120Y-60343143D01*
X115254120Y-60343143D02*
X115278311Y-60318952D01*
X115278311Y-60318952D02*
X115326692Y-60294762D01*
X115326692Y-60294762D02*
X115447644Y-60294762D01*
X115447644Y-60294762D02*
X115496025Y-60318952D01*
X115496025Y-60318952D02*
X115520216Y-60343143D01*
X115520216Y-60343143D02*
X115544406Y-60391524D01*
X115544406Y-60391524D02*
X115544406Y-60536667D01*
X115544406Y-60536667D02*
X115520216Y-60585048D01*
X115520216Y-60585048D02*
X115496025Y-60609238D01*
X115036406Y-59859333D02*
X115036406Y-59956095D01*
X115036406Y-59956095D02*
X115060596Y-60004476D01*
X115060596Y-60004476D02*
X115084787Y-60028666D01*
X115084787Y-60028666D02*
X115157358Y-60077047D01*
X115157358Y-60077047D02*
X115254120Y-60101238D01*
X115254120Y-60101238D02*
X115447644Y-60101238D01*
X115447644Y-60101238D02*
X115496025Y-60077047D01*
X115496025Y-60077047D02*
X115520216Y-60052857D01*
X115520216Y-60052857D02*
X115544406Y-60004476D01*
X115544406Y-60004476D02*
X115544406Y-59907714D01*
X115544406Y-59907714D02*
X115520216Y-59859333D01*
X115520216Y-59859333D02*
X115496025Y-59835142D01*
X115496025Y-59835142D02*
X115447644Y-59810952D01*
X115447644Y-59810952D02*
X115326692Y-59810952D01*
X115326692Y-59810952D02*
X115278311Y-59835142D01*
X115278311Y-59835142D02*
X115254120Y-59859333D01*
X115254120Y-59859333D02*
X115229930Y-59907714D01*
X115229930Y-59907714D02*
X115229930Y-60004476D01*
X115229930Y-60004476D02*
X115254120Y-60052857D01*
X115254120Y-60052857D02*
X115278311Y-60077047D01*
X115278311Y-60077047D02*
X115326692Y-60101238D01*
X86924825Y-60650761D02*
X86949016Y-60674952D01*
X86949016Y-60674952D02*
X86973206Y-60747523D01*
X86973206Y-60747523D02*
X86973206Y-60795904D01*
X86973206Y-60795904D02*
X86949016Y-60868476D01*
X86949016Y-60868476D02*
X86900635Y-60916857D01*
X86900635Y-60916857D02*
X86852254Y-60941047D01*
X86852254Y-60941047D02*
X86755492Y-60965238D01*
X86755492Y-60965238D02*
X86682920Y-60965238D01*
X86682920Y-60965238D02*
X86586158Y-60941047D01*
X86586158Y-60941047D02*
X86537777Y-60916857D01*
X86537777Y-60916857D02*
X86489396Y-60868476D01*
X86489396Y-60868476D02*
X86465206Y-60795904D01*
X86465206Y-60795904D02*
X86465206Y-60747523D01*
X86465206Y-60747523D02*
X86489396Y-60674952D01*
X86489396Y-60674952D02*
X86513587Y-60650761D01*
X86973206Y-60433047D02*
X86465206Y-60433047D01*
X86465206Y-60433047D02*
X86973206Y-60142761D01*
X86973206Y-60142761D02*
X86465206Y-60142761D01*
X86465206Y-59949238D02*
X86465206Y-59610571D01*
X86465206Y-59610571D02*
X86973206Y-59828286D01*
X107811570Y-71533186D02*
X107862885Y-71242397D01*
X107606307Y-71327923D02*
X107965517Y-70968713D01*
X107965517Y-70968713D02*
X108102359Y-71105555D01*
X108102359Y-71105555D02*
X108119464Y-71156871D01*
X108119464Y-71156871D02*
X108119464Y-71191081D01*
X108119464Y-71191081D02*
X108102359Y-71242397D01*
X108102359Y-71242397D02*
X108051043Y-71293713D01*
X108051043Y-71293713D02*
X107999727Y-71310818D01*
X107999727Y-71310818D02*
X107965517Y-71310818D01*
X107965517Y-71310818D02*
X107914201Y-71293713D01*
X107914201Y-71293713D02*
X107777359Y-71156871D01*
X108153675Y-71875291D02*
X107948412Y-71670028D01*
X108051043Y-71772660D02*
X108410253Y-71413449D01*
X108410253Y-71413449D02*
X108324727Y-71430555D01*
X108324727Y-71430555D02*
X108256306Y-71430555D01*
X108256306Y-71430555D02*
X108204990Y-71413449D01*
X108837885Y-71841081D02*
X108666832Y-71670028D01*
X108666832Y-71670028D02*
X108478675Y-71823976D01*
X108478675Y-71823976D02*
X108512885Y-71823976D01*
X108512885Y-71823976D02*
X108564201Y-71841081D01*
X108564201Y-71841081D02*
X108649727Y-71926607D01*
X108649727Y-71926607D02*
X108666832Y-71977923D01*
X108666832Y-71977923D02*
X108666832Y-72012133D01*
X108666832Y-72012133D02*
X108649727Y-72063449D01*
X108649727Y-72063449D02*
X108564201Y-72148975D01*
X108564201Y-72148975D02*
X108512885Y-72166081D01*
X108512885Y-72166081D02*
X108478675Y-72166081D01*
X108478675Y-72166081D02*
X108427359Y-72148975D01*
X108427359Y-72148975D02*
X108341833Y-72063449D01*
X108341833Y-72063449D02*
X108324727Y-72012133D01*
X108324727Y-72012133D02*
X108324727Y-71977923D01*
X114815333Y-56728406D02*
X114573428Y-56728406D01*
X114573428Y-56728406D02*
X114573428Y-56220406D01*
X114936285Y-56220406D02*
X115250761Y-56220406D01*
X115250761Y-56220406D02*
X115081428Y-56413930D01*
X115081428Y-56413930D02*
X115153999Y-56413930D01*
X115153999Y-56413930D02*
X115202380Y-56438120D01*
X115202380Y-56438120D02*
X115226571Y-56462311D01*
X115226571Y-56462311D02*
X115250761Y-56510692D01*
X115250761Y-56510692D02*
X115250761Y-56631644D01*
X115250761Y-56631644D02*
X115226571Y-56680025D01*
X115226571Y-56680025D02*
X115202380Y-56704216D01*
X115202380Y-56704216D02*
X115153999Y-56728406D01*
X115153999Y-56728406D02*
X115008856Y-56728406D01*
X115008856Y-56728406D02*
X114960475Y-56704216D01*
X114960475Y-56704216D02*
X114936285Y-56680025D01*
X112038462Y-81752706D02*
X112004252Y-81752706D01*
X112004252Y-81752706D02*
X111935831Y-81718495D01*
X111935831Y-81718495D02*
X111901620Y-81684285D01*
X111901620Y-81684285D02*
X111867410Y-81615864D01*
X111867410Y-81615864D02*
X111867410Y-81547443D01*
X111867410Y-81547443D02*
X111884515Y-81496127D01*
X111884515Y-81496127D02*
X111935831Y-81410601D01*
X111935831Y-81410601D02*
X111987146Y-81359285D01*
X111987146Y-81359285D02*
X112072673Y-81307969D01*
X112072673Y-81307969D02*
X112123988Y-81290864D01*
X112123988Y-81290864D02*
X112192409Y-81290864D01*
X112192409Y-81290864D02*
X112260830Y-81325074D01*
X112260830Y-81325074D02*
X112295041Y-81359285D01*
X112295041Y-81359285D02*
X112329251Y-81427706D01*
X112329251Y-81427706D02*
X112329251Y-81461916D01*
X112466093Y-81598758D02*
X112500304Y-81598758D01*
X112500304Y-81598758D02*
X112551620Y-81615864D01*
X112551620Y-81615864D02*
X112637146Y-81701390D01*
X112637146Y-81701390D02*
X112654251Y-81752706D01*
X112654251Y-81752706D02*
X112654251Y-81786916D01*
X112654251Y-81786916D02*
X112637146Y-81838232D01*
X112637146Y-81838232D02*
X112602935Y-81872442D01*
X112602935Y-81872442D02*
X112534514Y-81906653D01*
X112534514Y-81906653D02*
X112123988Y-81906653D01*
X112123988Y-81906653D02*
X112346357Y-82129021D01*
X112688462Y-82471126D02*
X112483199Y-82265863D01*
X112585830Y-82368495D02*
X112945041Y-82009285D01*
X112945041Y-82009285D02*
X112859514Y-82026390D01*
X112859514Y-82026390D02*
X112791093Y-82026390D01*
X112791093Y-82026390D02*
X112739778Y-82009285D01*
X104095406Y-47437047D02*
X104506644Y-47437047D01*
X104506644Y-47437047D02*
X104555025Y-47412857D01*
X104555025Y-47412857D02*
X104579216Y-47388666D01*
X104579216Y-47388666D02*
X104603406Y-47340285D01*
X104603406Y-47340285D02*
X104603406Y-47243523D01*
X104603406Y-47243523D02*
X104579216Y-47195142D01*
X104579216Y-47195142D02*
X104555025Y-47170952D01*
X104555025Y-47170952D02*
X104506644Y-47146761D01*
X104506644Y-47146761D02*
X104095406Y-47146761D01*
X104095406Y-46662952D02*
X104095406Y-46904857D01*
X104095406Y-46904857D02*
X104337311Y-46929048D01*
X104337311Y-46929048D02*
X104313120Y-46904857D01*
X104313120Y-46904857D02*
X104288930Y-46856476D01*
X104288930Y-46856476D02*
X104288930Y-46735524D01*
X104288930Y-46735524D02*
X104313120Y-46687143D01*
X104313120Y-46687143D02*
X104337311Y-46662952D01*
X104337311Y-46662952D02*
X104385692Y-46638762D01*
X104385692Y-46638762D02*
X104506644Y-46638762D01*
X104506644Y-46638762D02*
X104555025Y-46662952D01*
X104555025Y-46662952D02*
X104579216Y-46687143D01*
X104579216Y-46687143D02*
X104603406Y-46735524D01*
X104603406Y-46735524D02*
X104603406Y-46856476D01*
X104603406Y-46856476D02*
X104579216Y-46904857D01*
X104579216Y-46904857D02*
X104555025Y-46929048D01*
X111890628Y-35054225D02*
X111866437Y-35078416D01*
X111866437Y-35078416D02*
X111793866Y-35102606D01*
X111793866Y-35102606D02*
X111745485Y-35102606D01*
X111745485Y-35102606D02*
X111672913Y-35078416D01*
X111672913Y-35078416D02*
X111624532Y-35030035D01*
X111624532Y-35030035D02*
X111600342Y-34981654D01*
X111600342Y-34981654D02*
X111576151Y-34884892D01*
X111576151Y-34884892D02*
X111576151Y-34812320D01*
X111576151Y-34812320D02*
X111600342Y-34715558D01*
X111600342Y-34715558D02*
X111624532Y-34667177D01*
X111624532Y-34667177D02*
X111672913Y-34618796D01*
X111672913Y-34618796D02*
X111745485Y-34594606D01*
X111745485Y-34594606D02*
X111793866Y-34594606D01*
X111793866Y-34594606D02*
X111866437Y-34618796D01*
X111866437Y-34618796D02*
X111890628Y-34642987D01*
X112326056Y-34763939D02*
X112326056Y-35102606D01*
X112205104Y-34570416D02*
X112084151Y-34933273D01*
X112084151Y-34933273D02*
X112398628Y-34933273D01*
X112543771Y-34594606D02*
X112858247Y-34594606D01*
X112858247Y-34594606D02*
X112688914Y-34788130D01*
X112688914Y-34788130D02*
X112761485Y-34788130D01*
X112761485Y-34788130D02*
X112809866Y-34812320D01*
X112809866Y-34812320D02*
X112834057Y-34836511D01*
X112834057Y-34836511D02*
X112858247Y-34884892D01*
X112858247Y-34884892D02*
X112858247Y-35005844D01*
X112858247Y-35005844D02*
X112834057Y-35054225D01*
X112834057Y-35054225D02*
X112809866Y-35078416D01*
X112809866Y-35078416D02*
X112761485Y-35102606D01*
X112761485Y-35102606D02*
X112616342Y-35102606D01*
X112616342Y-35102606D02*
X112567961Y-35078416D01*
X112567961Y-35078416D02*
X112543771Y-35054225D01*
X86930025Y-67542666D02*
X86954216Y-67566857D01*
X86954216Y-67566857D02*
X86978406Y-67639428D01*
X86978406Y-67639428D02*
X86978406Y-67687809D01*
X86978406Y-67687809D02*
X86954216Y-67760381D01*
X86954216Y-67760381D02*
X86905835Y-67808762D01*
X86905835Y-67808762D02*
X86857454Y-67832952D01*
X86857454Y-67832952D02*
X86760692Y-67857143D01*
X86760692Y-67857143D02*
X86688120Y-67857143D01*
X86688120Y-67857143D02*
X86591358Y-67832952D01*
X86591358Y-67832952D02*
X86542977Y-67808762D01*
X86542977Y-67808762D02*
X86494596Y-67760381D01*
X86494596Y-67760381D02*
X86470406Y-67687809D01*
X86470406Y-67687809D02*
X86470406Y-67639428D01*
X86470406Y-67639428D02*
X86494596Y-67566857D01*
X86494596Y-67566857D02*
X86518787Y-67542666D01*
X86978406Y-67324952D02*
X86470406Y-67324952D01*
X86470406Y-67324952D02*
X86978406Y-67034666D01*
X86978406Y-67034666D02*
X86470406Y-67034666D01*
X86978406Y-66526667D02*
X86978406Y-66816953D01*
X86978406Y-66671810D02*
X86470406Y-66671810D01*
X86470406Y-66671810D02*
X86542977Y-66720191D01*
X86542977Y-66720191D02*
X86591358Y-66768572D01*
X86591358Y-66768572D02*
X86615549Y-66816953D01*
X86978406Y-66042857D02*
X86978406Y-66333143D01*
X86978406Y-66188000D02*
X86470406Y-66188000D01*
X86470406Y-66188000D02*
X86542977Y-66236381D01*
X86542977Y-66236381D02*
X86591358Y-66284762D01*
X86591358Y-66284762D02*
X86615549Y-66333143D01*
X117622525Y-74692666D02*
X117646716Y-74716857D01*
X117646716Y-74716857D02*
X117670906Y-74789428D01*
X117670906Y-74789428D02*
X117670906Y-74837809D01*
X117670906Y-74837809D02*
X117646716Y-74910381D01*
X117646716Y-74910381D02*
X117598335Y-74958762D01*
X117598335Y-74958762D02*
X117549954Y-74982952D01*
X117549954Y-74982952D02*
X117453192Y-75007143D01*
X117453192Y-75007143D02*
X117380620Y-75007143D01*
X117380620Y-75007143D02*
X117283858Y-74982952D01*
X117283858Y-74982952D02*
X117235477Y-74958762D01*
X117235477Y-74958762D02*
X117187096Y-74910381D01*
X117187096Y-74910381D02*
X117162906Y-74837809D01*
X117162906Y-74837809D02*
X117162906Y-74789428D01*
X117162906Y-74789428D02*
X117187096Y-74716857D01*
X117187096Y-74716857D02*
X117211287Y-74692666D01*
X117670906Y-74474952D02*
X117162906Y-74474952D01*
X117162906Y-74474952D02*
X117670906Y-74184666D01*
X117670906Y-74184666D02*
X117162906Y-74184666D01*
X117670906Y-73676667D02*
X117670906Y-73966953D01*
X117670906Y-73821810D02*
X117162906Y-73821810D01*
X117162906Y-73821810D02*
X117235477Y-73870191D01*
X117235477Y-73870191D02*
X117283858Y-73918572D01*
X117283858Y-73918572D02*
X117308049Y-73966953D01*
X117211287Y-73483143D02*
X117187096Y-73458952D01*
X117187096Y-73458952D02*
X117162906Y-73410571D01*
X117162906Y-73410571D02*
X117162906Y-73289619D01*
X117162906Y-73289619D02*
X117187096Y-73241238D01*
X117187096Y-73241238D02*
X117211287Y-73217047D01*
X117211287Y-73217047D02*
X117259668Y-73192857D01*
X117259668Y-73192857D02*
X117308049Y-73192857D01*
X117308049Y-73192857D02*
X117380620Y-73217047D01*
X117380620Y-73217047D02*
X117670906Y-73507333D01*
X117670906Y-73507333D02*
X117670906Y-73192857D01*
X120250416Y-48577333D02*
X120274606Y-48504761D01*
X120274606Y-48504761D02*
X120274606Y-48383809D01*
X120274606Y-48383809D02*
X120250416Y-48335428D01*
X120250416Y-48335428D02*
X120226225Y-48311237D01*
X120226225Y-48311237D02*
X120177844Y-48287047D01*
X120177844Y-48287047D02*
X120129463Y-48287047D01*
X120129463Y-48287047D02*
X120081082Y-48311237D01*
X120081082Y-48311237D02*
X120056892Y-48335428D01*
X120056892Y-48335428D02*
X120032701Y-48383809D01*
X120032701Y-48383809D02*
X120008511Y-48480571D01*
X120008511Y-48480571D02*
X119984320Y-48528952D01*
X119984320Y-48528952D02*
X119960130Y-48553142D01*
X119960130Y-48553142D02*
X119911749Y-48577333D01*
X119911749Y-48577333D02*
X119863368Y-48577333D01*
X119863368Y-48577333D02*
X119814987Y-48553142D01*
X119814987Y-48553142D02*
X119790796Y-48528952D01*
X119790796Y-48528952D02*
X119766606Y-48480571D01*
X119766606Y-48480571D02*
X119766606Y-48359618D01*
X119766606Y-48359618D02*
X119790796Y-48287047D01*
X119766606Y-48117713D02*
X120274606Y-47996761D01*
X120274606Y-47996761D02*
X119911749Y-47899999D01*
X119911749Y-47899999D02*
X120274606Y-47803237D01*
X120274606Y-47803237D02*
X119766606Y-47682285D01*
X120274606Y-47222666D02*
X120274606Y-47512952D01*
X120274606Y-47367809D02*
X119766606Y-47367809D01*
X119766606Y-47367809D02*
X119839177Y-47416190D01*
X119839177Y-47416190D02*
X119887558Y-47464571D01*
X119887558Y-47464571D02*
X119911749Y-47512952D01*
X115954628Y-88671206D02*
X115785294Y-88429301D01*
X115664342Y-88671206D02*
X115664342Y-88163206D01*
X115664342Y-88163206D02*
X115857866Y-88163206D01*
X115857866Y-88163206D02*
X115906247Y-88187396D01*
X115906247Y-88187396D02*
X115930437Y-88211587D01*
X115930437Y-88211587D02*
X115954628Y-88259968D01*
X115954628Y-88259968D02*
X115954628Y-88332539D01*
X115954628Y-88332539D02*
X115930437Y-88380920D01*
X115930437Y-88380920D02*
X115906247Y-88405111D01*
X115906247Y-88405111D02*
X115857866Y-88429301D01*
X115857866Y-88429301D02*
X115664342Y-88429301D01*
X116438437Y-88671206D02*
X116148151Y-88671206D01*
X116293294Y-88671206D02*
X116293294Y-88163206D01*
X116293294Y-88163206D02*
X116244913Y-88235777D01*
X116244913Y-88235777D02*
X116196532Y-88284158D01*
X116196532Y-88284158D02*
X116148151Y-88308349D01*
X116631961Y-88211587D02*
X116656152Y-88187396D01*
X116656152Y-88187396D02*
X116704533Y-88163206D01*
X116704533Y-88163206D02*
X116825485Y-88163206D01*
X116825485Y-88163206D02*
X116873866Y-88187396D01*
X116873866Y-88187396D02*
X116898057Y-88211587D01*
X116898057Y-88211587D02*
X116922247Y-88259968D01*
X116922247Y-88259968D02*
X116922247Y-88308349D01*
X116922247Y-88308349D02*
X116898057Y-88380920D01*
X116898057Y-88380920D02*
X116607771Y-88671206D01*
X116607771Y-88671206D02*
X116922247Y-88671206D01*
X95329828Y-35079625D02*
X95305637Y-35103816D01*
X95305637Y-35103816D02*
X95233066Y-35128006D01*
X95233066Y-35128006D02*
X95184685Y-35128006D01*
X95184685Y-35128006D02*
X95112113Y-35103816D01*
X95112113Y-35103816D02*
X95063732Y-35055435D01*
X95063732Y-35055435D02*
X95039542Y-35007054D01*
X95039542Y-35007054D02*
X95015351Y-34910292D01*
X95015351Y-34910292D02*
X95015351Y-34837720D01*
X95015351Y-34837720D02*
X95039542Y-34740958D01*
X95039542Y-34740958D02*
X95063732Y-34692577D01*
X95063732Y-34692577D02*
X95112113Y-34644196D01*
X95112113Y-34644196D02*
X95184685Y-34620006D01*
X95184685Y-34620006D02*
X95233066Y-34620006D01*
X95233066Y-34620006D02*
X95305637Y-34644196D01*
X95305637Y-34644196D02*
X95329828Y-34668387D01*
X95765256Y-34789339D02*
X95765256Y-35128006D01*
X95644304Y-34595816D02*
X95523351Y-34958673D01*
X95523351Y-34958673D02*
X95837828Y-34958673D01*
X96297447Y-35128006D02*
X96007161Y-35128006D01*
X96152304Y-35128006D02*
X96152304Y-34620006D01*
X96152304Y-34620006D02*
X96103923Y-34692577D01*
X96103923Y-34692577D02*
X96055542Y-34740958D01*
X96055542Y-34740958D02*
X96007161Y-34765149D01*
X115931647Y-82575206D02*
X115931647Y-82067206D01*
X115931647Y-82067206D02*
X116052599Y-82067206D01*
X116052599Y-82067206D02*
X116125171Y-82091396D01*
X116125171Y-82091396D02*
X116173552Y-82139777D01*
X116173552Y-82139777D02*
X116197742Y-82188158D01*
X116197742Y-82188158D02*
X116221933Y-82284920D01*
X116221933Y-82284920D02*
X116221933Y-82357492D01*
X116221933Y-82357492D02*
X116197742Y-82454254D01*
X116197742Y-82454254D02*
X116173552Y-82502635D01*
X116173552Y-82502635D02*
X116125171Y-82551016D01*
X116125171Y-82551016D02*
X116052599Y-82575206D01*
X116052599Y-82575206D02*
X115931647Y-82575206D01*
X116391266Y-82067206D02*
X116705742Y-82067206D01*
X116705742Y-82067206D02*
X116536409Y-82260730D01*
X116536409Y-82260730D02*
X116608980Y-82260730D01*
X116608980Y-82260730D02*
X116657361Y-82284920D01*
X116657361Y-82284920D02*
X116681552Y-82309111D01*
X116681552Y-82309111D02*
X116705742Y-82357492D01*
X116705742Y-82357492D02*
X116705742Y-82478444D01*
X116705742Y-82478444D02*
X116681552Y-82526825D01*
X116681552Y-82526825D02*
X116657361Y-82551016D01*
X116657361Y-82551016D02*
X116608980Y-82575206D01*
X116608980Y-82575206D02*
X116463837Y-82575206D01*
X116463837Y-82575206D02*
X116415456Y-82551016D01*
X116415456Y-82551016D02*
X116391266Y-82526825D01*
X93173428Y-46105025D02*
X93149237Y-46129216D01*
X93149237Y-46129216D02*
X93076666Y-46153406D01*
X93076666Y-46153406D02*
X93028285Y-46153406D01*
X93028285Y-46153406D02*
X92955713Y-46129216D01*
X92955713Y-46129216D02*
X92907332Y-46080835D01*
X92907332Y-46080835D02*
X92883142Y-46032454D01*
X92883142Y-46032454D02*
X92858951Y-45935692D01*
X92858951Y-45935692D02*
X92858951Y-45863120D01*
X92858951Y-45863120D02*
X92883142Y-45766358D01*
X92883142Y-45766358D02*
X92907332Y-45717977D01*
X92907332Y-45717977D02*
X92955713Y-45669596D01*
X92955713Y-45669596D02*
X93028285Y-45645406D01*
X93028285Y-45645406D02*
X93076666Y-45645406D01*
X93076666Y-45645406D02*
X93149237Y-45669596D01*
X93149237Y-45669596D02*
X93173428Y-45693787D01*
X93608856Y-45814739D02*
X93608856Y-46153406D01*
X93487904Y-45621216D02*
X93366951Y-45984073D01*
X93366951Y-45984073D02*
X93681428Y-45984073D01*
X93826571Y-45645406D02*
X94165238Y-45645406D01*
X94165238Y-45645406D02*
X93947523Y-46153406D01*
X114495406Y-43169333D02*
X114858263Y-43169333D01*
X114858263Y-43169333D02*
X114930835Y-43193524D01*
X114930835Y-43193524D02*
X114979216Y-43241905D01*
X114979216Y-43241905D02*
X115003406Y-43314476D01*
X115003406Y-43314476D02*
X115003406Y-43362857D01*
X114495406Y-42709714D02*
X114495406Y-42806476D01*
X114495406Y-42806476D02*
X114519596Y-42854857D01*
X114519596Y-42854857D02*
X114543787Y-42879047D01*
X114543787Y-42879047D02*
X114616358Y-42927428D01*
X114616358Y-42927428D02*
X114713120Y-42951619D01*
X114713120Y-42951619D02*
X114906644Y-42951619D01*
X114906644Y-42951619D02*
X114955025Y-42927428D01*
X114955025Y-42927428D02*
X114979216Y-42903238D01*
X114979216Y-42903238D02*
X115003406Y-42854857D01*
X115003406Y-42854857D02*
X115003406Y-42758095D01*
X115003406Y-42758095D02*
X114979216Y-42709714D01*
X114979216Y-42709714D02*
X114955025Y-42685523D01*
X114955025Y-42685523D02*
X114906644Y-42661333D01*
X114906644Y-42661333D02*
X114785692Y-42661333D01*
X114785692Y-42661333D02*
X114737311Y-42685523D01*
X114737311Y-42685523D02*
X114713120Y-42709714D01*
X114713120Y-42709714D02*
X114688930Y-42758095D01*
X114688930Y-42758095D02*
X114688930Y-42854857D01*
X114688930Y-42854857D02*
X114713120Y-42903238D01*
X114713120Y-42903238D02*
X114737311Y-42927428D01*
X114737311Y-42927428D02*
X114785692Y-42951619D01*
X115204647Y-58673806D02*
X115204647Y-59085044D01*
X115204647Y-59085044D02*
X115228837Y-59133425D01*
X115228837Y-59133425D02*
X115253028Y-59157616D01*
X115253028Y-59157616D02*
X115301409Y-59181806D01*
X115301409Y-59181806D02*
X115398171Y-59181806D01*
X115398171Y-59181806D02*
X115446552Y-59157616D01*
X115446552Y-59157616D02*
X115470742Y-59133425D01*
X115470742Y-59133425D02*
X115494933Y-59085044D01*
X115494933Y-59085044D02*
X115494933Y-58673806D01*
X116002932Y-59181806D02*
X115712646Y-59181806D01*
X115857789Y-59181806D02*
X115857789Y-58673806D01*
X115857789Y-58673806D02*
X115809408Y-58746377D01*
X115809408Y-58746377D02*
X115761027Y-58794758D01*
X115761027Y-58794758D02*
X115712646Y-58818949D01*
X116486742Y-59181806D02*
X116196456Y-59181806D01*
X116341599Y-59181806D02*
X116341599Y-58673806D01*
X116341599Y-58673806D02*
X116293218Y-58746377D01*
X116293218Y-58746377D02*
X116244837Y-58794758D01*
X116244837Y-58794758D02*
X116196456Y-58818949D01*
X110441952Y-87730906D02*
X110441952Y-88142144D01*
X110441952Y-88142144D02*
X110466142Y-88190525D01*
X110466142Y-88190525D02*
X110490333Y-88214716D01*
X110490333Y-88214716D02*
X110538714Y-88238906D01*
X110538714Y-88238906D02*
X110635476Y-88238906D01*
X110635476Y-88238906D02*
X110683857Y-88214716D01*
X110683857Y-88214716D02*
X110708047Y-88190525D01*
X110708047Y-88190525D02*
X110732238Y-88142144D01*
X110732238Y-88142144D02*
X110732238Y-87730906D01*
X110925761Y-87730906D02*
X111264428Y-87730906D01*
X111264428Y-87730906D02*
X111046713Y-88238906D01*
X114052786Y-72757027D02*
X113761997Y-72705712D01*
X113847523Y-72962290D02*
X113488313Y-72603080D01*
X113488313Y-72603080D02*
X113625155Y-72466238D01*
X113625155Y-72466238D02*
X113676471Y-72449133D01*
X113676471Y-72449133D02*
X113710681Y-72449133D01*
X113710681Y-72449133D02*
X113761997Y-72466238D01*
X113761997Y-72466238D02*
X113813313Y-72517554D01*
X113813313Y-72517554D02*
X113830418Y-72568870D01*
X113830418Y-72568870D02*
X113830418Y-72603080D01*
X113830418Y-72603080D02*
X113813313Y-72654396D01*
X113813313Y-72654396D02*
X113676471Y-72791238D01*
X113864628Y-72295186D02*
X113864628Y-72260975D01*
X113864628Y-72260975D02*
X113881734Y-72209659D01*
X113881734Y-72209659D02*
X113967260Y-72124133D01*
X113967260Y-72124133D02*
X114018576Y-72107028D01*
X114018576Y-72107028D02*
X114052786Y-72107028D01*
X114052786Y-72107028D02*
X114104102Y-72124133D01*
X114104102Y-72124133D02*
X114138312Y-72158344D01*
X114138312Y-72158344D02*
X114172523Y-72226765D01*
X114172523Y-72226765D02*
X114172523Y-72637291D01*
X114172523Y-72637291D02*
X114394891Y-72414922D01*
X114736996Y-72072817D02*
X114531733Y-72278080D01*
X114634365Y-72175449D02*
X114275155Y-71816238D01*
X114275155Y-71816238D02*
X114292260Y-71901765D01*
X114292260Y-71901765D02*
X114292260Y-71970186D01*
X114292260Y-71970186D02*
X114275155Y-72021501D01*
X90453095Y-59771701D02*
X90453095Y-60013606D01*
X90283761Y-59505606D02*
X90453095Y-59771701D01*
X90453095Y-59771701D02*
X90622428Y-59505606D01*
X91057857Y-60013606D02*
X90767571Y-60013606D01*
X90912714Y-60013606D02*
X90912714Y-59505606D01*
X90912714Y-59505606D02*
X90864333Y-59578177D01*
X90864333Y-59578177D02*
X90815952Y-59626558D01*
X90815952Y-59626558D02*
X90767571Y-59650749D01*
X90623428Y-63580025D02*
X90599237Y-63604216D01*
X90599237Y-63604216D02*
X90526666Y-63628406D01*
X90526666Y-63628406D02*
X90478285Y-63628406D01*
X90478285Y-63628406D02*
X90405713Y-63604216D01*
X90405713Y-63604216D02*
X90357332Y-63555835D01*
X90357332Y-63555835D02*
X90333142Y-63507454D01*
X90333142Y-63507454D02*
X90308951Y-63410692D01*
X90308951Y-63410692D02*
X90308951Y-63338120D01*
X90308951Y-63338120D02*
X90333142Y-63241358D01*
X90333142Y-63241358D02*
X90357332Y-63192977D01*
X90357332Y-63192977D02*
X90405713Y-63144596D01*
X90405713Y-63144596D02*
X90478285Y-63120406D01*
X90478285Y-63120406D02*
X90526666Y-63120406D01*
X90526666Y-63120406D02*
X90599237Y-63144596D01*
X90599237Y-63144596D02*
X90623428Y-63168787D01*
X91083047Y-63120406D02*
X90841142Y-63120406D01*
X90841142Y-63120406D02*
X90816951Y-63362311D01*
X90816951Y-63362311D02*
X90841142Y-63338120D01*
X90841142Y-63338120D02*
X90889523Y-63313930D01*
X90889523Y-63313930D02*
X91010475Y-63313930D01*
X91010475Y-63313930D02*
X91058856Y-63338120D01*
X91058856Y-63338120D02*
X91083047Y-63362311D01*
X91083047Y-63362311D02*
X91107237Y-63410692D01*
X91107237Y-63410692D02*
X91107237Y-63531644D01*
X91107237Y-63531644D02*
X91083047Y-63580025D01*
X91083047Y-63580025D02*
X91058856Y-63604216D01*
X91058856Y-63604216D02*
X91010475Y-63628406D01*
X91010475Y-63628406D02*
X90889523Y-63628406D01*
X90889523Y-63628406D02*
X90841142Y-63604216D01*
X90841142Y-63604216D02*
X90816951Y-63580025D01*
X91566857Y-63120406D02*
X91324952Y-63120406D01*
X91324952Y-63120406D02*
X91300761Y-63362311D01*
X91300761Y-63362311D02*
X91324952Y-63338120D01*
X91324952Y-63338120D02*
X91373333Y-63313930D01*
X91373333Y-63313930D02*
X91494285Y-63313930D01*
X91494285Y-63313930D02*
X91542666Y-63338120D01*
X91542666Y-63338120D02*
X91566857Y-63362311D01*
X91566857Y-63362311D02*
X91591047Y-63410692D01*
X91591047Y-63410692D02*
X91591047Y-63531644D01*
X91591047Y-63531644D02*
X91566857Y-63580025D01*
X91566857Y-63580025D02*
X91542666Y-63604216D01*
X91542666Y-63604216D02*
X91494285Y-63628406D01*
X91494285Y-63628406D02*
X91373333Y-63628406D01*
X91373333Y-63628406D02*
X91324952Y-63604216D01*
X91324952Y-63604216D02*
X91300761Y-63580025D01*
X91143733Y-57730025D02*
X91119542Y-57754216D01*
X91119542Y-57754216D02*
X91046971Y-57778406D01*
X91046971Y-57778406D02*
X90998590Y-57778406D01*
X90998590Y-57778406D02*
X90926018Y-57754216D01*
X90926018Y-57754216D02*
X90877637Y-57705835D01*
X90877637Y-57705835D02*
X90853447Y-57657454D01*
X90853447Y-57657454D02*
X90829256Y-57560692D01*
X90829256Y-57560692D02*
X90829256Y-57488120D01*
X90829256Y-57488120D02*
X90853447Y-57391358D01*
X90853447Y-57391358D02*
X90877637Y-57342977D01*
X90877637Y-57342977D02*
X90926018Y-57294596D01*
X90926018Y-57294596D02*
X90998590Y-57270406D01*
X90998590Y-57270406D02*
X91046971Y-57270406D01*
X91046971Y-57270406D02*
X91119542Y-57294596D01*
X91119542Y-57294596D02*
X91143733Y-57318787D01*
X91627542Y-57778406D02*
X91337256Y-57778406D01*
X91482399Y-57778406D02*
X91482399Y-57270406D01*
X91482399Y-57270406D02*
X91434018Y-57342977D01*
X91434018Y-57342977D02*
X91385637Y-57391358D01*
X91385637Y-57391358D02*
X91337256Y-57415549D01*
D14*
%TO.C,D8*%
X84850000Y-32475000D02*
X84850000Y-34760000D01*
X84850000Y-34760000D02*
X86320000Y-34760000D01*
X86320000Y-34760000D02*
X86320000Y-32475000D01*
%TO.C,C66*%
X104040000Y-50332836D02*
X104040000Y-50117164D01*
X104760000Y-50332836D02*
X104760000Y-50117164D01*
D15*
%TO.C,U8*%
X108533000Y-84379500D02*
X108533000Y-83291500D01*
X111983500Y-82509500D02*
X109654500Y-82509500D01*
X111983500Y-85811500D02*
X109654500Y-85811500D01*
X113105000Y-85029500D02*
X113105000Y-83941500D01*
D16*
%TO.C,L9*%
X90783500Y-63903500D02*
X90783500Y-64665500D01*
D17*
X90783500Y-63903500D02*
X90936000Y-63751000D01*
D16*
X90783500Y-66433500D02*
X90783500Y-65671500D01*
D17*
X90936000Y-63751000D02*
X91952500Y-63751000D01*
X90936000Y-66585500D02*
X90783500Y-66433500D01*
X91952500Y-63751000D02*
X92105000Y-63903500D01*
X91952500Y-66585500D02*
X90936000Y-66585500D01*
D16*
X92105000Y-63903500D02*
X92105000Y-64665500D01*
D17*
X92105000Y-66433500D02*
X91952500Y-66585500D01*
D16*
X92105000Y-66433500D02*
X92105000Y-65671500D01*
D14*
%TO.C,R31*%
X91511359Y-43870000D02*
X91818641Y-43870000D01*
X91511359Y-44630000D02*
X91818641Y-44630000D01*
%TO.C,C48*%
X92763748Y-47315000D02*
X94186252Y-47315000D01*
X92763748Y-49135000D02*
X94186252Y-49135000D01*
D18*
%TO.C,U13*%
X113575400Y-55150000D02*
X113575400Y-54650000D01*
X115075400Y-54650000D02*
X115075400Y-55150000D01*
D19*
X114925400Y-55300000D02*
X113725400Y-55300000D01*
X113725400Y-54500000D01*
X114925400Y-54500000D01*
X114925400Y-55300000D01*
D18*
%TO.C,L5*%
X115328000Y-83561500D02*
X116328000Y-83561500D01*
X115328000Y-84761500D02*
X116328000Y-84761500D01*
D14*
%TO.C,C36*%
X89466717Y-43806755D02*
X89251045Y-43806755D01*
X89466717Y-44526755D02*
X89251045Y-44526755D01*
%TO.C,CN1*%
X84188600Y-51826200D02*
X84188600Y-55256200D01*
X87008600Y-50556200D02*
X88458600Y-50556200D01*
X87008600Y-56526200D02*
X88458600Y-56526200D01*
X88458600Y-50556200D02*
X88458600Y-52356200D01*
X88458600Y-52356200D02*
X89448600Y-52356200D01*
X88458600Y-56526200D02*
X88458600Y-54726200D01*
%TO.C,C64*%
X102155000Y-50332836D02*
X102155000Y-50117164D01*
X102875000Y-50332836D02*
X102875000Y-50117164D01*
%TO.C,CN4*%
X119280000Y-81216000D02*
X119280000Y-83016000D01*
X119280000Y-87886000D02*
X118290000Y-87886000D01*
X119280000Y-89686000D02*
X119280000Y-87886000D01*
X120730000Y-81216000D02*
X119280000Y-81216000D01*
X120730000Y-89686000D02*
X119280000Y-89686000D01*
X123550000Y-88416000D02*
X123550000Y-82486000D01*
%TO.C,C42*%
X112953852Y-31065000D02*
X111531348Y-31065000D01*
X112953852Y-32885000D02*
X111531348Y-32885000D01*
%TO.C,C57*%
X92792836Y-67715000D02*
X92577164Y-67715000D01*
X92792836Y-68435000D02*
X92577164Y-68435000D01*
%TO.C,C16*%
X114827164Y-85161800D02*
X115042836Y-85161800D01*
X114827164Y-85881800D02*
X115042836Y-85881800D01*
%TO.C,D7*%
X84865000Y-37475000D02*
X84865000Y-39760000D01*
X84865000Y-39760000D02*
X86335000Y-39760000D01*
X86335000Y-39760000D02*
X86335000Y-37475000D01*
D15*
%TO.C,SW2*%
X98975000Y-70425000D02*
X102975000Y-70425000D01*
X98975000Y-70794000D02*
X98975000Y-70425000D01*
X98975000Y-73425000D02*
X98975000Y-73056000D01*
X102975000Y-70425000D02*
X102975000Y-70794000D01*
X102975000Y-73056000D02*
X102975000Y-73425000D01*
X102975000Y-73425000D02*
X98975000Y-73425000D01*
X101737000Y-71925000D02*
G75*
G02*
X100213000Y-71925000I-762000J0D01*
G01*
X100213000Y-71925000D02*
G75*
G02*
X101737000Y-71925000I762000J0D01*
G01*
D18*
%TO.C,U12*%
X113575400Y-58350000D02*
X113575400Y-57850000D01*
X115075400Y-57850000D02*
X115075400Y-58350000D01*
D19*
X114925400Y-58500000D02*
X113725400Y-58500000D01*
X113725400Y-57700000D01*
X114925400Y-57700000D01*
X114925400Y-58500000D01*
D14*
%TO.C,C39*%
X104115000Y-47157837D02*
X104115000Y-46942165D01*
X104835000Y-47157837D02*
X104835000Y-46942165D01*
%TO.C,R23*%
X105794800Y-73403159D02*
X105794800Y-73710441D01*
X106554800Y-73403159D02*
X106554800Y-73710441D01*
D15*
%TO.C,BUZZER1*%
X118562893Y-62235000D02*
X123642893Y-62235000D01*
X118562893Y-62294000D02*
X118562893Y-62235000D01*
X118562893Y-66172000D02*
X118562893Y-63756000D01*
X119705893Y-67315000D02*
X118562893Y-66172000D01*
X123642893Y-62235000D02*
X123642893Y-62294000D01*
X123642893Y-63756000D02*
X123642893Y-65794000D01*
X123642893Y-67256000D02*
X123642893Y-67315000D01*
X123642893Y-67315000D02*
X119705893Y-67315000D01*
X121483893Y-66426000D02*
G75*
G02*
X120721893Y-66426000I-381000J0D01*
G01*
X120721893Y-66426000D02*
G75*
G02*
X121483893Y-66426000I381000J0D01*
G01*
D14*
%TO.C,J7*%
X84720200Y-81819200D02*
X86050200Y-81819200D01*
X84720200Y-83149200D02*
X84720200Y-81819200D01*
X84720200Y-84419200D02*
X84720200Y-89559200D01*
X84720200Y-84419200D02*
X87320200Y-84419200D01*
X84720200Y-89559200D02*
X89920200Y-89559200D01*
X87320200Y-81819200D02*
X89920200Y-81819200D01*
X87320200Y-84419200D02*
X87320200Y-81819200D01*
X89920200Y-81819200D02*
X89920200Y-89559200D01*
%TO.C,R13*%
X117870659Y-80976400D02*
X118177941Y-80976400D01*
X117870659Y-81736400D02*
X118177941Y-81736400D01*
%TO.C,C56*%
X92797836Y-66790000D02*
X92582164Y-66790000D01*
X92797836Y-67510000D02*
X92582164Y-67510000D01*
%TO.C,J5*%
X121380000Y-51960000D02*
X119680000Y-51960000D01*
X121380000Y-61300000D02*
X119680000Y-61300000D01*
%TO.C,C37*%
X91598045Y-41576119D02*
X91813717Y-41576119D01*
X91598045Y-42296119D02*
X91813717Y-42296119D01*
%TO.C,U2*%
X95915000Y-50615000D02*
X95915000Y-44625000D01*
X101135000Y-50625000D02*
X101135000Y-44625000D01*
X96215000Y-51335000D02*
X95735000Y-50855000D01*
X96215000Y-50855000D01*
X96215000Y-51335000D01*
G36*
X96215000Y-51335000D02*
G01*
X95735000Y-50855000D01*
X96215000Y-50855000D01*
X96215000Y-51335000D01*
G37*
D15*
%TO.C,L1*%
X101659000Y-46853001D02*
X101659000Y-47247001D01*
X103691000Y-47247001D02*
X103691000Y-46853001D01*
D14*
%TO.C,D5*%
X121790000Y-37475000D02*
X121790000Y-39760000D01*
X121790000Y-39760000D02*
X123260000Y-39760000D01*
X123260000Y-39760000D02*
X123260000Y-37475000D01*
%TO.C,C4*%
X91207000Y-53917964D02*
X91207000Y-54133636D01*
X91927000Y-53917964D02*
X91927000Y-54133636D01*
%TO.C,C60*%
X119365000Y-44532836D02*
X119365000Y-44317164D01*
X120085000Y-44532836D02*
X120085000Y-44317164D01*
%TO.C,D6*%
X121775000Y-32475000D02*
X121775000Y-34760000D01*
X121775000Y-34760000D02*
X123245000Y-34760000D01*
X123245000Y-34760000D02*
X123245000Y-32475000D01*
%TO.C,R56*%
X113820000Y-45928641D02*
X113820000Y-45621359D01*
X114580000Y-45928641D02*
X114580000Y-45621359D01*
%TO.C,CN2*%
X98790000Y-31940000D02*
X98790000Y-34760000D01*
X98790000Y-31940000D02*
X100490000Y-30640000D01*
X98790000Y-34760000D02*
X100490000Y-36060000D01*
X100490000Y-30640000D02*
X109210000Y-30640000D01*
X100490000Y-36060000D02*
X109210000Y-36060000D01*
X109210000Y-30640000D02*
X109210000Y-36060000D01*
%TO.C,CN6*%
X84190000Y-71189200D02*
X84190000Y-74619200D01*
X87010000Y-69919200D02*
X88460000Y-69919200D01*
X87010000Y-75889200D02*
X88460000Y-75889200D01*
X88460000Y-69919200D02*
X88460000Y-71719200D01*
X88460000Y-71719200D02*
X89450000Y-71719200D01*
X88460000Y-75889200D02*
X88460000Y-74089200D01*
%TO.C,L10*%
X114840000Y-45865000D02*
X114840000Y-50985000D01*
X114840000Y-45865000D02*
X115640000Y-45865000D01*
X114840000Y-50985000D02*
X115640000Y-50985000D01*
X119460000Y-45865000D02*
X118660000Y-45865000D01*
X119460000Y-45865000D02*
X119460000Y-50985000D01*
X119460000Y-50985000D02*
X118660000Y-50985000D01*
D15*
%TO.C,CN5*%
X93698000Y-36695000D02*
X93698000Y-44195000D01*
X93698000Y-36695000D02*
X109192000Y-36695000D01*
X93698000Y-44195000D02*
X109192000Y-44195000D01*
X109192000Y-36695000D02*
X109192000Y-44195000D01*
D14*
%TO.C,CN8*%
X87190000Y-30640000D02*
X92610000Y-30640000D01*
X87190000Y-39360000D02*
X87190000Y-30640000D01*
X88490000Y-41060000D02*
X87190000Y-39360000D01*
X88490000Y-41060000D02*
X91310000Y-41060000D01*
X91310000Y-41060000D02*
X92610000Y-39360000D01*
X92610000Y-39360000D02*
X92610000Y-30640000D01*
%TO.C,C35*%
X90153645Y-44840000D02*
X90369317Y-44840000D01*
X90153645Y-45560000D02*
X90369317Y-45560000D01*
%TO.C,C38*%
X91598045Y-42515000D02*
X91813717Y-42515000D01*
X91598045Y-43235000D02*
X91813717Y-43235000D01*
%TO.C,R34*%
X105370000Y-50378641D02*
X105370000Y-50071359D01*
X106130000Y-50378641D02*
X106130000Y-50071359D01*
%TO.C,R37*%
X114820000Y-52671359D02*
X114820000Y-52978641D01*
X115580000Y-52671359D02*
X115580000Y-52978641D01*
%TO.C,U4*%
X107836209Y-76479400D02*
X108172085Y-76143524D01*
X108172085Y-76815276D02*
X107836209Y-76479400D01*
X110484324Y-79127515D02*
X110608068Y-79251259D01*
X110820200Y-73495409D02*
X110484324Y-73831285D01*
X111156076Y-73831285D02*
X110820200Y-73495409D01*
X111156076Y-79127515D02*
X110989906Y-79293685D01*
X113468315Y-76143524D02*
X113804191Y-76479400D01*
X113804191Y-76479400D02*
X113468315Y-76815276D01*
X110756560Y-79866441D02*
X110417149Y-79527030D01*
X110820200Y-79463391D01*
X110756560Y-79866441D01*
G36*
X110756560Y-79866441D02*
G01*
X110417149Y-79527030D01*
X110820200Y-79463391D01*
X110756560Y-79866441D01*
G37*
%TO.C,CN13*%
X113065000Y-69965000D02*
X113065000Y-64035000D01*
X115935000Y-62765000D02*
X117535000Y-62765000D01*
X115935000Y-71235000D02*
X117535000Y-71235000D01*
X117535000Y-62765000D02*
X117535000Y-64565000D01*
X117535000Y-69435000D02*
X118475000Y-69435000D01*
X117535000Y-71235000D02*
X117535000Y-69435000D01*
%TO.C,Y2*%
X92393800Y-55615200D02*
X92393800Y-54265200D01*
X94143800Y-55615200D02*
X94143800Y-54265200D01*
%TO.C,C15*%
X114573164Y-88997200D02*
X114788836Y-88997200D01*
X114573164Y-89717200D02*
X114788836Y-89717200D01*
%TO.C,C20*%
X116364937Y-77893215D02*
X116517440Y-78045718D01*
X116874054Y-77384098D02*
X117026557Y-77536601D01*
%TO.C,U1*%
X96890000Y-53140000D02*
X96890000Y-53840000D01*
X96890000Y-67360000D02*
X96890000Y-66660000D01*
X97590000Y-53140000D02*
X96890000Y-53140000D01*
X97590000Y-67360000D02*
X96890000Y-67360000D01*
X110410000Y-53140000D02*
X111110000Y-53140000D01*
X110410000Y-67360000D02*
X111110000Y-67360000D01*
X111110000Y-53140000D02*
X111110000Y-53840000D01*
X111110000Y-67360000D02*
X111110000Y-66660000D01*
X96262500Y-53840000D02*
X95922500Y-53370000D01*
X96602500Y-53370000D01*
X96262500Y-53840000D01*
G36*
X96262500Y-53840000D02*
G01*
X95922500Y-53370000D01*
X96602500Y-53370000D01*
X96262500Y-53840000D01*
G37*
D16*
%TO.C,L8*%
X93257500Y-63903500D02*
X93257500Y-64665500D01*
D17*
X93257500Y-63903500D02*
X93410000Y-63751000D01*
D16*
X93257500Y-66433500D02*
X93257500Y-65671500D01*
D17*
X93410000Y-63751000D02*
X94426500Y-63751000D01*
X93410000Y-66585500D02*
X93257500Y-66433500D01*
X94426500Y-63751000D02*
X94579000Y-63903500D01*
X94426500Y-66585500D02*
X93410000Y-66585500D01*
D16*
X94579000Y-63903500D02*
X94579000Y-64665500D01*
D17*
X94579000Y-66433500D02*
X94426500Y-66585500D01*
D16*
X94579000Y-66433500D02*
X94579000Y-65671500D01*
D14*
%TO.C,R57*%
X112870000Y-45928641D02*
X112870000Y-45621359D01*
X113630000Y-45928641D02*
X113630000Y-45621359D01*
%TO.C,CN10*%
X84190000Y-45860000D02*
X84190000Y-49290000D01*
X87010000Y-44590000D02*
X88460000Y-44590000D01*
X87010000Y-50560000D02*
X88460000Y-50560000D01*
X88460000Y-44590000D02*
X88460000Y-46390000D01*
X88460000Y-46390000D02*
X89450000Y-46390000D01*
X88460000Y-50560000D02*
X88460000Y-48760000D01*
D18*
%TO.C,D4*%
X119097600Y-89433600D02*
G75*
G02*
X118997600Y-89433600I-50000J0D01*
G01*
X118997600Y-89433600D02*
G75*
G02*
X119097600Y-89433600I50000J0D01*
G01*
D14*
%TO.C,C40*%
X94946948Y-31065000D02*
X96369452Y-31065000D01*
X94946948Y-32885000D02*
X96369452Y-32885000D01*
D20*
%TO.C,U15*%
X115448600Y-42277537D02*
X115989734Y-42277537D01*
X115448600Y-42464608D02*
X115448600Y-42277537D01*
X115448600Y-45122337D02*
X115448600Y-44935266D01*
X115989734Y-45122337D02*
X115448600Y-45122337D01*
X116960014Y-42277537D02*
X117289986Y-42277537D01*
X118260266Y-42277537D02*
X118801400Y-42277537D01*
X118801400Y-42277537D02*
X118801400Y-42464608D01*
X118801400Y-44935266D02*
X118801400Y-45122337D01*
X118801400Y-45122337D02*
X118260266Y-45122337D01*
D18*
%TO.C,L4*%
X115328000Y-86261500D02*
X116328000Y-86261500D01*
X115328000Y-87461500D02*
X116328000Y-87461500D01*
D14*
%TO.C,R22*%
X106745000Y-73421359D02*
X106745000Y-73728641D01*
X107505000Y-73421359D02*
X107505000Y-73728641D01*
%TO.C,C49*%
X92738748Y-49615000D02*
X94161252Y-49615000D01*
X92738748Y-51435000D02*
X94161252Y-51435000D01*
%TO.C,Y3*%
X115133113Y-77218821D02*
X112799660Y-79552274D01*
X117113012Y-79198720D02*
X115133113Y-77218821D01*
%TO.C,C5*%
X91207000Y-56013236D02*
X91207000Y-55797564D01*
X91927000Y-56013236D02*
X91927000Y-55797564D01*
%TO.C,R35*%
X107353641Y-49370000D02*
X107046359Y-49370000D01*
X107353641Y-50130000D02*
X107046359Y-50130000D01*
%TO.C,C2*%
X92707836Y-61660400D02*
X92492164Y-61660400D01*
X92707836Y-62380400D02*
X92492164Y-62380400D01*
%TO.C,R32*%
X89207840Y-41856355D02*
X89515122Y-41856355D01*
X89207840Y-42616355D02*
X89515122Y-42616355D01*
%TO.C,C65*%
X103090000Y-50332836D02*
X103090000Y-50117164D01*
X103810000Y-50332836D02*
X103810000Y-50117164D01*
%TO.C,R36*%
X115774200Y-60605641D02*
X115774200Y-60298359D01*
X116534200Y-60605641D02*
X116534200Y-60298359D01*
%TO.C,CN7*%
X84184800Y-58585000D02*
X84184800Y-62015000D01*
X87004800Y-57315000D02*
X88454800Y-57315000D01*
X87004800Y-63285000D02*
X88454800Y-63285000D01*
X88454800Y-57315000D02*
X88454800Y-59115000D01*
X88454800Y-59115000D02*
X89444800Y-59115000D01*
X88454800Y-63285000D02*
X88454800Y-61485000D01*
%TO.C,R15*%
X109045859Y-72905660D02*
X109263140Y-73122941D01*
X109583260Y-72368259D02*
X109800541Y-72585540D01*
%TO.C,R33*%
X89515122Y-42821555D02*
X89207840Y-42821555D01*
X89515122Y-43581555D02*
X89207840Y-43581555D01*
D18*
%TO.C,L3*%
X114399000Y-55901000D02*
X115399000Y-55901000D01*
X114399000Y-57101000D02*
X115399000Y-57101000D01*
D14*
%TO.C,C21*%
X113038618Y-81366896D02*
X112886115Y-81214393D01*
X113547735Y-80857779D02*
X113395232Y-80705276D01*
%TO.C,U5*%
X105215000Y-47050000D02*
X105215000Y-46250000D01*
X105215000Y-47050000D02*
X105215000Y-47850000D01*
X108335000Y-47050000D02*
X108335000Y-46250000D01*
X108335000Y-47050000D02*
X108335000Y-47850000D01*
X105265000Y-48350000D02*
X104935000Y-48590000D01*
X104935000Y-48110000D01*
X105265000Y-48350000D01*
G36*
X105265000Y-48350000D02*
G01*
X104935000Y-48590000D01*
X104935000Y-48110000D01*
X105265000Y-48350000D01*
G37*
%TO.C,C43*%
X112928452Y-33964200D02*
X111505948Y-33964200D01*
X112928452Y-35784200D02*
X111505948Y-35784200D01*
%TO.C,CN11*%
X84190000Y-65235000D02*
X84190000Y-68665000D01*
X87010000Y-63965000D02*
X88460000Y-63965000D01*
X87010000Y-69935000D02*
X88460000Y-69935000D01*
X88460000Y-63965000D02*
X88460000Y-65765000D01*
X88460000Y-65765000D02*
X89450000Y-65765000D01*
X88460000Y-69935000D02*
X88460000Y-68135000D01*
%TO.C,CN12*%
X119215000Y-67596200D02*
X119215000Y-69396200D01*
X119215000Y-74266200D02*
X118225000Y-74266200D01*
X119215000Y-76066200D02*
X119215000Y-74266200D01*
X120665000Y-67596200D02*
X119215000Y-67596200D01*
X120665000Y-76066200D02*
X119215000Y-76066200D01*
X123485000Y-74796200D02*
X123485000Y-68866200D01*
%TO.C,R30*%
X92720000Y-43621359D02*
X92720000Y-43928641D01*
X93480000Y-43621359D02*
X93480000Y-43928641D01*
D15*
%TO.C,SW1*%
X120936500Y-45500000D02*
X122055500Y-45500000D01*
X120936500Y-45610500D02*
X120936500Y-45669000D01*
X120936500Y-46731000D02*
X120936500Y-49069000D01*
X120936500Y-50131000D02*
X120936500Y-50300000D01*
X120936500Y-50300000D02*
X122055500Y-50300000D01*
X123186500Y-49169000D02*
X123186500Y-46631000D01*
X124436500Y-46900000D02*
X123186500Y-46900000D01*
X124436500Y-46900000D02*
X124436500Y-48900000D01*
X124436500Y-48900000D02*
X123186500Y-48900000D01*
D14*
%TO.C,R12*%
X117804359Y-88071800D02*
X118111641Y-88071800D01*
X117804359Y-88831800D02*
X118111641Y-88831800D01*
%TO.C,CN9*%
X115350000Y-30670000D02*
X120770000Y-30670000D01*
X115350000Y-39390000D02*
X115350000Y-30670000D01*
X116650000Y-41090000D02*
X115350000Y-39390000D01*
X116650000Y-41090000D02*
X119470000Y-41090000D01*
X119470000Y-41090000D02*
X120770000Y-39390000D01*
X120770000Y-39390000D02*
X120770000Y-30670000D01*
%TO.C,C41*%
X94945148Y-33989600D02*
X96367652Y-33989600D01*
X94945148Y-35809600D02*
X96367652Y-35809600D01*
D18*
%TO.C,D3*%
X119173800Y-82347000D02*
G75*
G02*
X119073800Y-82347000I-50000J0D01*
G01*
X119073800Y-82347000D02*
G75*
G02*
X119173800Y-82347000I50000J0D01*
G01*
D14*
%TO.C,C47*%
X92763748Y-45015000D02*
X94186252Y-45015000D01*
X92763748Y-46835000D02*
X94186252Y-46835000D01*
%TO.C,J6*%
X109005000Y-44315000D02*
X109005000Y-36575000D01*
X111605000Y-41715000D02*
X111605000Y-44315000D01*
X111605000Y-44315000D02*
X109005000Y-44315000D01*
X114205000Y-36575000D02*
X109005000Y-36575000D01*
X114205000Y-41715000D02*
X111605000Y-41715000D01*
X114205000Y-41715000D02*
X114205000Y-36575000D01*
X114205000Y-42985000D02*
X114205000Y-44315000D01*
X114205000Y-44315000D02*
X112875000Y-44315000D01*
D18*
%TO.C,U11*%
X115083600Y-58339800D02*
X115083600Y-57839800D01*
X116583600Y-57839800D02*
X116583600Y-58339800D01*
D19*
X115233600Y-57689800D02*
X116433600Y-57689800D01*
X116433600Y-58489800D01*
X115233600Y-58489800D01*
X115233600Y-57689800D01*
D15*
%TO.C,U7*%
X108543000Y-88229500D02*
X108543000Y-87141500D01*
X111993500Y-86359500D02*
X109664500Y-86359500D01*
X111993500Y-89661500D02*
X109664500Y-89661500D01*
X113115000Y-88879500D02*
X113115000Y-87791500D01*
D14*
%TO.C,R21*%
X112788716Y-73186083D02*
X112571435Y-73403364D01*
X113326117Y-73723484D02*
X113108836Y-73940765D01*
D21*
%TO.C,G\u002A\u002A\u002A*%
G36*
X96548847Y-68578669D02*
G01*
X96575418Y-68591423D01*
X96581552Y-68596631D01*
X96586872Y-68604020D01*
X96591447Y-68615821D01*
X96595344Y-68634265D01*
X96598629Y-68661583D01*
X96601371Y-68700005D01*
X96603636Y-68751763D01*
X96605491Y-68819087D01*
X96607005Y-68904208D01*
X96608244Y-69009358D01*
X96609276Y-69136766D01*
X96610168Y-69288663D01*
X96610988Y-69467281D01*
X96611802Y-69674850D01*
X96612316Y-69814404D01*
X96613094Y-70042499D01*
X96613623Y-70240293D01*
X96613862Y-70410005D01*
X96613775Y-70553856D01*
X96613321Y-70674066D01*
X96612463Y-70772854D01*
X96611161Y-70852441D01*
X96609378Y-70915047D01*
X96607074Y-70962892D01*
X96604210Y-70998196D01*
X96600749Y-71023180D01*
X96596650Y-71040063D01*
X96591877Y-71051065D01*
X96590746Y-71052896D01*
X96570844Y-71068525D01*
X96525471Y-71096184D01*
X96458516Y-71133915D01*
X96373868Y-71179758D01*
X96275414Y-71231752D01*
X96167044Y-71287939D01*
X96052645Y-71346357D01*
X95936106Y-71405049D01*
X95821317Y-71462053D01*
X95712165Y-71515410D01*
X95612538Y-71563160D01*
X95526326Y-71603343D01*
X95457416Y-71634000D01*
X95409697Y-71653171D01*
X95388177Y-71658985D01*
X95347458Y-71649466D01*
X95322348Y-71635925D01*
X95312757Y-71627178D01*
X95305250Y-71614047D01*
X95299514Y-71592667D01*
X95295234Y-71559169D01*
X95292096Y-71509687D01*
X95289786Y-71440354D01*
X95287989Y-71347302D01*
X95286391Y-71226664D01*
X95285943Y-71187934D01*
X95284152Y-71055481D01*
X95282010Y-70952168D01*
X95279300Y-70874612D01*
X95275805Y-70819431D01*
X95271310Y-70783243D01*
X95265597Y-70762665D01*
X95258450Y-70754316D01*
X95258182Y-70754208D01*
X95238955Y-70759194D01*
X95193874Y-70777155D01*
X95126213Y-70806602D01*
X95039244Y-70846043D01*
X94936242Y-70893987D01*
X94820480Y-70948945D01*
X94695232Y-71009426D01*
X94661358Y-71025950D01*
X94510178Y-71099830D01*
X94347069Y-71179504D01*
X94179337Y-71261405D01*
X94014286Y-71341968D01*
X93859222Y-71417627D01*
X93721449Y-71484816D01*
X93646583Y-71521306D01*
X93535648Y-71575757D01*
X93434226Y-71626299D01*
X93346014Y-71671029D01*
X93274707Y-71708045D01*
X93224004Y-71735445D01*
X93197599Y-71751326D01*
X93194766Y-71753836D01*
X93204379Y-71766528D01*
X93237300Y-71788664D01*
X93286918Y-71816943D01*
X93346618Y-71848069D01*
X93409788Y-71878741D01*
X93469815Y-71905660D01*
X93520085Y-71925529D01*
X93553985Y-71935047D01*
X93558792Y-71935425D01*
X93579915Y-71928505D01*
X93626315Y-71908930D01*
X93694124Y-71878475D01*
X93779475Y-71838917D01*
X93878501Y-71792032D01*
X93987333Y-71739597D01*
X94023481Y-71721994D01*
X94136357Y-71667565D01*
X94242301Y-71617767D01*
X94337111Y-71574476D01*
X94416585Y-71539568D01*
X94476521Y-71514917D01*
X94512717Y-71502399D01*
X94517953Y-71501332D01*
X94535764Y-71501268D01*
X94559785Y-71505810D01*
X94592740Y-71516155D01*
X94637352Y-71533498D01*
X94696345Y-71559033D01*
X94772441Y-71593958D01*
X94868364Y-71639467D01*
X94986839Y-71696755D01*
X95130587Y-71767020D01*
X95193216Y-71797770D01*
X95343815Y-71871757D01*
X95501509Y-71949189D01*
X95660281Y-72027116D01*
X95814113Y-72102584D01*
X95956989Y-72172643D01*
X96082892Y-72234340D01*
X96185803Y-72284723D01*
X96188413Y-72285999D01*
X96307308Y-72344582D01*
X96400079Y-72391427D01*
X96470103Y-72428491D01*
X96520755Y-72457730D01*
X96555411Y-72481101D01*
X96577446Y-72500561D01*
X96590236Y-72518066D01*
X96590878Y-72519279D01*
X96597345Y-72535684D01*
X96602632Y-72559526D01*
X96606851Y-72593903D01*
X96610116Y-72641916D01*
X96612540Y-72706664D01*
X96614234Y-72791245D01*
X96615312Y-72898759D01*
X96615886Y-73032306D01*
X96616070Y-73194983D01*
X96616071Y-73211861D01*
X96616071Y-73855726D01*
X96576157Y-73895640D01*
X96543645Y-73922730D01*
X96537513Y-73925734D01*
X96517735Y-73935422D01*
X96515955Y-73935553D01*
X96498667Y-73928717D01*
X96454714Y-73909049D01*
X96386742Y-73877809D01*
X96297396Y-73836257D01*
X96189323Y-73785652D01*
X96065167Y-73727255D01*
X95927575Y-73662325D01*
X95779193Y-73592123D01*
X95622666Y-73517909D01*
X95460640Y-73440942D01*
X95295760Y-73362482D01*
X95130673Y-73283790D01*
X94968024Y-73206125D01*
X94810460Y-73130747D01*
X94660624Y-73058916D01*
X94521165Y-72991893D01*
X94394726Y-72930936D01*
X94283955Y-72877306D01*
X94191496Y-72832263D01*
X94119995Y-72797067D01*
X94072099Y-72772978D01*
X94051706Y-72762046D01*
X94003424Y-72720951D01*
X93986930Y-72675641D01*
X93997895Y-72634886D01*
X94019356Y-72614853D01*
X94065247Y-72584818D01*
X94130260Y-72547955D01*
X94209090Y-72507435D01*
X94219734Y-72502230D01*
X94305899Y-72461214D01*
X94369237Y-72433597D01*
X94415565Y-72417375D01*
X94450698Y-72410546D01*
X94480454Y-72411105D01*
X94483200Y-72411468D01*
X94509222Y-72420000D01*
X94561488Y-72441339D01*
X94636971Y-72474114D01*
X94732648Y-72516950D01*
X94845491Y-72568477D01*
X94972477Y-72627320D01*
X95110580Y-72692109D01*
X95256775Y-72761470D01*
X95296447Y-72780422D01*
X95442795Y-72850068D01*
X95580644Y-72914950D01*
X95707152Y-72973782D01*
X95819478Y-73025277D01*
X95914780Y-73068146D01*
X95990217Y-73101102D01*
X96042946Y-73122857D01*
X96070127Y-73132124D01*
X96072920Y-73132260D01*
X96084955Y-73118317D01*
X96092177Y-73084423D01*
X96095375Y-73025551D01*
X96095712Y-72987304D01*
X96094377Y-72916070D01*
X96089468Y-72869783D01*
X96079631Y-72840945D01*
X96066294Y-72824470D01*
X96046761Y-72812631D01*
X96001648Y-72788403D01*
X95934309Y-72753445D01*
X95848094Y-72709415D01*
X95746357Y-72657972D01*
X95632449Y-72600774D01*
X95509724Y-72539479D01*
X95381532Y-72475748D01*
X95251226Y-72411237D01*
X95122159Y-72347606D01*
X94997683Y-72286514D01*
X94881149Y-72229618D01*
X94775911Y-72178578D01*
X94685320Y-72135051D01*
X94612729Y-72100697D01*
X94561489Y-72077175D01*
X94534954Y-72066142D01*
X94532338Y-72065515D01*
X94514063Y-72072424D01*
X94470325Y-72091988D01*
X94404823Y-72122461D01*
X94321256Y-72162097D01*
X94223320Y-72209151D01*
X94114715Y-72261876D01*
X94067319Y-72285041D01*
X93923919Y-72354614D01*
X93807112Y-72409775D01*
X93714802Y-72451432D01*
X93644893Y-72480493D01*
X93595288Y-72497865D01*
X93563893Y-72504457D01*
X93560557Y-72504572D01*
X93530726Y-72497504D01*
X93475870Y-72477544D01*
X93399944Y-72446568D01*
X93306899Y-72406448D01*
X93200689Y-72359060D01*
X93085267Y-72306277D01*
X92964587Y-72249973D01*
X92842601Y-72192022D01*
X92723263Y-72134298D01*
X92610526Y-72078675D01*
X92508343Y-72027028D01*
X92420668Y-71981229D01*
X92351453Y-71943153D01*
X92304652Y-71914675D01*
X92286525Y-71900623D01*
X92259152Y-71866054D01*
X92245764Y-71828639D01*
X92241855Y-71774675D01*
X92241807Y-71764683D01*
X92244798Y-71706842D01*
X92256795Y-71667317D01*
X92257589Y-71666225D01*
X92306852Y-71666225D01*
X92307056Y-71764237D01*
X92307260Y-71862250D01*
X92933565Y-72161390D01*
X93559869Y-72460530D01*
X94046571Y-72222530D01*
X94533274Y-71984530D01*
X95342950Y-72386834D01*
X96152627Y-72789139D01*
X96157138Y-73020861D01*
X96157828Y-73106750D01*
X96156473Y-73177213D01*
X96153303Y-73227074D01*
X96148547Y-73251158D01*
X96146854Y-73252583D01*
X96129852Y-73245749D01*
X96086197Y-73226080D01*
X96018551Y-73194828D01*
X95929574Y-73153245D01*
X95821928Y-73102582D01*
X95698273Y-73044091D01*
X95561270Y-72979023D01*
X95413582Y-72908629D01*
X95296760Y-72852784D01*
X94461461Y-72452985D01*
X94236624Y-72564702D01*
X94011787Y-72676419D01*
X95267714Y-73277529D01*
X95457223Y-73368219D01*
X95638370Y-73454880D01*
X95809000Y-73536486D01*
X95966961Y-73612006D01*
X96110099Y-73680412D01*
X96236260Y-73740676D01*
X96343293Y-73791769D01*
X96429042Y-73832662D01*
X96491356Y-73862327D01*
X96528080Y-73879735D01*
X96537513Y-73884119D01*
X96540377Y-73869619D01*
X96542842Y-73825931D01*
X96544862Y-73756392D01*
X96546388Y-73664334D01*
X96547372Y-73553092D01*
X96547767Y-73426000D01*
X96547526Y-73286392D01*
X96547140Y-73211202D01*
X96542895Y-72532804D01*
X95536830Y-72038692D01*
X94530765Y-71544580D01*
X94050807Y-71780656D01*
X93935196Y-71837354D01*
X93828902Y-71889162D01*
X93735436Y-71934394D01*
X93658311Y-71971363D01*
X93601035Y-71998384D01*
X93567121Y-72013769D01*
X93559270Y-72016731D01*
X93538787Y-72009929D01*
X93496055Y-71991402D01*
X93436787Y-71963972D01*
X93366693Y-71930462D01*
X93291485Y-71893692D01*
X93216875Y-71856485D01*
X93148575Y-71821661D01*
X93092295Y-71792044D01*
X93053747Y-71770453D01*
X93038643Y-71759712D01*
X93038606Y-71759508D01*
X93052790Y-71750713D01*
X93093541Y-71729061D01*
X93158161Y-71695877D01*
X93243948Y-71652484D01*
X93348204Y-71600209D01*
X93468229Y-71540375D01*
X93601322Y-71474308D01*
X93744784Y-71403331D01*
X93895916Y-71328770D01*
X94052017Y-71251950D01*
X94210388Y-71174194D01*
X94368329Y-71096828D01*
X94523141Y-71021176D01*
X94672123Y-70948563D01*
X94812575Y-70880314D01*
X94941799Y-70817753D01*
X95057093Y-70762205D01*
X95155759Y-70714995D01*
X95235097Y-70677448D01*
X95292407Y-70650887D01*
X95324989Y-70636638D01*
X95331377Y-70634529D01*
X95336536Y-70650622D01*
X95340758Y-70698255D01*
X95344010Y-70776456D01*
X95346260Y-70884255D01*
X95347477Y-71020682D01*
X95347697Y-71122365D01*
X95348087Y-71244598D01*
X95349191Y-71355652D01*
X95350909Y-71451550D01*
X95353143Y-71528311D01*
X95355791Y-71581955D01*
X95358757Y-71608502D01*
X95359893Y-71610660D01*
X95376681Y-71603821D01*
X95419477Y-71584106D01*
X95485122Y-71553034D01*
X95570458Y-71512121D01*
X95672328Y-71462884D01*
X95787575Y-71406838D01*
X95913039Y-71345501D01*
X95960897Y-71322024D01*
X96549706Y-71032929D01*
X96550366Y-69825534D01*
X96550349Y-69630585D01*
X96550092Y-69445390D01*
X96549614Y-69272475D01*
X96548932Y-69114367D01*
X96548066Y-68973591D01*
X96547034Y-68852676D01*
X96545854Y-68754147D01*
X96544544Y-68680531D01*
X96543124Y-68634353D01*
X96541610Y-68618142D01*
X96541591Y-68618140D01*
X96525779Y-68625180D01*
X96482798Y-68645648D01*
X96414639Y-68678565D01*
X96323290Y-68722950D01*
X96210740Y-68777826D01*
X96078980Y-68842211D01*
X95929997Y-68915129D01*
X95765781Y-68995597D01*
X95588322Y-69082639D01*
X95399608Y-69175274D01*
X95201630Y-69272522D01*
X94996375Y-69373406D01*
X94785833Y-69476945D01*
X94571994Y-69582159D01*
X94356846Y-69688071D01*
X94142379Y-69793700D01*
X93930583Y-69898067D01*
X93723445Y-70000192D01*
X93522956Y-70099098D01*
X93331104Y-70193803D01*
X93149879Y-70283330D01*
X92981270Y-70366697D01*
X92827267Y-70442928D01*
X92689858Y-70511041D01*
X92571032Y-70570057D01*
X92472779Y-70618999D01*
X92397088Y-70656885D01*
X92345949Y-70682736D01*
X92321350Y-70695575D01*
X92319412Y-70696770D01*
X92314671Y-70717302D01*
X92311376Y-70763770D01*
X92309788Y-70829607D01*
X92310171Y-70908248D01*
X92310426Y-70921293D01*
X92314983Y-71132272D01*
X94224297Y-70193001D01*
X94458002Y-70078145D01*
X94683702Y-69967444D01*
X94899674Y-69861731D01*
X95104198Y-69761841D01*
X95295549Y-69668608D01*
X95472007Y-69582864D01*
X95631848Y-69505444D01*
X95773352Y-69437180D01*
X95894795Y-69378908D01*
X95994456Y-69331461D01*
X96070613Y-69295672D01*
X96121543Y-69272375D01*
X96145524Y-69262404D01*
X96147184Y-69262119D01*
X96149942Y-69279590D01*
X96152511Y-69326341D01*
X96154835Y-69399129D01*
X96156856Y-69494712D01*
X96158516Y-69609848D01*
X96159758Y-69741295D01*
X96160523Y-69885809D01*
X96160757Y-70025568D01*
X96160757Y-70780629D01*
X95965873Y-70878322D01*
X95892725Y-70914401D01*
X95829534Y-70944467D01*
X95782197Y-70965793D01*
X95756614Y-70975654D01*
X95754477Y-70976014D01*
X95749160Y-70959863D01*
X95744847Y-70911818D01*
X95741561Y-70832493D01*
X95739321Y-70722501D01*
X95738149Y-70582458D01*
X95737966Y-70488178D01*
X95737576Y-70365981D01*
X95736472Y-70254992D01*
X95734755Y-70159185D01*
X95732522Y-70082533D01*
X95729873Y-70029009D01*
X95726909Y-70002588D01*
X95725770Y-70000475D01*
X95709161Y-70007442D01*
X95666232Y-70027365D01*
X95599856Y-70058863D01*
X95512905Y-70100553D01*
X95408250Y-70151054D01*
X95288763Y-70208984D01*
X95157315Y-70272960D01*
X95016779Y-70341601D01*
X95006212Y-70346772D01*
X94859896Y-70418362D01*
X94689600Y-70501662D01*
X94500568Y-70594110D01*
X94298041Y-70693142D01*
X94087263Y-70796194D01*
X93873477Y-70900704D01*
X93661924Y-71004107D01*
X93457850Y-71103841D01*
X93302851Y-71179580D01*
X92306852Y-71666225D01*
X92257589Y-71666225D01*
X92282332Y-71632210D01*
X92286525Y-71627630D01*
X92305937Y-71613575D01*
X92348199Y-71588840D01*
X92413938Y-71553110D01*
X92503779Y-71506070D01*
X92618350Y-71447404D01*
X92758277Y-71376798D01*
X92924186Y-71293935D01*
X93116703Y-71198501D01*
X93336456Y-71090180D01*
X93584070Y-70968657D01*
X93860172Y-70833616D01*
X93982454Y-70773927D01*
X94200572Y-70667639D01*
X94411129Y-70565279D01*
X94612211Y-70467764D01*
X94801905Y-70376011D01*
X94978298Y-70290938D01*
X95139476Y-70213463D01*
X95283526Y-70144502D01*
X95408536Y-70084973D01*
X95512591Y-70035793D01*
X95593778Y-69997879D01*
X95650185Y-69972149D01*
X95679898Y-69959520D01*
X95683413Y-69958404D01*
X95722615Y-69956365D01*
X95751994Y-69974222D01*
X95768087Y-69992852D01*
X95778802Y-70007746D01*
X95787069Y-70024568D01*
X95793204Y-70047464D01*
X95797524Y-70080579D01*
X95800347Y-70128062D01*
X95801989Y-70194059D01*
X95802768Y-70282715D01*
X95803000Y-70398178D01*
X95803011Y-70449718D01*
X95802809Y-70582153D01*
X95803144Y-70684979D01*
X95805428Y-70761097D01*
X95811073Y-70813408D01*
X95821489Y-70844814D01*
X95838088Y-70858216D01*
X95862281Y-70856516D01*
X95895481Y-70842614D01*
X95939098Y-70819413D01*
X95973753Y-70800692D01*
X96087582Y-70740227D01*
X96091826Y-70060880D01*
X96092724Y-69888681D01*
X96093028Y-69746428D01*
X96092674Y-69631551D01*
X96091598Y-69541476D01*
X96089737Y-69473634D01*
X96087028Y-69425452D01*
X96083407Y-69394359D01*
X96078810Y-69377784D01*
X96074868Y-69373397D01*
X96057898Y-69379429D01*
X96013538Y-69399020D01*
X95943555Y-69431318D01*
X95849716Y-69475472D01*
X95733786Y-69530631D01*
X95597532Y-69595943D01*
X95442720Y-69670557D01*
X95271116Y-69753622D01*
X95084488Y-69844286D01*
X94884600Y-69941698D01*
X94673220Y-70045006D01*
X94452114Y-70153360D01*
X94223048Y-70265908D01*
X94218379Y-70268205D01*
X93951950Y-70399107D01*
X93701579Y-70521759D01*
X93468437Y-70635600D01*
X93253693Y-70740069D01*
X93058519Y-70834603D01*
X92884085Y-70918641D01*
X92731561Y-70991621D01*
X92602116Y-71052981D01*
X92496923Y-71102160D01*
X92417150Y-71138595D01*
X92363969Y-71161726D01*
X92338549Y-71170990D01*
X92337216Y-71171149D01*
X92300387Y-71165994D01*
X92273900Y-71147860D01*
X92256444Y-71112743D01*
X92246711Y-71056640D01*
X92243391Y-70975545D01*
X92244529Y-70887788D01*
X92247419Y-70800870D01*
X92251322Y-70740318D01*
X92257228Y-70699976D01*
X92266125Y-70673688D01*
X92279002Y-70655297D01*
X92282460Y-70651708D01*
X92300757Y-70640743D01*
X92346271Y-70616516D01*
X92416985Y-70580021D01*
X92510886Y-70532249D01*
X92625956Y-70474193D01*
X92760181Y-70406846D01*
X92911544Y-70331199D01*
X93078031Y-70248246D01*
X93257625Y-70158980D01*
X93448310Y-70064391D01*
X93648073Y-69965474D01*
X93854895Y-69863220D01*
X94066763Y-69758622D01*
X94281661Y-69652673D01*
X94497572Y-69546364D01*
X94712481Y-69440689D01*
X94924373Y-69336640D01*
X95131232Y-69235209D01*
X95331042Y-69137389D01*
X95521788Y-69044173D01*
X95701455Y-68956552D01*
X95868025Y-68875520D01*
X96019485Y-68802068D01*
X96153818Y-68737190D01*
X96269009Y-68681878D01*
X96363042Y-68637124D01*
X96433901Y-68603921D01*
X96479571Y-68583261D01*
X96497540Y-68576198D01*
X96548847Y-68578669D01*
G37*
G36*
X96847948Y-68564500D02*
G01*
X96896959Y-68565952D01*
X96949915Y-68566852D01*
X97016405Y-68567309D01*
X97103907Y-68567434D01*
X97192958Y-68567304D01*
X97259078Y-68566838D01*
X97311858Y-68565929D01*
X97359866Y-68564500D01*
X97402685Y-68564633D01*
X97434553Y-68571200D01*
X97457081Y-68588310D01*
X97471879Y-68620071D01*
X97480557Y-68670589D01*
X97484723Y-68743973D01*
X97485990Y-68844331D01*
X97486045Y-68886450D01*
X97485558Y-68994593D01*
X97483003Y-69074723D01*
X97476737Y-69131346D01*
X97465119Y-69168969D01*
X97446507Y-69192099D01*
X97429131Y-69200480D01*
X97419259Y-69205241D01*
X97381734Y-69212902D01*
X97366324Y-69215062D01*
X97324849Y-69222289D01*
X97301169Y-69229639D01*
X97299041Y-69231861D01*
X97309200Y-69246801D01*
X97335946Y-69278839D01*
X97373679Y-69321295D01*
X97377102Y-69325047D01*
X97420259Y-69378605D01*
X97455827Y-69434056D01*
X97474670Y-69475565D01*
X97492364Y-69588329D01*
X97479237Y-69698537D01*
X97436867Y-69800826D01*
X97366833Y-69889830D01*
X97347605Y-69907321D01*
X97309618Y-69941632D01*
X97296506Y-69962849D01*
X97310395Y-69976060D01*
X97353417Y-69986352D01*
X97382779Y-69991375D01*
X97436633Y-70006883D01*
X97468272Y-70036789D01*
X97486528Y-70085911D01*
X97491357Y-70156890D01*
X97468699Y-70228749D01*
X97417033Y-70305813D01*
X97403495Y-70321761D01*
X97329143Y-70406757D01*
X97375072Y-70423558D01*
X97415193Y-70438142D01*
X97441571Y-70447591D01*
X97468857Y-70472763D01*
X97484637Y-70518422D01*
X97488448Y-70574465D01*
X97479828Y-70630790D01*
X97458315Y-70677294D01*
X97452415Y-70684537D01*
X97436053Y-70706919D01*
X97438309Y-70727253D01*
X97460315Y-70758479D01*
X97471656Y-70774309D01*
X97480176Y-70792081D01*
X97486235Y-70816308D01*
X97490193Y-70851500D01*
X97492407Y-70902172D01*
X97493237Y-70972833D01*
X97493043Y-71067997D01*
X97492415Y-71161736D01*
X97490997Y-71287364D01*
X97488699Y-71384240D01*
X97485275Y-71456128D01*
X97480478Y-71506792D01*
X97474065Y-71539997D01*
X97466565Y-71558297D01*
X97453936Y-71585015D01*
X97454819Y-71611920D01*
X97470416Y-71651422D01*
X97476921Y-71665063D01*
X97500787Y-71719735D01*
X97508193Y-71760191D01*
X97499241Y-71800207D01*
X97478243Y-71845345D01*
X97458670Y-71895229D01*
X97460136Y-71925300D01*
X97461208Y-71926758D01*
X97467665Y-71949087D01*
X97474596Y-71997248D01*
X97481245Y-72064573D01*
X97486854Y-72144395D01*
X97487745Y-72160542D01*
X97492086Y-72248546D01*
X97493826Y-72310463D01*
X97492385Y-72352666D01*
X97487180Y-72381526D01*
X97477630Y-72403417D01*
X97463700Y-72423972D01*
X97441413Y-72458107D01*
X97438490Y-72481921D01*
X97452711Y-72509177D01*
X97471245Y-72554072D01*
X97477337Y-72594628D01*
X97478629Y-72633470D01*
X97481887Y-72693305D01*
X97486468Y-72762708D01*
X97487686Y-72779412D01*
X97490824Y-72876445D01*
X97484819Y-72952599D01*
X97478741Y-72979797D01*
X97468166Y-73026158D01*
X97471992Y-73055339D01*
X97480972Y-73069225D01*
X97488914Y-73094868D01*
X97495458Y-73147321D01*
X97500475Y-73220894D01*
X97503835Y-73309900D01*
X97505408Y-73408650D01*
X97505064Y-73511455D01*
X97502673Y-73612628D01*
X97498104Y-73706479D01*
X97496168Y-73733945D01*
X97486302Y-73818371D01*
X97470710Y-73874597D01*
X97447370Y-73906733D01*
X97445392Y-73907459D01*
X97418968Y-73917162D01*
X97414261Y-73918890D01*
X97405062Y-73919292D01*
X97378563Y-73911077D01*
X97331355Y-73888950D01*
X97270017Y-73856692D01*
X97201128Y-73818081D01*
X97131270Y-73776897D01*
X97067021Y-73736918D01*
X97014963Y-73701925D01*
X96982846Y-73676792D01*
X96945960Y-73650601D01*
X96896562Y-73624441D01*
X96884603Y-73619242D01*
X96863327Y-73607809D01*
X96990392Y-73607809D01*
X97003548Y-73618994D01*
X97038894Y-73643034D01*
X97090569Y-73676337D01*
X97152707Y-73715308D01*
X97219447Y-73756353D01*
X97284923Y-73795878D01*
X97343273Y-73830288D01*
X97388633Y-73855990D01*
X97415139Y-73869389D01*
X97418968Y-73870509D01*
X97424579Y-73855814D01*
X97428270Y-73817972D01*
X97429131Y-73782712D01*
X97429131Y-73694916D01*
X97282115Y-73603543D01*
X97135099Y-73512171D01*
X97062589Y-73554665D01*
X97021612Y-73580593D01*
X96995470Y-73600817D01*
X96990392Y-73607809D01*
X96863327Y-73607809D01*
X96810306Y-73579318D01*
X96763704Y-73533835D01*
X96745883Y-73485652D01*
X96746614Y-73482738D01*
X96791751Y-73482738D01*
X96807484Y-73501939D01*
X96848939Y-73530502D01*
X96850582Y-73531527D01*
X96924240Y-73577373D01*
X97085388Y-73480023D01*
X97150666Y-73441488D01*
X97206568Y-73410160D01*
X97246832Y-73389441D01*
X97264658Y-73382672D01*
X97276038Y-73397630D01*
X97282352Y-73437628D01*
X97283072Y-73459913D01*
X97284838Y-73504129D01*
X97294120Y-73533219D01*
X97317526Y-73557766D01*
X97361664Y-73588352D01*
X97364378Y-73590128D01*
X97445392Y-73643102D01*
X97445392Y-73356535D01*
X97445392Y-73069969D01*
X97408805Y-73093709D01*
X97383866Y-73109281D01*
X97336030Y-73138622D01*
X97270252Y-73178713D01*
X97191488Y-73226533D01*
X97104694Y-73279063D01*
X97095776Y-73284452D01*
X97009695Y-73336665D01*
X96932371Y-73383962D01*
X96868435Y-73423478D01*
X96822517Y-73452350D01*
X96799249Y-73467713D01*
X96798130Y-73468568D01*
X96791751Y-73482738D01*
X96746614Y-73482738D01*
X96757929Y-73437628D01*
X96799009Y-73394025D01*
X96831272Y-73372151D01*
X96885261Y-73337700D01*
X96954682Y-73294600D01*
X97033241Y-73246782D01*
X97075450Y-73221453D01*
X97151149Y-73175355D01*
X97215884Y-73134206D01*
X97264937Y-73101145D01*
X97293589Y-73079310D01*
X97299041Y-73072708D01*
X97283611Y-73066920D01*
X97240625Y-73062235D01*
X97175042Y-73058986D01*
X97103907Y-73057719D01*
X97091818Y-73057504D01*
X97070862Y-73057448D01*
X96955792Y-73055890D01*
X96869044Y-73050467D01*
X96806535Y-73040052D01*
X96764180Y-73023522D01*
X96737896Y-72999751D01*
X96723599Y-72967615D01*
X96722100Y-72961389D01*
X96717618Y-72897407D01*
X96729699Y-72838148D01*
X96734865Y-72829792D01*
X96778683Y-72829792D01*
X96778683Y-72911098D01*
X96778683Y-72992404D01*
X97103907Y-72992404D01*
X97429131Y-72992404D01*
X97429131Y-72818105D01*
X97429131Y-72643806D01*
X97335158Y-72736799D01*
X97266519Y-72804721D01*
X97241184Y-72829792D01*
X97009934Y-72829792D01*
X96778683Y-72829792D01*
X96734865Y-72829792D01*
X96755669Y-72796143D01*
X96757751Y-72794327D01*
X96789092Y-72782873D01*
X96852809Y-72773713D01*
X96948838Y-72766854D01*
X96996559Y-72764747D01*
X97209605Y-72756616D01*
X97211037Y-72650918D01*
X97212795Y-72590500D01*
X97215930Y-72539515D01*
X97216223Y-72537090D01*
X97266519Y-72537090D01*
X97266519Y-72629981D01*
X97266519Y-72722871D01*
X97347978Y-72642637D01*
X97396750Y-72590723D01*
X97421255Y-72555304D01*
X97420830Y-72537556D01*
X97408398Y-72535870D01*
X97385872Y-72536647D01*
X97344499Y-72537066D01*
X97331564Y-72537090D01*
X97266519Y-72537090D01*
X97216223Y-72537090D01*
X97219167Y-72512698D01*
X97220140Y-72499667D01*
X97213537Y-72490387D01*
X97194475Y-72483943D01*
X97158070Y-72479416D01*
X97103907Y-72476158D01*
X97099441Y-72475889D01*
X97013703Y-72472444D01*
X97002812Y-72472045D01*
X96900979Y-72467415D01*
X96827185Y-72460522D01*
X96776944Y-72449033D01*
X96745772Y-72430610D01*
X96729186Y-72402920D01*
X96722701Y-72363627D01*
X96721769Y-72325694D01*
X96723899Y-72274775D01*
X96731736Y-72244388D01*
X96778683Y-72244388D01*
X96778683Y-72325694D01*
X96778683Y-72407000D01*
X97103907Y-72407000D01*
X97429131Y-72407000D01*
X97429131Y-72240878D01*
X97429131Y-72074757D01*
X97343248Y-72159572D01*
X97266519Y-72235349D01*
X97257366Y-72244388D01*
X97018024Y-72244388D01*
X96778683Y-72244388D01*
X96731736Y-72244388D01*
X96733362Y-72238082D01*
X96754761Y-72213121D01*
X96792704Y-72197395D01*
X96851795Y-72188408D01*
X96936641Y-72183665D01*
X96986548Y-72182196D01*
X97065493Y-72179383D01*
X97132313Y-72175497D01*
X97180468Y-72171028D01*
X97203422Y-72166463D01*
X97204171Y-72165935D01*
X97210069Y-72145415D01*
X97215696Y-72101310D01*
X97219224Y-72052708D01*
X97266519Y-72052708D01*
X97266519Y-72153729D01*
X97347825Y-72073646D01*
X97388369Y-72030904D01*
X97417503Y-71994834D01*
X97429117Y-71973029D01*
X97429131Y-71972624D01*
X97415012Y-71958533D01*
X97371509Y-71952170D01*
X97347825Y-71951687D01*
X97266519Y-71951687D01*
X97266519Y-72052708D01*
X97219224Y-72052708D01*
X97219961Y-72042550D01*
X97220417Y-72032993D01*
X97225837Y-71911034D01*
X97189890Y-71907826D01*
X97087631Y-71898701D01*
X96987918Y-71890540D01*
X96911791Y-71886268D01*
X96850586Y-71885576D01*
X96795638Y-71888156D01*
X96794170Y-71888268D01*
X96786978Y-71887306D01*
X96741051Y-71881162D01*
X96706989Y-71849293D01*
X96690906Y-71791309D01*
X96689246Y-71756552D01*
X96746161Y-71756552D01*
X96747473Y-71804802D01*
X96754193Y-71828872D01*
X96770499Y-71837083D01*
X96786978Y-71837858D01*
X96934387Y-71837858D01*
X97189890Y-71837858D01*
X97445392Y-71837858D01*
X97445392Y-71756552D01*
X97445392Y-71675246D01*
X97416630Y-71675246D01*
X97269973Y-71675246D01*
X97094554Y-71675246D01*
X97014470Y-71756552D01*
X96934387Y-71837858D01*
X96786978Y-71837858D01*
X96816259Y-71827795D01*
X96857654Y-71802219D01*
X96902546Y-71768049D01*
X96942317Y-71732206D01*
X96968348Y-71701607D01*
X96973817Y-71687846D01*
X96958932Y-71681636D01*
X96919759Y-71677136D01*
X96864522Y-71675256D01*
X96859989Y-71675246D01*
X96746161Y-71675246D01*
X96746161Y-71756552D01*
X96689246Y-71756552D01*
X96691387Y-71706288D01*
X96700596Y-71669399D01*
X96721051Y-71644156D01*
X96756933Y-71628832D01*
X96812418Y-71621700D01*
X96891688Y-71621031D01*
X96998920Y-71625097D01*
X97006340Y-71625454D01*
X97058366Y-71625603D01*
X97122289Y-71622454D01*
X97189284Y-71616885D01*
X97250527Y-71609772D01*
X97297193Y-71601992D01*
X97320459Y-71594424D01*
X97320715Y-71594199D01*
X97313403Y-71581251D01*
X97283000Y-71556260D01*
X97234730Y-71523174D01*
X97190625Y-71495832D01*
X97122751Y-71454507D01*
X97058997Y-71414213D01*
X97008779Y-71380966D01*
X96990392Y-71367902D01*
X96941408Y-71335104D01*
X96881305Y-71299822D01*
X96859947Y-71288502D01*
X96972557Y-71288502D01*
X97172387Y-71409997D01*
X97246272Y-71454799D01*
X97311995Y-71494431D01*
X97363685Y-71525368D01*
X97395468Y-71544085D01*
X97400674Y-71547027D01*
X97416630Y-71552517D01*
X97425196Y-71542599D01*
X97428609Y-71511097D01*
X97429131Y-71468423D01*
X97429131Y-71374284D01*
X97418640Y-71367981D01*
X97278410Y-71283725D01*
X97127689Y-71193165D01*
X97050123Y-71240833D01*
X96972557Y-71288502D01*
X96859947Y-71288502D01*
X96852583Y-71284599D01*
X96802214Y-71253730D01*
X96761924Y-71219502D01*
X96747539Y-71201102D01*
X96732622Y-71166748D01*
X96733465Y-71162163D01*
X96763610Y-71162163D01*
X96836143Y-71207309D01*
X96878820Y-71232775D01*
X96909638Y-71249147D01*
X96918716Y-71252455D01*
X96935826Y-71244523D01*
X96974722Y-71222979D01*
X97029459Y-71191202D01*
X97088102Y-71156193D01*
X97151859Y-71118930D01*
X97205208Y-71090104D01*
X97242282Y-71072730D01*
X97256984Y-71069467D01*
X97262993Y-71090374D01*
X97266317Y-71130862D01*
X97266548Y-71145402D01*
X97269288Y-71186821D01*
X97282359Y-71214746D01*
X97313108Y-71240704D01*
X97337363Y-71256520D01*
X97379541Y-71281979D01*
X97409985Y-71298175D01*
X97418640Y-71301238D01*
X97422128Y-71285870D01*
X97425126Y-71243335D01*
X97427423Y-71178986D01*
X97428811Y-71098179D01*
X97429131Y-71032409D01*
X97429131Y-70763580D01*
X97391818Y-70784426D01*
X97367036Y-70798888D01*
X97319181Y-70827346D01*
X97253005Y-70866954D01*
X97173257Y-70914868D01*
X97084688Y-70968244D01*
X97059058Y-70983717D01*
X96763610Y-71162163D01*
X96733465Y-71162163D01*
X96737711Y-71139081D01*
X96749445Y-71119348D01*
X96771004Y-71099089D01*
X96815943Y-71065743D01*
X96879503Y-71022531D01*
X96956927Y-70972674D01*
X97043457Y-70919396D01*
X97054925Y-70912507D01*
X97163336Y-70846308D01*
X97243448Y-70794545D01*
X97295086Y-70757339D01*
X97318072Y-70734814D01*
X97318486Y-70728775D01*
X97296786Y-70722772D01*
X97248131Y-70717743D01*
X97246804Y-70717673D01*
X97178083Y-70714054D01*
X97092203Y-70712070D01*
X97060823Y-70711850D01*
X96956945Y-70710857D01*
X96880578Y-70707968D01*
X96880105Y-70707917D01*
X96826722Y-70702207D01*
X96790379Y-70692598D01*
X96766548Y-70678168D01*
X96750233Y-70657939D01*
X96745961Y-70650418D01*
X96737920Y-70625939D01*
X96741861Y-70598767D01*
X96760445Y-70564602D01*
X96796330Y-70519148D01*
X96852175Y-70458105D01*
X96888064Y-70420756D01*
X96935985Y-70369475D01*
X96972299Y-70326934D01*
X96992908Y-70298187D01*
X96995322Y-70288513D01*
X96971226Y-70279838D01*
X96931452Y-70269783D01*
X96929913Y-70269451D01*
X96881998Y-70248159D01*
X96828702Y-70208416D01*
X96779842Y-70159434D01*
X96745235Y-70110426D01*
X96735994Y-70087457D01*
X96738770Y-70049126D01*
X96755514Y-70049126D01*
X96835597Y-70130432D01*
X96915681Y-70211738D01*
X97042316Y-70211738D01*
X97101838Y-70213208D01*
X97146336Y-70217109D01*
X97168012Y-70222673D01*
X97168952Y-70224188D01*
X97157987Y-70239229D01*
X97127616Y-70273056D01*
X97081623Y-70321653D01*
X97023792Y-70381003D01*
X96973817Y-70431264D01*
X96909475Y-70496139D01*
X96854070Y-70553337D01*
X96811387Y-70598843D01*
X96785210Y-70628641D01*
X96778683Y-70638340D01*
X96793486Y-70644797D01*
X96832087Y-70649297D01*
X96880105Y-70650790D01*
X96981527Y-70650790D01*
X97064477Y-70650790D01*
X97246804Y-70650790D01*
X97429131Y-70650790D01*
X97429131Y-70569484D01*
X97429131Y-70488178D01*
X97326887Y-70488178D01*
X97272449Y-70489153D01*
X97235661Y-70495477D01*
X97205089Y-70512250D01*
X97169296Y-70544572D01*
X97144560Y-70569484D01*
X97064477Y-70650790D01*
X96981527Y-70650790D01*
X97205329Y-70427417D01*
X97429131Y-70204043D01*
X97429131Y-70126584D01*
X97429131Y-70049126D01*
X97117579Y-70049126D01*
X97092322Y-70049126D01*
X96755514Y-70049126D01*
X96738770Y-70049126D01*
X96739219Y-70042925D01*
X96768832Y-70007800D01*
X96818975Y-69987271D01*
X96852700Y-69984081D01*
X96898645Y-69978613D01*
X96915839Y-69964077D01*
X96914473Y-69961890D01*
X96902841Y-69943270D01*
X96880847Y-69929404D01*
X96864124Y-69916719D01*
X96953059Y-69916719D01*
X97013238Y-69928008D01*
X97117579Y-69933426D01*
X97212499Y-69911883D01*
X97294575Y-69867414D01*
X97360382Y-69804055D01*
X97406495Y-69725843D01*
X97429492Y-69636813D01*
X97425946Y-69541002D01*
X97403963Y-69467487D01*
X97352487Y-69380910D01*
X97279189Y-69317546D01*
X97189278Y-69277683D01*
X97167776Y-69273383D01*
X97156929Y-69282490D01*
X97153115Y-69312068D01*
X97152691Y-69349027D01*
X97155469Y-69402269D01*
X97167721Y-69437627D01*
X97195324Y-69469543D01*
X97205540Y-69478879D01*
X97239549Y-69514561D01*
X97254875Y-69550712D01*
X97258388Y-69601943D01*
X97254707Y-69654016D01*
X97239060Y-69689991D01*
X97205283Y-69725236D01*
X97166046Y-69754685D01*
X97131717Y-69771314D01*
X97123297Y-69772685D01*
X97097173Y-69783707D01*
X97089565Y-69789354D01*
X97058613Y-69812328D01*
X97023738Y-69844702D01*
X96953059Y-69916719D01*
X96864124Y-69916719D01*
X96809310Y-69875141D01*
X96751909Y-69798039D01*
X96713257Y-69706354D01*
X96700648Y-69625526D01*
X96764939Y-69625526D01*
X96782082Y-69716717D01*
X96820406Y-69797402D01*
X96872390Y-69854445D01*
X96914473Y-69887548D01*
X96974175Y-69829250D01*
X97033877Y-69770953D01*
X96979456Y-69716531D01*
X96942120Y-69671433D01*
X96926658Y-69627742D01*
X96925034Y-69601943D01*
X96925165Y-69600997D01*
X96990079Y-69600997D01*
X97002065Y-69634854D01*
X97030784Y-69671559D01*
X97065371Y-69699468D01*
X97089565Y-69707640D01*
X97123906Y-69695709D01*
X97161554Y-69666938D01*
X97191139Y-69631868D01*
X97201474Y-69603929D01*
X97191608Y-69576884D01*
X97167129Y-69539638D01*
X97159376Y-69530015D01*
X97127584Y-69498131D01*
X97100786Y-69480948D01*
X97095776Y-69479984D01*
X97087646Y-69484087D01*
X97071537Y-69492216D01*
X97040017Y-69521844D01*
X97010477Y-69558261D01*
X96992182Y-69590864D01*
X96990079Y-69600997D01*
X96925165Y-69600997D01*
X96931510Y-69555318D01*
X96955306Y-69514020D01*
X96981948Y-69484862D01*
X97017586Y-69444551D01*
X97034272Y-69407407D01*
X97038809Y-69356975D01*
X97038862Y-69347172D01*
X97037754Y-69299617D01*
X97031935Y-69277385D01*
X97017665Y-69273292D01*
X97002274Y-69276902D01*
X96934632Y-69308802D01*
X96867822Y-69360940D01*
X96814065Y-69423092D01*
X96800258Y-69445954D01*
X96770492Y-69532411D01*
X96764939Y-69625526D01*
X96700648Y-69625526D01*
X96697968Y-69608343D01*
X96697893Y-69601943D01*
X96712427Y-69503593D01*
X96753118Y-69407062D01*
X96814899Y-69323268D01*
X96837086Y-69301985D01*
X96871800Y-69269029D01*
X96892265Y-69244711D01*
X96894839Y-69237058D01*
X96892884Y-69236066D01*
X97071385Y-69236066D01*
X97083759Y-69251854D01*
X97087646Y-69252327D01*
X97103434Y-69239952D01*
X97103907Y-69236066D01*
X97091533Y-69220277D01*
X97087646Y-69219804D01*
X97071857Y-69232179D01*
X97071385Y-69236066D01*
X96892884Y-69236066D01*
X96887975Y-69233575D01*
X96876826Y-69227918D01*
X96838621Y-69215935D01*
X96822035Y-69211674D01*
X96783941Y-69200004D01*
X96755883Y-69183093D01*
X96736471Y-69156358D01*
X96724313Y-69115218D01*
X96718021Y-69055091D01*
X96716203Y-68971396D01*
X96717126Y-68886450D01*
X96778683Y-68886450D01*
X96778683Y-69154760D01*
X96887975Y-69154760D01*
X96997266Y-69154760D01*
X96998411Y-69153627D01*
X97063254Y-69153627D01*
X97246193Y-69154193D01*
X97429131Y-69154760D01*
X97429131Y-68886450D01*
X97429131Y-68618140D01*
X97347825Y-68618140D01*
X97266519Y-68618140D01*
X97266519Y-68789289D01*
X97266519Y-68960439D01*
X97164887Y-69057033D01*
X97063254Y-69153627D01*
X96998411Y-69153627D01*
X97091240Y-69061767D01*
X97185213Y-68968774D01*
X97185213Y-68793457D01*
X97185213Y-68618140D01*
X97103907Y-68618140D01*
X97022601Y-68618140D01*
X97022601Y-68759145D01*
X97020957Y-68835119D01*
X97015302Y-68885581D01*
X97004551Y-68917406D01*
X96995689Y-68929888D01*
X96969946Y-68952800D01*
X96955036Y-68959625D01*
X96949395Y-68944486D01*
X96944877Y-68903547D01*
X96942021Y-68843524D01*
X96941295Y-68788882D01*
X96941295Y-68618140D01*
X96859989Y-68618140D01*
X96778683Y-68618140D01*
X96778683Y-68886450D01*
X96717126Y-68886450D01*
X96717341Y-68866659D01*
X96720029Y-68759711D01*
X96724927Y-68681060D01*
X96733859Y-68626482D01*
X96748652Y-68591756D01*
X96771131Y-68572657D01*
X96803120Y-68564962D01*
X96846447Y-68564448D01*
X96847948Y-68564500D01*
G37*
D14*
%TO.C,Y1*%
X91200000Y-58135200D02*
X91200000Y-61435200D01*
X94000000Y-58135200D02*
X91200000Y-58135200D01*
%TO.C,C55*%
X92752836Y-63015000D02*
X92537164Y-63015000D01*
X92752836Y-63735000D02*
X92537164Y-63735000D01*
%TO.C,C1*%
X92492164Y-57190000D02*
X92707836Y-57190000D01*
X92492164Y-57910000D02*
X92707836Y-57910000D01*
%TD*%
D22*
X86050200Y-83149200D03*
X88590200Y-83149200D03*
X86050200Y-85689200D03*
X88590200Y-85689200D03*
X86050200Y-88229200D03*
X88590200Y-88229200D03*
X118875000Y-59520000D03*
X118875000Y-53740000D03*
D23*
X118375000Y-60950000D03*
D24*
X122555000Y-60950000D03*
D23*
X118375000Y-52310000D03*
D24*
X122555000Y-52310000D03*
D22*
X86000000Y-78250000D03*
X101500000Y-33350000D03*
X106500000Y-33350000D03*
X122000000Y-42250000D03*
X95095000Y-42985000D03*
X95095000Y-40445000D03*
X95095000Y-37905000D03*
X97635000Y-42985000D03*
X97635000Y-40445000D03*
X97635000Y-37905000D03*
X100175000Y-42985000D03*
X100175000Y-40445000D03*
X100175000Y-37905000D03*
X102715000Y-42985000D03*
X102715000Y-40445000D03*
X102715000Y-37905000D03*
X105255000Y-42985000D03*
X105255000Y-40445000D03*
X105255000Y-37905000D03*
X107795000Y-42985000D03*
X107795000Y-40445000D03*
X107795000Y-37905000D03*
X89900000Y-38350000D03*
X89900000Y-33350000D03*
X86000000Y-42250000D03*
D25*
X110820200Y-77858258D03*
X111509629Y-77168829D03*
X112199058Y-76479400D03*
X110130771Y-77168829D03*
X110820200Y-76479400D03*
X111509629Y-75789971D03*
X109441342Y-76479400D03*
X110130771Y-75789971D03*
X110820200Y-75100542D03*
D22*
X122000000Y-78250000D03*
X118060000Y-38380000D03*
X118060000Y-33380000D03*
X112875000Y-42985000D03*
X110335000Y-42985000D03*
X112875000Y-40445000D03*
X110335000Y-40445000D03*
X112875000Y-37905000D03*
X110335000Y-37905000D03*
M02*
