M48
; DRILL file {KiCad 8.0.5} date 2024-11-08T19:29:57+0800
; FORMAT={-:-/ absolute / metric / decimal}
; #@! TF.CreationDate,2024-11-08T19:29:57+08:00
; #@! TF.GenerationSoftware,Kicad,Pcbnew,8.0.5
; #@! TF.FileFunction,Plated,1,4,PTH
FMAT,2
METRIC
; #@! TA.AperFunction,Plated,PTH,ComponentDrill
T1C0.200
; #@! TA.AperFunction,Plated,PTH,ViaDrill
T2C0.300
; #@! TA.AperFunction,Plated,PTH,ComponentDrill
T3C0.600
; #@! TA.AperFunction,Plated,PTH,ComponentDrill
T4C1.000
; #@! TA.AperFunction,Plated,PTH,ComponentDrill
T5C1.020
; #@! TA.AperFunction,Plated,PTH,ComponentDrill
T6C2.200
; #@! TA.AperFunction,Plated,PTH,ComponentDrill
T7C2.700
%
G90
G05
T1
X109.441Y-76.479
X110.131Y-75.79
X110.131Y-77.169
X110.82Y-75.101
X110.82Y-76.479
X110.82Y-77.858
X111.51Y-75.79
X111.51Y-77.169
X112.199Y-76.479
T2
X85.538Y-37.273
X85.585Y-34.062
X85.6Y-35.625
X85.6Y-39.062
X85.682Y-32.273
X85.825Y-81.025
X86.0Y-45.125
X86.0Y-46.375
X86.0Y-47.575
X86.0Y-48.775
X86.0Y-49.975
X86.0Y-51.175
X86.0Y-52.65
X86.0Y-53.85
X86.0Y-55.05
X86.0Y-56.25
X86.0Y-57.45
X86.0Y-58.675
X86.0Y-59.875
X86.0Y-61.075
X86.0Y-62.275
X86.0Y-63.475
X86.0Y-64.75
X86.0Y-65.95
X86.0Y-67.15
X86.0Y-68.35
X86.0Y-69.55
X86.0Y-70.65
X86.0Y-71.85
X86.0Y-73.05
X86.0Y-74.25
X86.0Y-75.45
X87.475Y-31.95
X87.9Y-64.475
X88.025Y-56.325
X88.05Y-58.325
X88.075Y-45.225
X88.3Y-43.375
X88.393Y-42.446
X88.515Y-62.05
X88.65Y-46.95
X88.65Y-48.225
X89.049Y-51.379
X89.049Y-52.399
X89.05Y-68.18
X89.05Y-69.2
X89.051Y-72.288
X89.051Y-73.538
X89.15Y-45.15
X89.15Y-49.975
X89.2Y-81.425
X89.535Y-62.05
X89.562Y-41.137
X90.263Y-41.137
X90.452Y-54.223
X90.611Y-45.15
X90.695Y-62.575
X90.77Y-71.025
X91.206Y-41.936
X92.0Y-45.925
X92.0Y-48.225
X92.025Y-35.1
X92.1Y-80.175
X92.1Y-81.375
X92.1Y-82.575
X92.1Y-83.775
X92.1Y-84.975
X92.1Y-86.239
X92.175Y-44.25
X92.186Y-42.35
X92.3Y-54.975
X93.909Y-64.475
X93.925Y-87.975
X93.975Y-63.225
X94.0Y-62.375
X94.131Y-45.625
X94.131Y-47.075
X94.25Y-71.85
X94.45Y-76.95
X94.6Y-52.353
X94.75Y-87.988
X94.9Y-69.18
X95.003Y-60.815
X95.175Y-77.825
X95.437Y-86.95
X95.875Y-76.975
X95.915Y-49.522
X96.237Y-86.95
X96.554Y-45.425
X96.554Y-50.575
X97.037Y-86.959
X97.15Y-31.559
X97.439Y-61.75
X97.55Y-55.623
X97.6Y-60.496
X97.631Y-56.877
X97.651Y-66.354
X97.7Y-59.248
X97.818Y-63.785
X97.837Y-64.677
X97.941Y-65.609
X98.262Y-45.425
X98.262Y-50.499
X98.262Y-54.107
X98.355Y-55.646
X98.675Y-59.3
X98.706Y-60.225
X98.825Y-48.825
X98.84Y-69.61
X98.845Y-72.875
X99.16Y-45.425
X99.275Y-57.15
X99.379Y-66.543
X99.425Y-55.025
X99.65Y-64.25
X99.727Y-69.663
X99.755Y-51.225
X99.758Y-53.851
X99.875Y-73.65
X99.95Y-58.025
X99.975Y-60.3
X100.0Y-61.475
X100.005Y-59.501
X100.025Y-65.175
X100.403Y-45.375
X100.479Y-56.497
X100.529Y-69.654
X100.577Y-51.224
X100.825Y-64.675
X100.85Y-65.65
X100.95Y-72.75
X100.95Y-73.675
X101.25Y-62.925
X101.273Y-50.702
X101.289Y-56.452
X101.329Y-69.646
X101.525Y-66.575
X101.95Y-83.725
X101.95Y-84.925
X101.95Y-86.125
X101.95Y-87.325
X101.95Y-88.525
X102.05Y-73.675
X102.543Y-66.575
X102.675Y-48.078
X102.675Y-69.666
X102.9Y-86.239
X102.997Y-54.051
X103.474Y-69.705
X103.6Y-47.925
X103.643Y-54.523
X103.875Y-83.725
X103.875Y-84.925
X103.875Y-86.125
X103.875Y-87.325
X103.875Y-88.525
X104.075Y-80.2
X104.271Y-54.026
X104.273Y-69.671
X104.4Y-50.705
X104.775Y-65.1
X105.004Y-69.998
X105.2Y-56.025
X105.512Y-66.588
X105.525Y-57.55
X105.525Y-61.65
X105.613Y-69.255
X105.615Y-81.244
X105.615Y-82.644
X105.625Y-79.948
X106.044Y-54.481
X106.255Y-72.957
X106.6Y-61.35
X106.65Y-56.25
X106.675Y-62.575
X106.725Y-76.725
X106.75Y-46.03
X106.882Y-72.382
X107.125Y-57.625
X107.125Y-65.0
X107.237Y-70.743
X107.555Y-76.027
X107.575Y-63.6
X107.803Y-70.177
X107.9Y-62.5
X107.993Y-66.6
X108.1Y-56.9
X108.25Y-54.552
X108.275Y-58.475
X108.427Y-46.05
X108.478Y-76.877
X108.525Y-47.925
X108.829Y-47.331
X108.9Y-48.45
X108.933Y-74.059
X109.175Y-59.95
X109.2Y-47.925
X109.244Y-65.454
X109.247Y-66.254
X109.374Y-85.586
X109.374Y-88.341
X109.376Y-84.557
X109.502Y-63.636
X109.55Y-76.479
X109.575Y-73.285
X109.658Y-57.626
X109.759Y-89.32
X109.875Y-47.875
X110.025Y-70.825
X110.272Y-62.334
X110.275Y-61.525
X110.275Y-69.625
X110.302Y-63.623
X110.31Y-82.169
X110.31Y-83.134
X110.317Y-79.761
X110.33Y-54.81
X110.33Y-55.876
X110.4Y-59.25
X110.458Y-57.623
X110.475Y-66.881
X110.598Y-49.873
X110.75Y-31.559
X110.82Y-75.05
X110.82Y-76.479
X110.82Y-77.894
X110.998Y-79.07
X111.075Y-70.075
X111.275Y-69.0
X111.625Y-80.275
X111.85Y-67.025
X111.907Y-73.285
X112.075Y-46.975
X112.075Y-48.825
X112.175Y-76.475
X112.385Y-79.497
X112.588Y-73.924
X112.876Y-78.866
X112.896Y-58.75
X112.916Y-59.75
X112.92Y-64.574
X112.925Y-65.374
X113.07Y-47.687
X113.35Y-54.813
X113.42Y-76.641
X113.55Y-60.748
X113.85Y-49.75
X113.857Y-72.661
X113.928Y-76.133
X113.979Y-73.879
X114.275Y-70.725
X114.325Y-53.569
X114.425Y-61.25
X114.527Y-74.529
X114.529Y-75.329
X114.6Y-64.15
X114.625Y-76.975
X115.386Y-60.569
X115.4Y-85.55
X115.44Y-67.65
X115.44Y-68.95
X115.55Y-82.65
X115.6Y-42.375
X115.875Y-35.175
X115.975Y-72.75
X115.975Y-74.675
X115.975Y-75.725
X116.0Y-73.7
X116.125Y-52.1
X116.125Y-52.8
X116.25Y-49.75
X116.45Y-89.32
X116.46Y-68.9
X116.73Y-65.114
X117.113Y-50.431
X117.275Y-49.75
X117.325Y-67.625
X117.397Y-69.975
X117.397Y-71.275
X117.45Y-89.32
X117.526Y-82.347
X117.825Y-42.0
X117.903Y-62.825
X118.2Y-49.75
X118.417Y-69.95
X118.417Y-71.275
X118.55Y-76.0
X118.67Y-45.275
X118.757Y-73.706
X118.825Y-78.025
X119.353Y-63.025
X119.375Y-80.0
X119.55Y-43.0
X119.625Y-45.725
X120.05Y-44.125
X120.271Y-63.025
X120.65Y-35.15
X120.925Y-32.075
X120.986Y-46.2
X121.061Y-49.674
X121.25Y-48.423
X122.34Y-75.536
X122.34Y-81.745
X122.34Y-89.155
X122.448Y-32.273
X122.51Y-34.062
X122.525Y-39.062
X122.622Y-37.273
X122.9Y-35.6
X122.936Y-45.8
X122.936Y-50.0
X122.941Y-63.195
T4
X86.05Y-83.149
X86.05Y-85.689
X86.05Y-88.229
X88.59Y-83.149
X88.59Y-85.689
X88.59Y-88.229
X110.335Y-37.905
X110.335Y-40.445
X110.335Y-42.985
X112.875Y-37.905
X112.875Y-40.445
X112.875Y-42.985
T5
X95.095Y-37.905
X95.095Y-40.445
X95.095Y-42.985
X97.635Y-37.905
X97.635Y-40.445
X97.635Y-42.985
X100.175Y-37.905
X100.175Y-40.445
X100.175Y-42.985
X102.715Y-37.905
X102.715Y-40.445
X102.715Y-42.985
X105.255Y-37.905
X105.255Y-40.445
X105.255Y-42.985
X107.795Y-37.905
X107.795Y-40.445
X107.795Y-42.985
T6
X86.0Y-42.25
X86.0Y-78.25
X122.0Y-42.25
X122.0Y-78.25
T7
X89.9Y-33.35
X89.9Y-38.35
X101.5Y-33.35
X106.5Y-33.35
X118.06Y-33.38
X118.06Y-38.38
T3
G00X117.825Y-52.31
M15
G01X118.925Y-52.31
M16
G05
G00X117.825Y-60.95
M15
G01X118.925Y-60.95
M16
G05
G00X122.155Y-52.31
M15
G01X122.955Y-52.31
M16
G05
G00X122.155Y-60.95
M15
G01X122.955Y-60.95
M16
G05
M30
