M48
METRIC,TZ
T1C0.200
T2C0.300
T3C0.600
T4C1.000
T5C1.020
T6C2.200
T7C2.700
%
G90
G05
T1
X109441Y-76479
X110131Y-75790
X110131Y-77169
X110820Y-75101
X110820Y-76479
X110820Y-77858
X111510Y-75790
X111510Y-77169
X112199Y-76479
T2
X85538Y-37273
X85585Y-34063
X85600Y-35625
X85600Y-39063
X85682Y-32273
X85825Y-81025
X86000Y-45125
X86000Y-46375
X86000Y-47575
X86000Y-48775
X86000Y-49975
X86000Y-51175
X86000Y-52650
X86000Y-53850
X86000Y-55050
X86000Y-56250
X86000Y-57450
X86000Y-58675
X86000Y-59875
X86000Y-61075
X86000Y-62275
X86000Y-63475
X86000Y-64750
X86000Y-65950
X86000Y-67150
X86000Y-68350
X86000Y-69550
X86000Y-70650
X86000Y-71850
X86000Y-73050
X86000Y-74250
X86000Y-75450
X87475Y-31950
X87900Y-64475
X88025Y-56325
X88050Y-58325
X88075Y-45225
X88300Y-43375
X88393Y-42446
X88515Y-62050
X88650Y-46950
X88650Y-48225
X89049Y-51379
X89049Y-52399
X89050Y-68180
X89050Y-69200
X89051Y-72288
X89051Y-73538
X89150Y-45150
X89150Y-49975
X89200Y-81425
X89535Y-62050
X89562Y-41137
X90263Y-41137
X90452Y-54223
X90611Y-45150
X90695Y-62575
X90770Y-71025
X91206Y-41936
X92000Y-45925
X92000Y-48225
X92025Y-35100
X92100Y-80175
X92100Y-81375
X92100Y-82575
X92100Y-83775
X92100Y-84975
X92100Y-86239
X92175Y-44250
X92186Y-42350
X92300Y-54975
X93909Y-64475
X93925Y-87975
X93975Y-63225
X94000Y-62375
X94131Y-45625
X94131Y-47075
X94250Y-71850
X94450Y-76950
X94600Y-52353
X94750Y-87988
X94900Y-69180
X95003Y-60815
X95175Y-77825
X95437Y-86950
X95875Y-76975
X95915Y-49522
X96237Y-86950
X96554Y-45425
X96554Y-50575
X97037Y-86959
X97150Y-31559
X97439Y-61750
X97550Y-55623
X97600Y-60496
X97631Y-56877
X97651Y-66354
X97700Y-59248
X97818Y-63785
X97837Y-64677
X97941Y-65609
X98262Y-45425
X98262Y-50499
X98262Y-54107
X98355Y-55646
X98675Y-59300
X98706Y-60225
X98825Y-48825
X98840Y-69610
X98845Y-72875
X99160Y-45425
X99275Y-57150
X99379Y-66543
X99425Y-55025
X99650Y-64250
X99727Y-69663
X99755Y-51225
X99758Y-53851
X99875Y-73650
X99950Y-58025
X99975Y-60300
X100000Y-61475
X100005Y-59501
X100025Y-65175
X100403Y-45375
X100479Y-56497
X100529Y-69654
X100577Y-51224
X100825Y-64675
X100850Y-65650
X100950Y-72750
X100950Y-73675
X101250Y-62925
X101273Y-50702
X101289Y-56452
X101329Y-69646
X101525Y-66575
X101950Y-83725
X101950Y-84925
X101950Y-86125
X101950Y-87325
X101950Y-88525
X102050Y-73675
X102543Y-66575
X102675Y-48078
X102675Y-69666
X102900Y-86239
X102997Y-54051
X103474Y-69705
X103600Y-47925
X103643Y-54523
X103875Y-83725
X103875Y-84925
X103875Y-86125
X103875Y-87325
X103875Y-88525
X104075Y-80200
X104271Y-54026
X104273Y-69671
X104400Y-50705
X104775Y-65100
X105004Y-69998
X105200Y-56025
X105512Y-66588
X105525Y-57550
X105525Y-61650
X105613Y-69255
X105615Y-81244
X105615Y-82644
X105625Y-79948
X106044Y-54481
X106255Y-72957
X106600Y-61350
X106650Y-56250
X106675Y-62575
X106725Y-76725
X106750Y-46030
X106882Y-72382
X107125Y-57625
X107125Y-65000
X107237Y-70743
X107555Y-76027
X107575Y-63600
X107803Y-70177
X107900Y-62500
X107993Y-66600
X108100Y-56900
X108250Y-54552
X108275Y-58475
X108427Y-46050
X108478Y-76877
X108525Y-47925
X108829Y-47331
X108900Y-48450
X108933Y-74059
X109175Y-59950
X109200Y-47925
X109244Y-65454
X109247Y-66254
X109374Y-85586
X109374Y-88341
X109376Y-84557
X109502Y-63636
X109550Y-76479
X109575Y-73285
X109658Y-57626
X109759Y-89320
X109875Y-47875
X110025Y-70825
X110272Y-62334
X110275Y-61525
X110275Y-69625
X110302Y-63623
X110310Y-82169
X110310Y-83134
X110317Y-79761
X110330Y-54810
X110330Y-55876
X110400Y-59250
X110458Y-57623
X110475Y-66881
X110598Y-49873
X110750Y-31560
X110820Y-75050
X110820Y-76479
X110820Y-77894
X110998Y-79070
X111075Y-70075
X111275Y-69000
X111625Y-80275
X111850Y-67025
X111907Y-73285
X112075Y-46975
X112075Y-48825
X112175Y-76475
X112385Y-79497
X112588Y-73924
X112876Y-78866
X112896Y-58750
X112916Y-59750
X112920Y-64574
X112925Y-65374
X113070Y-47687
X113350Y-54813
X113420Y-76641
X113550Y-60748
X113850Y-49750
X113857Y-72661
X113928Y-76133
X113979Y-73879
X114275Y-70725
X114325Y-53569
X114425Y-61250
X114527Y-74529
X114529Y-75329
X114600Y-64150
X114625Y-76975
X115386Y-60569
X115400Y-85550
X115440Y-67650
X115440Y-68950
X115550Y-82650
X115600Y-42375
X115875Y-35175
X115975Y-72750
X115975Y-74675
X115975Y-75725
X116000Y-73700
X116125Y-52100
X116125Y-52800
X116250Y-49750
X116450Y-89320
X116460Y-68900
X116730Y-65114
X117113Y-50431
X117275Y-49750
X117325Y-67625
X117398Y-69975
X117398Y-71275
X117450Y-89320
X117526Y-82347
X117825Y-42000
X117903Y-62825
X118200Y-49750
X118418Y-69950
X118418Y-71275
X118550Y-76000
X118670Y-45275
X118757Y-73706
X118825Y-78025
X119353Y-63025
X119375Y-80000
X119550Y-43000
X119625Y-45725
X120050Y-44125
X120271Y-63025
X120650Y-35150
X120925Y-32075
X120987Y-46200
X121061Y-49674
X121250Y-48423
X122340Y-75536
X122340Y-81745
X122340Y-89155
X122448Y-32273
X122510Y-34063
X122525Y-39063
X122622Y-37273
X122900Y-35600
X122937Y-45800
X122937Y-50000
X122941Y-63195
T4
X86050Y-83149
X86050Y-85689
X86050Y-88229
X88590Y-83149
X88590Y-85689
X88590Y-88229
X110335Y-37905
X110335Y-40445
X110335Y-42985
X112875Y-37905
X112875Y-40445
X112875Y-42985
T5
X95095Y-37905
X95095Y-40445
X95095Y-42985
X97635Y-37905
X97635Y-40445
X97635Y-42985
X100175Y-37905
X100175Y-40445
X100175Y-42985
X102715Y-37905
X102715Y-40445
X102715Y-42985
X105255Y-37905
X105255Y-40445
X105255Y-42985
X107795Y-37905
X107795Y-40445
X107795Y-42985
T6
X86000Y-42250
X86000Y-78250
X122000Y-42250
X122000Y-78250
T7
X89900Y-33350
X89900Y-38350
X101500Y-33350
X106500Y-33350
X118060Y-33380
X118060Y-38380
T3
G00X117825Y-52310
M15
G01X118925Y-52310
M16
G05
G00X117825Y-60950
M15
G01X118925Y-60950
M16
G05
G00X122155Y-52310
M15
G01X122955Y-52310
M16
G05
G00X122155Y-60950
M15
G01X122955Y-60950
M16
G05
M30
